<?xml version="1.0" encoding="UTF-8"?>
<svg id="Layer_1" data-name="Layer 1" xmlns="http://www.w3.org/2000/svg" viewBox="0 500 2000 1000">
  <defs>
    <style>
      .cls-1 {
        fill: #fff;
      }
    </style>
  </defs>
  <polygon class="cls-1" points="261.05 892.65 233.32 874.17 233.32 938.78 261.05 957.26 261.05 892.65"/>
  <path class="cls-1" d="M258.56,735.56c-.27-.5-.86-1.05-1.64-1.15l-2.3-.34-8.6-6.66c-19.68-4.12-52.08-2.33-74.7,6.01h-.07c-22.62-8.34-55.02-10.13-74.72-6.01l-8.58,6.66-2.3,.34c-.78,.11-1.38,.66-1.64,1.15l-23.94,52.92c-.77,1.48,.43,2.72,1.82,2.45,36.44-6.93,75.09-9.06,109.38-9.06h.04c34.27,0,72.94,2.13,109.39,9.06,1.38,.27,2.6-.97,1.82-2.45l-23.95-52.92Zm-93.08,40.14c-24.49-.33-73.94,3.67-95.83,7.23l16.41-42.71,7.9-6-11.89,33.84c24.06-4.55,57.89-3.1,87.4,6.58-1.75,0-2.98,.64-3.98,1.07m11.26,0c-.99-.43-2.21-1.07-3.99-1.07,29.51-9.68,63.37-11.12,87.45-6.58l-11.95-33.84,7.91,6,16.41,42.71c-21.89-3.56-71.35-7.55-95.84-7.23"/>
  <path class="cls-1" d="M105.39,933.2c27.92,0,50.63-22.71,50.63-50.64s-22.71-50.62-50.63-50.62-50.62,22.71-50.62,50.62,22.72,50.64,50.62,50.64m6.64-4.89c3.78-3.74,7.06-7.8,9.79-12.16,3.95,.76,7.87,1.79,11.69,3.07-6.13,4.72-13.46,7.91-21.48,9.08m25.3-12.33c-4.32-1.61-8.76-2.86-13.22-3.79,1.93-3.59,3.5-7.35,4.71-11.22,5.6,1.23,11.1,2.86,16.47,4.95-2.17,3.71-4.86,7.11-7.96,10.07m10-13.96c-5.66-2.2-11.45-3.96-17.34-5.24,.93-3.92,1.46-7.97,1.61-12.03h19.95c-.28,6.14-1.75,11.99-4.22,17.27m4.22-21.63h-19.95c-.15-4.06-.69-8.09-1.61-12.01,5.89-1.3,11.68-3.03,17.34-5.26,2.48,5.31,3.94,11.15,4.22,17.27m-6.26-21.16c-5.38,2.08-10.88,3.73-16.47,4.92-1.21-3.85-2.76-7.58-4.71-11.17,4.5-.93,8.91-2.2,13.22-3.83,3.1,2.96,5.79,6.38,7.96,10.08m-11.79-13.33c-3.81,1.3-7.74,2.33-11.69,3.08-2.73-4.34-6.01-8.44-9.79-12.13,8.02,1.14,15.34,4.36,21.48,9.05m-25.94-7.28c3.65,3.38,6.83,7.12,9.51,11.12-3.15,.43-6.33,.68-9.51,.74v-11.86Zm0,16.25c4.06-.1,8.08-.44,12.05-1.07,2.04,3.57,3.66,7.34,4.9,11.2-5.58,.96-11.23,1.52-16.95,1.63v-11.76Zm0,16.11c6.12-.11,12.19-.71,18.15-1.76,.87,3.65,1.38,7.4,1.52,11.18h-19.67v-9.41Zm0,13.77h19.67c-.13,3.79-.66,7.53-1.52,11.2-5.96-1.09-12.04-1.68-18.15-1.78v-9.41Zm0,13.78c5.72,.1,11.37,.65,16.95,1.61-1.26,3.88-2.88,7.62-4.92,11.23-3.99-.63-8.01-.97-12.04-1.07v-11.78Zm0,16.13c3.18,.08,6.37,.31,9.51,.72-2.67,4.03-5.85,7.75-9.51,11.15v-11.87Zm-48.32-29.91h19.89c.14,4.08,.68,8.11,1.61,12.03-5.87,1.28-11.63,3.03-17.27,5.24-2.47-5.28-3.93-11.11-4.22-17.27m6.25,21.17c5.36-2.07,10.84-3.72,16.41-4.93,1.19,3.85,2.78,7.61,4.73,11.22-4.49,.92-8.88,2.19-13.16,3.78-3.1-2.96-5.78-6.36-7.98-10.07m11.78,13.32c3.82-1.29,7.7-2.32,11.64-3.06,2.74,4.33,6,8.4,9.77,12.12-7.98-1.18-15.29-4.36-21.41-9.07m25.93,7.37c-3.66-3.43-6.86-7.18-9.56-11.19,3.16-.44,6.38-.68,9.56-.76v11.95Zm0-16.3c-4.03,.09-8.07,.44-12.06,1.07-2.05-3.59-3.68-7.34-4.92-11.23,5.58-.95,11.25-1.52,16.98-1.61v11.78Zm0-16.14c-6.13,.11-12.21,.7-18.19,1.78-.88-3.65-1.38-7.41-1.52-11.2h19.71v9.41Zm0-13.77h-19.71c.13-3.78,.65-7.53,1.51-11.2,5.99,1.08,12.07,1.67,18.2,1.78v9.41Zm0-13.76c-5.73-.12-11.4-.67-16.99-1.65,1.26-3.86,2.87-7.62,4.92-11.2,3.96,.65,8.02,.99,12.07,1.09v11.76Zm0-16.15c-3.18-.06-6.4-.31-9.56-.74,2.71-4.03,5.91-7.77,9.56-11.19v11.93Zm-4.52-13.63c-3.77,3.71-7.03,7.79-9.77,12.12-3.94-.74-7.82-1.76-11.64-3.07,6.12-4.68,13.43-7.89,21.41-9.05m-25.21,12.31c4.29,1.62,8.68,2.88,13.15,3.81-1.93,3.59-3.52,7.34-4.71,11.19-5.58-1.21-11.05-2.84-16.41-4.92,2.2-3.7,4.88-7.12,7.98-10.08m-10,13.96c5.64,2.2,11.4,3.96,17.27,5.26-.93,3.9-1.46,7.95-1.61,12.01h-19.89c.29-6.13,1.76-11.96,4.22-17.27"/>
  <path class="cls-1" d="M316.55,722.42l-.03-.02-.5-.12c-47.38-10.13-96.07-15.26-144.73-15.26s-97.46,5.15-144.9,15.3l-.19,.05-.39,.13c-5.07,1.23-8.8,6-8.8,11.49v26.03c0,184.24,113.64,258.77,148.46,277.21,1.98,1.07,3.93,1.58,5.89,1.58s3.84-.52,5.79-1.58c34.77-18.42,148.43-92.97,148.43-277.21v-26.03c0-5.45-3.76-10.26-9.02-11.57m-151.79,309.4c-39.39-21.73-118.64-83.5-138.66-210.31,45.42-9.66,92-14.66,138.66-15.08v225.39Zm124.11-120.65s-.06,.08-.08,.13c-8.34,17.25-17.77,32.57-27.69,45.99,0,.02-.03,.02-.04,.03-9.01,12.23-18.41,22.97-27.74,32.22v-50.77l-27.74-18.45v93.33c-10.32,7.77-19.84,13.8-27.76,18.16v-129.97l27.76,18.46v-64.6l27.74,18.46v-65.07c9.27,.83,18.52,1.9,27.74,3.07v80.48l27.74,18.46v-94.88c9.28,1.55,18.51,3.29,27.68,5.24-5.46,34.59-15.35,64.28-27.61,89.69m-111.05-73.9v-30.84c9.26,.06,18.51,.4,27.76,.82v48.46l-27.76-18.44Zm143.33-77.25c0,17.09-1.03,33.22-2.88,48.47-96.25-20.32-197.54-20.32-293.95,.05-1.86-15.29-2.89-31.41-2.89-48.52l-.02-26.03c0-3.53,2.44-6.49,5.71-7.3l.19-.06c46.44-9.94,94.6-15.21,143.98-15.21s97.43,5.26,143.8,15.16l.11,.05c3.4,.71,5.97,3.72,5.97,7.35v26.03Z"/>
  <path class="cls-1" d="M441.48,759.19c0-27.84-2.51-30.86-17.31-32.12l-6.27-.49c-1.52-1.01-1-5.51,.5-6.27,14.56,.5,23.07,.76,33.6,.76s18.57-.27,28.59-.76c1.52,.76,2.02,5.26,.5,6.27l-3.75,.49c-14.79,2.02-15.31,5.53-15.31,32.12v93.06c0,19.8-1,37.11-5.76,48.64-8.29,20.08-26.09,36.13-49.4,36.13-3.02,0-10.78-.25-10.78-5.27,0-4.26,3.75-11.53,9.01-11.53,3.01,0,6.03,.49,9.29,1.5,3.51,1.01,7.03,1.75,10.53,1.75,5.27,0,8.29-3,10.03-6.5,5.77-11.8,6.53-49.42,6.53-62.96v-94.81Z"/>
  <path class="cls-1" d="M480.56,818.26c0-42.32,31.76-74.7,75.33-74.7,48.88,0,73.43,35.35,73.43,72.58,0,42.73-32.58,73.84-73.43,73.84-46.97,0-75.33-33.65-75.33-71.73m127.61,4.43c0-34.9-15.45-72.57-55.87-72.57-22.01,0-50.56,15.02-50.56,61.36,0,31.3,15.23,71.94,56.91,71.94,25.39,0,49.51-19.04,49.51-60.74"/>
  <path class="cls-1" d="M677.39,818.26c-10.15,0-10.58,.42-10.58,6.77v29.82c0,22.22,1.07,25.18,12.91,26.45l6.13,.65c1.27,.83,.85,4.64-.43,5.28-11.43-.43-18.61-.64-26.88-.64-9.09,0-16.27,.43-24.53,.64-1.27-.64-1.68-4.02-.41-5.28l3.59-.65c11.84-2.1,12.27-4.23,12.27-26.45v-76.17c0-22.22-1.47-25.82-12.49-26.66l-5.5-.42c-1.26-.84-.83-4.66,.43-5.29,10.38,.22,17.56,.63,26.65,.63,8.26,0,15.45-.2,24.55-.63,1.28,.63,1.71,4.45,.41,5.29l-4,.42c-12.26,1.28-12.7,4.45-12.7,26.66v24.33c0,6.56,.43,6.78,10.58,6.78h60.51c10.16,0,10.58-.22,10.58-6.78v-24.33c0-22.22-.42-25.39-12.9-26.66l-4.03-.42c-1.28-.84-.85-4.66,.42-5.29,9.72,.43,16.91,.63,25.61,.63,8.23,0,15.45-.2,24.97-.63,1.24,.63,1.68,4.45,.43,5.29l-4.46,.42c-12.27,1.28-12.71,4.45-12.71,26.66v76.17c0,22.22,.43,24.97,12.71,26.45l5.07,.65c1.27,.83,.85,4.64-.41,5.28-10.15-.43-17.36-.64-25.59-.64-8.7,0-16.3,.2-25.61,.64-1.27-.64-1.7-4.02-.42-5.28l4.03-.65c12.9-2.1,12.9-4.23,12.9-26.45v-29.82c0-6.35-.42-6.77-10.58-6.77h-60.51Z"/>
  <path class="cls-1" d="M928.13,850.62c0,6.36,0,31.54,.62,37.04-.41,1.26-1.67,2.32-4,2.32-2.55-3.59-8.69-11-27.1-31.94l-49.08-55.88c-5.7-6.55-20.11-23.9-24.55-28.55h-.42c-.85,2.54-1.06,7.4-1.06,13.75v46.13c0,9.93,.21,37.44,3.81,43.78,1.28,2.35,5.5,3.62,10.79,4.03l6.55,.65c1.29,1.69,1.07,4.23-.41,5.28-9.51-.42-16.93-.63-24.77-.63-8.87,0-14.58,.21-22.01,.63-1.48-1.05-1.68-4.02-.41-5.28l5.72-.65c4.87-.63,8.24-1.88,9.31-4.23,2.95-7.62,2.75-33.42,2.75-43.58v-61.15c0-5.92-.22-10.38-4.67-15.24-2.96-2.96-8.03-4.44-13.12-5.09l-3.59-.41c-1.27-1.27-1.27-4.44,.41-5.3,8.89,.63,20.11,.63,23.91,.63,3.39,0,6.99-.21,9.74-.63,4.23,10.8,29.2,38.73,36.16,46.55l20.53,23.05c14.6,16.3,24.96,28.15,34.9,38.31h.43c.85-1.05,.85-4.45,.85-8.89v-45.28c0-9.93-.21-37.44-4.23-43.79-1.27-1.91-4.65-3.18-13.11-4.24l-3.6-.41c-1.48-1.27-1.28-4.67,.4-5.3,9.74,.42,16.93,.63,24.98,.63,9.1,0,14.61-.21,21.79-.63,1.69,1.06,1.69,4.03,.43,5.3l-2.98,.41c-6.75,1.06-10.99,2.76-11.86,4.44-3.57,7.63-3.16,33.86-3.16,43.59v50.57Z"/>
  <path class="cls-1" d="M984.07,889.99c-17.78,0-29-5.5-33.03-7.83-2.52-4.65-5.28-19.68-5.71-29.62,1.08-1.48,4.24-1.91,5.09-.63,3.17,10.78,11.85,31.52,36.38,31.52,17.77,0,26.47-11.64,26.47-24.34,0-9.31-1.92-19.68-17.37-29.61l-20.09-13.13c-10.59-6.98-22.85-19.05-22.85-36.38,0-20.11,15.66-36.39,43.15-36.39,6.58,0,14.2,1.27,19.69,2.74,2.75,.85,5.71,1.28,7.4,1.28,1.91,5.07,3.82,16.93,3.82,25.81-.84,1.27-4.24,1.89-5.29,.64-2.75-10.17-8.45-23.91-28.77-23.91s-25.18,13.74-25.18,23.48c0,12.26,10.16,21.16,17.98,26.03l16.94,10.57c13.34,8.26,26.45,20.52,26.45,40.63,0,23.27-17.57,39.14-45.06,39.14"/>
  <path class="cls-1" d="M1154.71,805.59c-12.04,0-12.54,.5-12.54,8.02v35.37c0,26.34,1.26,29.85,15.29,31.35l7.28,.75c1.5,1.01,1,5.51-.49,6.27-13.54-.51-22.08-.76-31.86-.76-10.79,0-19.32,.5-29.09,.76-1.52-.76-2.01-4.76-.5-6.27l4.25-.75c14.04-2.51,14.55-5.02,14.55-31.35v-90.29c0-26.34-1.77-30.6-14.79-31.61l-6.53-.5c-1.5-1-1.02-5.51,.5-6.27,12.29,.25,20.82,.76,31.61,.76,9.77,0,18.31-.25,29.08-.76,1.52,.76,2.01,5.27,.5,6.27l-4.77,.5c-14.54,1.52-15.04,5.26-15.04,31.61v28.85c0,7.77,.5,8.01,12.54,8.01h71.73c12.04,0,12.53-.24,12.53-8.01v-28.85c0-26.34-.49-30.09-15.3-31.61l-4.76-.5c-1.51-1-1.01-5.51,.51-6.27,11.52,.5,20.06,.76,30.35,.76s18.3-.25,29.59-.76c1.5,.76,2.01,5.27,.49,6.27l-5.26,.5c-14.54,1.52-15.05,5.26-15.05,31.61v90.29c0,26.34,.51,29.59,15.05,31.35l6.02,.75c1.51,1.01,1,5.51-.51,6.27-12.03-.51-20.56-.76-30.33-.76-10.29,0-19.32,.25-30.35,.76-1.52-.76-2.01-4.76-.51-6.27l4.76-.75c15.3-2.51,15.3-5.02,15.3-31.35v-35.37c0-7.52-.49-8.02-12.53-8.02h-71.73Z"/>
  <path class="cls-1" d="M1279.02,818.26c0-42.32,31.74-74.7,75.33-74.7,48.87,0,73.41,35.35,73.41,72.58,0,42.73-32.58,73.84-73.41,73.84-46.97,0-75.33-33.65-75.33-71.73m127.59,4.43c0-34.9-15.45-72.57-55.87-72.57-22,0-50.56,15.02-50.56,61.36,0,31.3,15.24,71.94,56.92,71.94,25.4,0,49.51-19.04,49.51-60.74"/>
  <path class="cls-1" d="M1466.07,854.86c0,22.22,.42,24.97,13.95,26.45l5.73,.63c1.27,1.05,.85,4.66-.42,5.29-12.06-.43-19.04-.63-27.52-.63s-16.5,.2-25.8,.63c-1.27-.63-1.7-4.02-.42-5.29l4.43-.63c12.28-1.68,12.7-4.23,12.7-26.45v-78.07c0-17.99-.42-21.6-9.94-22.65l-7.61-.85c-1.48-1.27-1.27-4.44,.42-5.29,11.21-1.48,24.32-1.7,41.89-1.7s30.67,2.33,40.62,8.47c9.73,6.14,16.93,17.14,16.93,31.74,0,19.47-12.05,29.2-21.16,33.64-9.31,4.44-20.52,6.35-29.19,6.35-1.48-.64-1.48-3.81-.22-4.22,22.85-4.24,31.11-17.15,31.11-35.57,0-20.52-12.05-33.84-34.06-33.84-11.21,0-11.42,.83-11.42,7.62v94.36Z"/>
  <path class="cls-1" d="M1554.11,778.68c0-22.22-.43-25.6-12.7-26.65l-5.29-.42c-1.27-.86-.84-4.68,.42-5.3,10.37,.42,17.14,.62,26.66,.62,8.25,0,15.45-.2,24.55-.62,1.26,.62,1.69,4.44,.41,5.3l-4.01,.42c-12.29,1.27-12.71,4.43-12.71,26.65v24.34c0,4.02,.42,8.05,2.76,8.05,1.89,0,4.44-1.28,5.91-2.34,2.96-2.53,8.47-8.04,10.8-10.16l22.84-22.63c4.02-3.81,14.4-14.6,16.5-17.57,1.07-1.47,1.49-2.54,1.49-3.38s-.84-1.47-3.6-2.12l-5.71-1.26c-1.49-1.48-1.27-4.24,.42-5.3,7.39,.42,15.86,.62,23.27,.62s14.59-.2,20.95-.62c1.47,1.06,1.68,4.03,.42,5.3-5.5,.42-13.75,2.54-19.68,5.92-5.91,3.38-17.77,13.32-29.62,24.54l-19.04,17.98c-2.96,2.97-4.86,4.88-4.86,6.57,0,1.47,1.27,3.17,4.02,6.55,20.1,23.06,36.39,42.11,52.9,59.45,5.08,5.08,9.74,7.84,16.94,8.69l5.69,.63c1.49,1.05,1.06,4.65-.42,5.29-5.5-.43-13.75-.64-23.69-.64-8.67,0-16.08,.21-25.81,.64-1.48-.43-2.12-4.03-.85-5.29l4.86-.85c2.97-.43,5.08-1.06,5.08-2.11,0-1.28-1.48-2.96-2.96-4.87-4.03-5.08-9.52-10.78-17.56-19.89l-16.93-19.04c-12.06-13.53-15.45-17.77-20.52-17.77-3.18,0-3.6,2.75-3.6,10.15v27.3c0,22.21,.42,25.17,12.28,26.45l5.72,.63c1.26,.85,.85,4.65-.43,5.29-10.36-.43-17.56-.64-25.81-.64-8.67,0-15.87,.21-24.54,.64-1.27-.64-1.7-3.81-.43-5.29l4.24-.63c11.21-1.69,11.64-4.24,11.64-26.45v-76.18Z"/>
  <path class="cls-1" d="M1699.33,779.11c0-22.44-.42-26.04-12.91-27.09l-5.29-.42c-1.27-.85-.84-4.66,.42-5.3,10.58,.43,17.78,.64,26.66,.64s15.66-.21,26.24-.64c1.27,.64,1.69,4.45,.42,5.3l-5.29,.42c-12.48,1.05-12.91,4.65-12.91,27.09v75.32c0,22.44,.43,25.4,12.91,26.88l5.29,.64c1.27,.84,.85,4.65-.42,5.29-10.58-.43-17.79-.65-26.24-.65-8.88,0-16.08,.21-26.66,.65-1.27-.65-1.7-4.02-.42-5.29l5.29-.64c12.48-1.48,12.91-4.44,12.91-26.88v-75.32Z"/>
  <path class="cls-1" d="M1882.35,850.62c0,6.36,0,31.54,.65,37.04-.43,1.26-1.69,2.32-4.02,2.32-2.54-3.59-8.68-11-27.09-31.94l-49.08-55.88c-5.72-6.55-20.11-23.9-24.55-28.55h-.41c-.86,2.54-1.08,7.4-1.08,13.75v46.13c0,9.93,.22,37.44,3.81,43.78,1.27,2.35,5.5,3.62,10.8,4.03l6.55,.65c1.27,1.69,1.06,4.23-.42,5.28-9.52-.42-16.93-.63-24.76-.63-8.87,0-14.6,.21-22,.63-1.48-1.05-1.7-4.02-.42-5.28l5.72-.65c4.86-.63,8.25-1.88,9.3-4.23,2.97-7.62,2.76-33.42,2.76-43.58v-61.15c0-5.92-.21-10.38-4.65-15.24-2.97-2.96-8.05-4.44-13.12-5.09l-3.6-.41c-1.27-1.27-1.27-4.44,.43-5.3,8.88,.63,20.09,.63,23.9,.63,3.38,0,6.98-.21,9.73-.63,4.24,10.8,29.2,38.73,36.18,46.55l20.53,23.05c14.59,16.3,24.96,28.15,34.9,38.31h.43c.84-1.05,.84-4.45,.84-8.89v-45.28c0-9.93-.22-37.44-4.23-43.79-1.27-1.91-4.66-3.18-13.11-4.24l-3.6-.41c-1.49-1.27-1.27-4.67,.41-5.3,9.74,.42,16.93,.63,24.98,.63,9.1,0,14.6-.21,21.79-.63,1.7,1.06,1.7,4.03,.42,5.3l-2.96,.41c-6.77,1.06-11,2.76-11.86,4.44-3.59,7.63-3.18,33.86-3.18,43.59v50.57Z"/>
  <path class="cls-1" d="M1937.92,889.99c-17.77,0-28.98-5.5-33.01-7.83-2.53-4.65-5.29-19.68-5.71-29.62,1.06-1.48,4.24-1.91,5.07-.63,3.18,10.78,11.86,31.52,36.39,31.52,17.78,0,26.46-11.64,26.46-24.34,0-9.31-1.91-19.68-17.36-29.61l-20.09-13.13c-10.58-6.98-22.86-19.05-22.86-36.38,0-20.11,15.66-36.39,43.17-36.39,6.56,0,14.17,1.27,19.68,2.74,2.75,.85,5.71,1.28,7.4,1.28,1.91,5.07,3.81,16.93,3.81,25.81-.84,1.27-4.23,1.89-5.29,.64-2.75-10.17-8.45-23.91-28.76-23.91s-25.18,13.74-25.18,23.48c0,12.26,10.16,21.16,17.98,26.03l16.94,10.57c13.34,8.26,26.46,20.52,26.46,40.63,0,23.27-17.57,39.14-45.08,39.14"/>
  <path class="cls-1" d="M815.68,997.81c0-11.59-.22-13.45-6.67-14l-2.73-.22c-.65-.43-.44-2.41,.22-2.73,5.47,.22,9.19,.33,13.78,.33s8.09-.11,13.56-.33c.66,.33,.88,2.3,.22,2.73l-2.73,.22c-6.45,.55-6.67,2.41-6.67,14v38.93c0,11.6,.22,13.13,6.67,13.89l2.73,.34c.66,.43,.44,2.4-.22,2.73-5.47-.22-9.19-.33-13.56-.33-4.59,0-8.31,.11-13.78,.33-.66-.33-.87-2.07-.22-2.73l2.73-.34c6.45-.76,6.67-2.29,6.67-13.89v-38.93Z"/>
  <path class="cls-1" d="M916.93,1034.77c0,3.29,0,16.3,.33,19.15-.22,.66-.87,1.2-2.08,1.2-1.31-1.86-4.49-5.68-14-16.51l-25.37-28.88c-2.95-3.38-10.39-12.35-12.69-14.76h-.21c-.44,1.32-.55,3.83-.55,7.11v23.85c0,5.14,.1,19.35,1.97,22.63,.65,1.21,2.84,1.86,5.58,2.08l3.38,.34c.66,.88,.55,2.19-.22,2.73-4.92-.22-8.74-.33-12.79-.33-4.59,0-7.55,.11-11.37,.33-.77-.54-.87-2.07-.22-2.73l2.95-.34c2.51-.33,4.27-.98,4.82-2.19,1.52-3.93,1.42-17.28,1.42-22.52v-31.61c0-3.06-.1-5.35-2.41-7.86-1.53-1.53-4.15-2.3-6.78-2.63l-1.86-.23c-.65-.65-.65-2.28,.22-2.72,4.59,.32,10.39,.32,12.36,.32,1.74,0,3.6-.11,5.02-.32,2.19,5.58,15.09,20,18.71,24.06l10.61,11.92c7.55,8.42,12.9,14.55,18.05,19.79h.21c.44-.54,.44-2.29,.44-4.59v-23.41c0-5.14-.11-19.35-2.19-22.63-.66-.99-2.41-1.65-6.78-2.19l-1.86-.23c-.77-.65-.66-2.4,.22-2.72,5.02,.21,8.74,.32,12.9,.32,4.71,0,7.55-.11,11.27-.32,.88,.54,.88,2.07,.22,2.72l-1.53,.23c-3.5,.54-5.69,1.42-6.12,2.29-1.86,3.94-1.64,17.5-1.64,22.53v26.14Z"/>
  <path class="cls-1" d="M957.47,1055.12c-9.19,0-14.99-2.84-17.06-4.05-1.31-2.4-2.74-10.17-2.95-15.31,.55-.77,2.19-.99,2.62-.33,1.64,5.58,6.13,16.29,18.82,16.29,9.19,0,13.67-6.01,13.67-12.57,0-4.81-.99-10.18-8.97-15.32l-10.39-6.78c-5.47-3.62-11.82-9.85-11.82-18.81,0-10.39,8.1-18.81,22.32-18.81,3.39,0,7.33,.65,10.17,1.42,1.42,.44,2.95,.65,3.83,.65,.99,2.63,1.97,8.76,1.97,13.35-.43,.65-2.19,.98-2.73,.33-1.42-5.26-4.37-12.36-14.87-12.36s-13.01,7.11-13.01,12.15c0,6.33,5.25,10.93,9.29,13.44l8.75,5.47c6.89,4.27,13.68,10.61,13.68,21,0,12.04-9.08,20.23-23.3,20.23"/>
  <path class="cls-1" d="M1032.13,1036.97c0,11.48,.22,13.12,6.57,13.66l3.5,.34c.65,.43,.43,2.4-.22,2.73-6.23-.22-9.95-.33-14.33-.33s-8.2,.11-15.2,.33c-.65-.33-.87-2.19,0-2.73l3.94-.34c6.23-.54,6.78-2.19,6.78-13.66v-48.89c0-3.4,0-3.49-3.28-3.49h-6.01c-4.71,0-10.72,.21-13.46,2.73-2.63,2.41-3.72,4.81-4.93,7.55-.87,.65-2.41,.1-2.84-.77,1.75-4.93,3.38-11.93,4.15-16.3,.33-.21,1.76-.33,2.08,0,.65,3.51,4.27,3.39,9.3,3.39h44.3c5.91,0,6.89-.22,8.52-3.06,.55-.22,1.76-.11,1.97,.32-1.21,4.49-1.97,13.35-1.64,16.63-.44,.88-2.3,.88-2.85,.22-.33-2.73-1.09-6.78-2.73-7.98-2.51-1.86-6.67-2.73-12.69-2.73h-7.77c-3.28,0-3.18,.09-3.18,3.71v48.67Z"/>
  <path class="cls-1" d="M1083.5,997.81c0-11.59-.22-13.45-6.67-14l-2.74-.22c-.65-.43-.44-2.41,.22-2.73,5.47,.22,9.19,.33,13.78,.33s8.09-.11,13.55-.33c.66,.33,.89,2.3,.22,2.73l-2.73,.22c-6.46,.55-6.68,2.41-6.68,14v38.93c0,11.6,.22,13.13,6.68,13.89l2.73,.34c.66,.43,.44,2.4-.22,2.73-5.46-.22-9.19-.33-13.55-.33-4.6,0-8.32,.11-13.78,.33-.66-.33-.87-2.07-.22-2.73l2.74-.34c6.45-.76,6.67-2.29,6.67-13.89v-38.93Z"/>
  <path class="cls-1" d="M1152.17,1036.97c0,11.48,.22,13.12,6.56,13.66l3.5,.34c.66,.43,.43,2.4-.22,2.73-6.23-.22-9.95-.33-14.33-.33s-8.21,.11-15.21,.33c-.65-.33-.87-2.19,0-2.73l3.94-.34c6.23-.54,6.78-2.19,6.78-13.66v-48.89c0-3.4,0-3.49-3.28-3.49h-6.01c-4.71,0-10.72,.21-13.46,2.73-2.63,2.41-3.72,4.81-4.92,7.55-.88,.65-2.41,.1-2.84-.77,1.75-4.93,3.38-11.93,4.15-16.3,.33-.21,1.76-.33,2.08,0,.65,3.51,4.27,3.39,9.3,3.39h44.3c5.91,0,6.89-.22,8.52-3.06,.55-.22,1.76-.11,1.98,.32-1.21,4.49-1.98,13.35-1.65,16.63-.44,.88-2.3,.88-2.85,.22-.33-2.73-1.09-6.78-2.73-7.98-2.51-1.86-6.67-2.73-12.69-2.73h-7.77c-3.28,0-3.17,.09-3.17,3.71v48.67Z"/>
  <path class="cls-1" d="M1255.7,1008.63c0-6.78-.22-19.35-2.07-22.63-.77-1.32-2.74-2.08-5.47-2.3l-2.73-.22c-.66-.76-.45-2.19,.21-2.62,4.16,.21,8.21,.33,12.47,.33,4.6,0,7.55-.12,11.48-.33,.89,.54,.77,1.95,.22,2.62l-2.63,.22c-2.74,.22-4.8,1.21-5.47,2.63-1.53,3.6-1.53,16.18-1.53,22.3v12.36c0,9.51-1.52,19.58-7.65,26.14-4.7,5.14-12.8,7.98-20.89,7.98-7.55,0-15.09-1.42-20.46-6.01-5.79-4.81-8.53-12.8-8.53-25.81v-25.82c0-11.37-.22-13.23-6.56-13.78l-2.73-.22c-.66-.43-.44-2.29,.22-2.62,5.47,.21,9.19,.33,13.56,.33s8.09-.12,13.46-.33c.65,.33,.87,2.19,.22,2.62l-2.63,.22c-6.35,.55-6.57,2.41-6.57,13.78v23.63c0,17.61,5.48,29.19,22.21,29.19,15.85,0,21.87-12.46,21.87-29.09v-12.58Z"/>
  <path class="cls-1" d="M1316.79,1036.97c0,11.48,.22,13.12,6.56,13.66l3.5,.34c.65,.43,.44,2.4-.22,2.73-6.23-.22-9.95-.33-14.33-.33s-8.21,.11-15.2,.33c-.65-.33-.88-2.19,0-2.73l3.93-.34c6.23-.54,6.78-2.19,6.78-13.66v-48.89c0-3.4,0-3.49-3.27-3.49h-6.02c-4.71,0-10.72,.21-13.46,2.73-2.62,2.41-3.72,4.81-4.92,7.55-.87,.65-2.4,.1-2.83-.77,1.75-4.93,3.38-11.93,4.15-16.3,.34-.21,1.75-.33,2.07,0,.65,3.51,4.27,3.39,9.3,3.39h44.3c5.91,0,6.9-.22,8.53-3.06,.55-.22,1.75-.11,1.96,.32-1.2,4.49-1.96,13.35-1.64,16.63-.44,.88-2.3,.88-2.84,.22-.33-2.73-1.1-6.78-2.74-7.98-2.51-1.86-6.67-2.73-12.69-2.73h-7.77c-3.27,0-3.17,.09-3.17,3.71v48.67Z"/>
  <path class="cls-1" d="M1368.16,997.59c0-11.37-.22-13.01-6.66-13.77l-1.76-.23c-.65-.43-.43-2.4,.22-2.73,4.71,.21,8.42,.33,12.9,.33h20.57c7,0,13.46,0,14.77-.33,.65,1.85,1.31,9.72,1.75,14.54-.44,.66-2.19,.88-2.73,.22-1.65-5.14-2.64-8.96-8.32-10.38-2.29-.56-5.79-.66-10.61-.66h-7.87c-3.29,0-3.29,.22-3.29,4.38v21.86c0,3.06,.33,3.06,3.62,3.06h6.34c4.6,0,7.99-.22,9.3-.65,1.31-.44,2.09-1.09,2.63-3.83l.87-4.48c.55-.66,2.41-.66,2.84,.1,0,2.63-.43,6.9-.43,11.05s.43,8.09,.43,10.5c-.43,.77-2.29,.77-2.84,.1l-.98-4.26c-.42-1.97-1.21-3.61-3.39-4.16-1.53-.44-4.15-.54-8.42-.54h-6.34c-3.29,0-3.62,.1-3.62,2.95v15.42c0,5.79,.33,9.51,2.08,11.37,1.31,1.31,3.6,2.51,13.22,2.51,8.42,0,11.6-.44,14-1.64,1.98-1.09,4.92-4.92,7.77-10.62,.77-.54,2.31-.22,2.74,.77-.77,3.83-3.5,12.25-4.92,15.2-9.84-.22-19.58-.33-29.31-.33h-9.85c-4.7,0-8.42,.11-14.87,.33-.65-.33-.87-2.07-.22-2.73l3.61-.34c6.23-.54,6.78-2.19,6.78-13.66v-39.38Z"/>
  <path class="cls-1" d="M1481.43,1014.32c-.65,1.86-1.53,5.35-2.84,10.17-3.28,12.25-6.23,22.76-9.73,34.78-2.85,9.84-6.46,15.42-8.64,17.61-1.64,1.53-6.67,5.91-13.12,5.91-5.91,0-7.99-3.72-7.99-5.35,0-2.19,1.31-4.05,2.51-4.92,.88-.65,1.86-.34,2.51,.44,2.63,2.73,5.91,4.49,8.32,4.49,2.19,0,4.48-.77,7-9.19,5.03-17.28,8.86-36.09,14.11-53.92h-9.08c-1.09-.98-.65-3.06,.77-4.05h9.4c2.85-9.84,5.8-18.37,12.26-26.03,5.46-6.46,11.15-9.08,17.49-9.08,4.05,0,8.42,2.85,8.42,7.22,0,2.84-2.95,6.23-4.7,6.23-.98,0-1.43-.99-1.53-1.76-.33-6.01-3.39-7.99-6.13-7.99-2.4,0-5.35,2.2-7.87,5.91-5.03,7.33-7.21,15.1-10.18,25.49h13.67c.77,1.21,.55,2.84-1.08,4.05h-13.57Z"/>
  <path class="cls-1" d="M1533.58,1022.53c-.33,6.01-3.49,16.51-11.59,24.82-6.78,7-12.69,7.55-15.64,7.55-7,0-11.6-5.14-10.94-14.55,.45-6.78,4.49-17.37,11.92-24.49,5.69-5.47,10.62-7.11,15.09-7.11,7.77,0,11.59,5.79,11.16,13.78m-19.91-5.25c-6.34,8.53-10.61,21.54-10.93,27.34-.22,3.82,1.31,7.01,4.48,7.01,2.41,0,5.15-1,8.64-5.7,4.81-6.45,9.95-20.89,10.18-26.68,.1-3.39-.55-7.22-4.37-7.22-2.2,0-4.82,.99-7.99,5.25"/>
  <path class="cls-1" d="M1563.3,1019.14l-4.7,13.78h.55c3.28-6.12,8.64-14.87,11.49-18.48,2.51-3.28,5.25-5.69,7.98-5.69,3.83,0,4.37,3.72,4.37,5.36s-.98,4.81-2.3,6.56c-1.31,1.64-3.07,1.75-3.5-.55-.55-2.84-1.21-4.26-2.3-4.26-.98,0-2.19,1.09-3.83,3.28-6.66,8.53-12.79,21.88-18.6,34.45-.43,.88-.98,1.32-1.85,1.32-1.2,0-4.37-.44-3.61-2.84,1.41-4.38,8.31-23.74,11.26-34.46,.33-1.21,.11-2.3-.88-2.3-2.84,0-5.79,3.07-7.77,5.69-1.09,.22-1.86-.44-1.74-1.75,3.5-5.91,7.65-10.5,12.9-10.5s3.5,7.44,2.51,10.39"/>
  <path class="cls-1" d="M727.12,1114.33c0-7.65-.55-9.95-5.14-10.61l-2.41-.33c-.87-.53-.99-2.3,.11-2.73,9.3-.55,18.16-.88,27.45-.88s16.95,.65,24.06,3.28c14.77,5.35,22.2,17.83,22.2,32.26s-6.66,25.81-19.13,32.6c-7.12,3.82-16.08,5.25-24.5,5.25-7,0-14-.88-17.83-.88-4.59,0-8.53,.11-13.67,.33-.66-.33-.87-2.08-.22-2.73l2.52-.34c6.34-.87,6.56-2.19,6.56-13.66v-41.57Zm8.97,39.04c0,5.8,.34,9.3,2.19,11.92,2.41,3.39,6.57,4.49,13.45,4.49,21.22,0,30.73-13.89,30.73-34.22,0-12.04-5.79-32.38-34.44-32.38-6.45,0-9.95,.87-10.84,1.52-.87,.66-1.09,3.39-1.09,8.32v40.35Z"/>
  <path class="cls-1" d="M846.18,1146.92c-.77-2.4-1.2-2.73-4.48-2.73h-16.52c-2.73,0-3.39,.33-4.15,2.63l-3.83,11.49c-1.64,4.92-2.41,7.88-2.41,9.07,0,1.32,.55,1.96,3.17,2.19l3.61,.34c.77,.53,.77,2.29-.22,2.73-2.84-.22-6.23-.22-11.37-.33-3.62,0-7.55,.22-10.5,.33-.66-.44-.87-2.2-.22-2.73l3.61-.34c2.63-.22,5.04-1.42,6.57-5.36,1.97-5.02,5.03-12.14,9.63-24.38l11.15-29.53c1.53-3.93,2.19-6.01,1.86-7.77,2.63-.77,4.49-2.73,5.69-4.15,.66,0,1.42,.22,1.64,.98,1.42,4.81,3.17,9.84,4.81,14.65l14.99,43.97c3.16,9.4,4.59,11.05,9.29,11.59l2.95,.34c.77,.53,.55,2.29,0,2.73-4.48-.22-8.31-.33-13.23-.33-5.24,0-9.41,.22-12.58,.33-.87-.44-.98-2.2-.22-2.73l3.17-.34c2.3-.22,3.83-.87,3.83-1.96,0-1.21-.55-3.18-1.42-5.8l-4.81-14.88Zm-21.65-9.73c-.87,2.51-.77,2.63,2.29,2.63h13.45c3.17,0,3.39-.44,2.41-3.39l-5.91-17.82c-.87-2.63-1.85-5.58-2.51-6.9h-.22c-.33,.55-1.42,3.18-2.63,6.46l-6.89,19.03Z"/>
  <path class="cls-1" d="M907.85,1155.9c0,11.48,.21,13.12,6.56,13.66l3.5,.34c.65,.43,.43,2.4-.22,2.73-6.23-.22-9.96-.33-14.33-.33s-8.2,.11-15.2,.33c-.66-.33-.88-2.19,0-2.73l3.93-.34c6.23-.54,6.78-2.19,6.78-13.66v-48.89c0-3.39,0-3.5-3.28-3.5h-6.01c-4.7,0-10.72,.22-13.46,2.73-2.63,2.41-3.72,4.81-4.92,7.55-.87,.66-2.41,.11-2.85-.77,1.76-4.92,3.4-11.92,4.16-16.3,.32-.22,1.74-.33,2.08,0,.65,3.5,4.26,3.39,9.29,3.39h44.29c5.91,0,6.89-.22,8.53-3.07,.55-.22,1.75-.11,1.97,.33-1.2,4.49-1.97,13.35-1.64,16.63-.44,.88-2.3,.88-2.85,.22-.33-2.74-1.09-6.78-2.73-7.99-2.51-1.86-6.68-2.73-12.69-2.73h-7.77c-3.28,0-3.16,.1-3.16,3.71v48.68Z"/>
  <path class="cls-1" d="M982.61,1146.92c-.76-2.4-1.2-2.73-4.48-2.73h-16.52c-2.73,0-3.39,.33-4.15,2.63l-3.83,11.49c-1.64,4.92-2.41,7.88-2.41,9.07,0,1.32,.55,1.96,3.17,2.19l3.61,.34c.77,.53,.77,2.29-.22,2.73-2.84-.22-6.23-.22-11.37-.33-3.62,0-7.55,.22-10.5,.33-.66-.44-.87-2.2-.22-2.73l3.61-.34c2.63-.22,5.04-1.42,6.57-5.36,1.97-5.02,5.03-12.14,9.62-24.38l11.15-29.53c1.53-3.93,2.19-6.01,1.86-7.77,2.63-.77,4.49-2.73,5.69-4.15,.66,0,1.42,.22,1.64,.98,1.42,4.81,3.17,9.84,4.81,14.65l14.98,43.97c3.17,9.4,4.6,11.05,9.3,11.59l2.95,.34c.77,.53,.54,2.29,0,2.73-4.49-.22-8.32-.33-13.24-.33-5.24,0-9.41,.22-12.58,.33-.87-.44-.98-2.2-.21-2.73l3.16-.34c2.3-.22,3.84-.87,3.84-1.96,0-1.21-.56-3.18-1.43-5.8l-4.81-14.88Zm-21.65-9.73c-.87,2.51-.77,2.63,2.29,2.63h13.45c3.17,0,3.39-.44,2.41-3.39l-5.91-17.82c-.87-2.63-1.86-5.58-2.51-6.9h-.22c-.33,.55-1.42,3.18-2.62,6.46l-6.9,19.03Z"/>
  <path class="cls-1" d="M1041.53,1145.28c1.21,.77,1.65,2.08,1.65,3.5,0,1.08-.33,2.07-.87,2.73l-25.49,2.41c-1.2-.98-1.64-2.41-1.64-3.5s.33-2.07,.87-2.73l25.48-2.41Z"/>
  <path class="cls-1" d="M1066.13,1116.74c0-11.6-.22-13.46-6.68-14l-2.73-.22c-.65-.43-.44-2.4,.22-2.73,5.46,.22,9.19,.33,13.78,.33s8.09-.11,13.56-.33c.66,.33,.88,2.3,.22,2.73l-2.74,.22c-6.45,.54-6.67,2.4-6.67,14v38.93c0,11.6,.22,13.13,6.67,13.89l2.74,.34c.65,.43,.44,2.4-.22,2.73-5.47-.22-9.19-.33-13.56-.33-4.59,0-8.32,.11-13.78,.33-.66-.33-.88-2.08-.22-2.73l2.73-.34c6.46-.76,6.68-2.29,6.68-13.89v-38.93Z"/>
  <path class="cls-1" d="M1169.57,1153.7c0,3.29,0,16.3,.32,19.15-.22,.65-.87,1.2-2.07,1.2-1.32-1.86-4.49-5.68-14-16.51l-25.37-28.88c-2.95-3.38-10.39-12.35-12.69-14.76h-.22c-.44,1.31-.54,3.82-.54,7.1v23.85c0,5.14,.1,19.35,1.96,22.63,.65,1.21,2.84,1.86,5.58,2.07l3.39,.34c.66,.87,.54,2.19-.22,2.73-4.92-.22-8.75-.33-12.79-.33-4.59,0-7.54,.11-11.37,.33-.77-.54-.87-2.08-.22-2.73l2.95-.34c2.51-.33,4.26-.99,4.81-2.19,1.52-3.93,1.42-17.28,1.42-22.52v-31.61c0-3.06-.11-5.35-2.41-7.87-1.53-1.53-4.15-2.3-6.78-2.63l-1.86-.22c-.65-.65-.65-2.29,.22-2.73,4.6,.33,10.39,.33,12.36,.33,1.75,0,3.61-.11,5.03-.33,2.19,5.58,15.09,20.01,18.71,24.06l10.6,11.92c7.55,8.42,12.9,14.55,18.05,19.79h.21c.44-.54,.44-2.29,.44-4.59v-23.41c0-5.14-.1-19.35-2.19-22.63-.66-.98-2.4-1.65-6.78-2.19l-1.86-.22c-.77-.65-.66-2.4,.22-2.73,5.03,.22,8.75,.33,12.91,.33,4.7,0,7.54-.11,11.26-.33,.89,.54,.89,2.07,.22,2.73l-1.53,.22c-3.5,.54-5.69,1.42-6.12,2.3-1.86,3.93-1.64,17.49-1.64,22.52v26.14Z"/>
  <path class="cls-1" d="M1228.03,1155.9c0,11.48,.22,13.12,6.56,13.66l3.5,.34c.66,.43,.43,2.4-.22,2.73-6.23-.22-9.95-.33-14.33-.33s-8.2,.11-15.2,.33c-.66-.33-.89-2.19,0-2.73l3.93-.34c6.23-.54,6.78-2.19,6.78-13.66v-48.89c0-3.39,0-3.5-3.28-3.5h-6.01c-4.7,0-10.72,.22-13.46,2.73-2.63,2.41-3.72,4.81-4.92,7.55-.88,.66-2.41,.11-2.85-.77,1.76-4.92,3.39-11.92,4.16-16.3,.33-.22,1.75-.33,2.08,0,.65,3.5,4.26,3.39,9.29,3.39h44.3c5.91,0,6.9-.22,8.53-3.07,.55-.22,1.75-.11,1.96,.33-1.2,4.49-1.96,13.35-1.64,16.63-.44,.88-2.3,.88-2.85,.22-.33-2.74-1.09-6.78-2.73-7.99-2.51-1.86-6.67-2.73-12.69-2.73h-7.77c-3.28,0-3.17,.1-3.17,3.71v48.68Z"/>
  <path class="cls-1" d="M1279.39,1116.52c0-11.37-.22-13.01-6.66-13.78l-1.76-.22c-.65-.43-.43-2.4,.22-2.73,4.7,.22,8.42,.33,12.9,.33h20.57c7,0,13.46,0,14.77-.33,.65,1.85,1.31,9.73,1.75,14.54-.44,.66-2.19,.88-2.73,.22-1.64-5.14-2.63-8.97-8.32-10.39-2.29-.55-5.79-.66-10.61-.66h-7.87c-3.29,0-3.29,.22-3.29,4.37v21.87c0,3.07,.33,3.07,3.62,3.07h6.34c4.6,0,7.99-.22,9.3-.66,1.31-.44,2.08-1.09,2.63-3.83l.87-4.48c.55-.66,2.41-.66,2.84,.1,0,2.63-.43,6.9-.43,11.05s.43,8.09,.43,10.5c-.43,.77-2.29,.77-2.84,.1l-.98-4.26c-.43-1.97-1.21-3.61-3.39-4.16-1.53-.44-4.15-.54-8.42-.54h-6.34c-3.29,0-3.62,.1-3.62,2.95v15.42c0,5.79,.33,9.51,2.08,11.37,1.31,1.31,3.6,2.51,13.22,2.51,8.42,0,11.6-.44,14-1.64,1.98-1.09,4.92-4.92,7.77-10.62,.77-.54,2.31-.22,2.74,.77-.77,3.83-3.5,12.25-4.92,15.2-9.84-.22-19.58-.33-29.31-.33h-9.85c-4.7,0-8.41,.11-14.87,.33-.65-.33-.87-2.08-.22-2.73l3.61-.34c6.22-.54,6.78-2.19,6.78-13.66v-39.38Z"/>
  <path class="cls-1" d="M1407.56,1153.7c0,3.29,0,16.3,.33,19.15-.22,.65-.88,1.2-2.08,1.2-1.31-1.86-4.49-5.68-14-16.51l-25.37-28.88c-2.95-3.38-10.39-12.35-12.69-14.76h-.22c-.44,1.31-.55,3.82-.55,7.1v23.85c0,5.14,.11,19.35,1.97,22.63,.66,1.21,2.85,1.86,5.58,2.07l3.38,.34c.66,.87,.55,2.19-.21,2.73-4.92-.22-8.76-.33-12.8-.33-4.59,0-7.55,.11-11.37,.33-.77-.54-.88-2.08-.22-2.73l2.96-.34c2.51-.33,4.26-.99,4.8-2.19,1.53-3.93,1.43-17.28,1.43-22.52v-31.61c0-3.06-.11-5.35-2.41-7.87-1.53-1.53-4.15-2.3-6.78-2.63l-1.86-.22c-.65-.65-.65-2.29,.22-2.73,4.6,.33,10.39,.33,12.36,.33,1.74,0,3.6-.11,5.03-.33,2.19,5.58,15.09,20.01,18.7,24.06l10.61,11.92c7.54,8.42,12.91,14.55,18.04,19.79h.22c.43-.54,.43-2.29,.43-4.59v-23.41c0-5.14-.1-19.35-2.19-22.63-.65-.98-2.4-1.65-6.78-2.19l-1.86-.22c-.77-.65-.66-2.4,.22-2.73,5.03,.22,8.75,.33,12.91,.33,4.71,0,7.55-.11,11.27-.33,.88,.54,.88,2.07,.22,2.73l-1.53,.22c-3.5,.54-5.69,1.42-6.12,2.3-1.86,3.93-1.64,17.49-1.64,22.52v26.14Z"/>
  <path class="cls-1" d="M1445.9,1174.05c-9.19,0-14.99-2.84-17.06-4.05-1.31-2.4-2.74-10.17-2.96-15.31,.55-.77,2.2-.99,2.64-.33,1.64,5.58,6.12,16.29,18.8,16.29,9.2,0,13.67-6.01,13.67-12.57,0-4.81-.98-10.18-8.96-15.32l-10.39-6.78c-5.47-3.62-11.81-9.85-11.81-18.81,0-10.39,8.09-18.81,22.32-18.81,3.39,0,7.32,.65,10.17,1.42,1.41,.44,2.95,.65,3.83,.65,.98,2.63,1.96,8.75,1.96,13.34-.43,.66-2.19,.98-2.74,.33-1.41-5.25-4.37-12.36-14.87-12.36s-13.01,7.11-13.01,12.15c0,6.33,5.24,10.93,9.29,13.45l8.76,5.47c6.89,4.27,13.67,10.61,13.67,21,0,12.04-9.08,20.23-23.3,20.23"/>
  <path class="cls-1" d="M1494.32,1116.74c0-11.6-.22-13.46-6.67-14l-2.73-.22c-.65-.43-.45-2.4,.22-2.73,5.47,.22,9.19,.33,13.78,.33s8.1-.11,13.56-.33c.66,.33,.88,2.3,.22,2.73l-2.74,.22c-6.45,.54-6.66,2.4-6.66,14v38.93c0,11.6,.22,13.13,6.66,13.89l2.74,.34c.65,.43,.44,2.4-.22,2.73-5.46-.22-9.18-.33-13.56-.33s-8.31,.11-13.78,.33c-.66-.33-.87-2.08-.22-2.73l2.73-.34c6.45-.76,6.67-2.29,6.67-13.89v-38.93Z"/>
  <path class="cls-1" d="M1533.67,1111.71c-2.51-6.12-4.15-8.42-8.85-8.96l-1.98-.22c-.76-.65-.65-2.19,.22-2.73,3.17,.22,6.67,.33,11.37,.33s8.64-.11,13.23-.33c.77,.44,.98,2.07,.22,2.73l-1.64,.22c-4.16,.54-5.03,1.21-5.14,2.08,.22,1.09,2.08,7,5.47,15.32,5.03,12.68,10.06,25.26,15.52,37.73,3.39-7.22,7.98-18.48,10.49-24.28,3.18-7.44,8.32-19.79,10.18-24.49,.88-2.3,.98-3.5,.98-4.27s-1.08-1.64-4.92-2.08l-1.96-.22c-.77-.65-.55-2.29,.22-2.73,3.06,.22,7.21,.33,11.36,.33,3.62,0,7.01-.11,10.62-.33,.77,.44,.77,2.18,.22,2.73l-3.28,.22c-2.63,.22-4.26,1.53-5.69,3.82-3.06,5.14-7.32,14-12.24,25.16l-5.91,13.46c-4.37,10.05-9.52,22.75-11.38,28.54-.33,.22-.76,.33-1.2,.33-.54,0-1.09-.1-1.64-.33-1.21-4.59-3.17-9.95-5.03-14.54l-19.25-47.47Z"/>
  <path class="cls-1" d="M1616.1,1116.52c0-11.37-.22-13.01-6.66-13.78l-1.76-.22c-.65-.43-.43-2.4,.22-2.73,4.7,.22,8.42,.33,12.9,.33h20.57c7,0,13.46,0,14.77-.33,.65,1.85,1.31,9.73,1.75,14.54-.44,.66-2.19,.88-2.73,.22-1.64-5.14-2.63-8.97-8.32-10.39-2.29-.55-5.79-.66-10.61-.66h-7.87c-3.29,0-3.29,.22-3.29,4.37v21.87c0,3.07,.33,3.07,3.62,3.07h6.33c4.61,0,8-.22,9.31-.66,1.31-.44,2.08-1.09,2.63-3.83l.87-4.48c.55-.66,2.41-.66,2.84,.1,0,2.63-.43,6.9-.43,11.05s.43,8.09,.43,10.5c-.43,.77-2.29,.77-2.84,.1l-.98-4.26c-.43-1.97-1.21-3.61-3.39-4.16-1.53-.44-4.15-.54-8.43-.54h-6.33c-3.29,0-3.62,.1-3.62,2.95v15.42c0,5.79,.33,9.51,2.08,11.37,1.31,1.31,3.6,2.51,13.22,2.51,8.42,0,11.6-.44,14-1.64,1.98-1.09,4.92-4.92,7.77-10.62,.77-.54,2.31-.22,2.74,.77-.77,3.83-3.5,12.25-4.92,15.2-9.84-.22-19.58-.33-29.31-.33h-9.85c-4.7,0-8.42,.11-14.87,.33-.66-.33-.87-2.08-.22-2.73l3.61-.34c6.22-.54,6.78-2.19,6.78-13.66v-39.38Z"/>
  <path class="cls-1" d="M479.51,1235.45c0-11.37-.22-13.01-6.67-13.77l-1.75-.23c-.66-.43-.44-2.4,.22-2.72,4.7,.21,8.42,.32,12.9,.32h20.57c7,0,13.45,0,14.77-.32,.65,1.85,1.3,9.72,1.74,14.53-.44,.66-2.18,.88-2.73,.22-1.64-5.14-2.63-8.97-8.32-10.39-2.29-.55-5.79-.65-10.6-.65h-7.87c-3.29,0-3.29,.22-3.29,4.38v21.86c0,3.07,.34,3.07,3.61,3.07h6.34c4.59,0,7.99-.22,9.3-.65,1.31-.44,2.08-1.09,2.63-3.83l.87-4.48c.55-.66,2.41-.66,2.84,.1,0,2.63-.43,6.9-.43,11.05s.43,8.09,.43,10.5c-.43,.77-2.29,.77-2.84,.1l-.99-4.26c-.43-1.97-1.2-3.61-3.38-4.16-1.53-.44-4.16-.54-8.43-.54h-6.34c-3.28,0-3.61,.1-3.61,2.95v15.42c0,5.79,.34,9.51,2.08,11.37,1.31,1.31,3.61,2.51,13.23,2.51,8.42,0,11.59-.44,14-1.64,1.97-1.09,4.92-4.92,7.77-10.62,.77-.54,2.29-.22,2.73,.77-.77,3.83-3.5,12.25-4.92,15.2-9.85-.22-19.58-.33-29.32-.33h-9.85c-4.7,0-8.42,.11-14.87,.33-.65-.33-.87-2.07-.22-2.73l3.62-.34c6.23-.54,6.78-2.18,6.78-13.66v-39.38Z"/>
  <path class="cls-1" d="M607.67,1272.64c0,3.29,0,16.3,.33,19.15-.22,.65-.87,1.2-2.08,1.2-1.31-1.86-4.49-5.68-14-16.51l-25.37-28.88c-2.95-3.38-10.39-12.35-12.69-14.76h-.21c-.44,1.31-.55,3.82-.55,7.1v23.85c0,5.14,.1,19.35,1.96,22.63,.65,1.21,2.84,1.87,5.58,2.08l3.38,.34c.66,.87,.55,2.19-.22,2.72-4.92-.21-8.75-.32-12.79-.32-4.59,0-7.55,.11-11.37,.32-.77-.53-.87-2.07-.22-2.72l2.95-.34c2.51-.33,4.27-.99,4.82-2.19,1.52-3.94,1.42-17.28,1.42-22.52v-31.61c0-3.07-.1-5.35-2.41-7.87-1.53-1.53-4.15-2.3-6.78-2.63l-1.86-.22c-.65-.66-.65-2.29,.22-2.73,4.59,.33,10.39,.33,12.36,.33,1.74,0,3.6-.11,5.02-.33,2.19,5.58,15.09,20.01,18.71,24.06l10.61,11.92c7.55,8.42,12.9,14.55,18.04,19.79h.21c.44-.54,.44-2.29,.44-4.59v-23.41c0-5.14-.1-19.35-2.18-22.63-.66-.98-2.41-1.64-6.78-2.19l-1.86-.22c-.77-.66-.66-2.4,.22-2.73,5.02,.22,8.74,.33,12.9,.33,4.71,0,7.55-.11,11.27-.33,.88,.54,.88,2.07,.22,2.73l-1.54,.22c-3.5,.54-5.69,1.42-6.12,2.29-1.86,3.94-1.64,17.5-1.64,22.53v26.14Z"/>
  <path class="cls-1" d="M692.38,1280.07c0,4.37,.66,7,2.63,7.77,.33,.33,.33,.99-.1,1.32-1.31,0-3.29,.43-5.36,.98-5.8,1.53-13.68,2.84-19.58,2.84-13.01,0-24.94-3.61-33.36-12.14-6.56-6.56-10.06-15.2-10.06-24.82s3.06-18.71,9.84-25.92c7.33-7.65,18.16-12.79,34.67-12.79,6.23,0,12.03,1.2,13.9,1.64,2.07,.44,5.46,1.21,6.78,.99,0,3.61,.65,9.29,1.64,15.86-.32,.87-2.3,.98-2.95,.33-3.06-11.81-11.27-15.53-22.42-15.53-21.22,0-30.52,15.09-30.52,31.49,0,21,10.84,37.51,32.82,37.51,6.78,0,10.83-1.42,12.03-3.28,.55-.77,1.09-2.73,1.09-6.23v-4.37c0-9.19-.33-9.84-7.11-10.61l-4.81-.55c-.88-.43-.77-2.4,0-2.73,3.16,.22,9.19,.33,15.64,.33,4.27,0,7.98-.11,11.6-.33,.77,.45,.87,2.07,.1,2.73l-1.74,.22c-4.59,.54-4.71,3.61-4.71,9.19v6.12Z"/>
  <path class="cls-1" d="M722.64,1235.67c0-11.6-.22-13.46-6.67-14l-2.73-.22c-.66-.43-.44-2.4,.22-2.73,5.47,.22,9.19,.33,13.78,.33s8.09-.11,13.56-.33c.66,.33,.88,2.3,.22,2.73l-2.73,.22c-6.45,.54-6.67,2.4-6.67,14v38.93c0,11.6,.22,13.13,6.67,13.89l2.73,.34c.66,.43,.44,2.4-.22,2.73-5.47-.22-9.19-.33-13.56-.33-4.59,0-8.31,.1-13.78,.33-.66-.33-.87-2.07-.22-2.73l2.73-.34c6.45-.76,6.67-2.29,6.67-13.89v-38.93Z"/>
  <path class="cls-1" d="M823.89,1272.64c0,3.29,0,16.3,.33,19.15-.22,.65-.87,1.2-2.08,1.2-1.31-1.86-4.49-5.68-14-16.51l-25.37-28.88c-2.95-3.38-10.38-12.35-12.69-14.76h-.21c-.44,1.31-.55,3.82-.55,7.1v23.85c0,5.14,.1,19.35,1.97,22.63,.65,1.21,2.84,1.87,5.58,2.08l3.38,.34c.66,.87,.55,2.19-.22,2.72-4.92-.21-8.74-.32-12.79-.32-4.59,0-7.55,.11-11.37,.32-.77-.53-.87-2.07-.22-2.72l2.96-.34c2.51-.33,4.27-.99,4.81-2.19,1.52-3.94,1.42-17.28,1.42-22.52v-31.61c0-3.07-.1-5.35-2.41-7.87-1.53-1.53-4.15-2.3-6.78-2.63l-1.86-.22c-.65-.66-.65-2.29,.22-2.73,4.6,.33,10.39,.33,12.36,.33,1.74,0,3.6-.11,5.02-.33,2.19,5.58,15.09,20.01,18.71,24.06l10.61,11.92c7.55,8.42,12.9,14.55,18.05,19.79h.21c.44-.54,.44-2.29,.44-4.59v-23.41c0-5.14-.11-19.35-2.19-22.63-.66-.98-2.41-1.64-6.78-2.19l-1.86-.22c-.77-.66-.66-2.4,.22-2.73,5.02,.22,8.74,.33,12.9,.33,4.71,0,7.55-.11,11.27-.33,.88,.54,.88,2.07,.22,2.73l-1.54,.22c-3.5,.54-5.69,1.42-6.12,2.29-1.86,3.94-1.64,17.5-1.64,22.53v26.14Z"/>
  <path class="cls-1" d="M856.12,1235.45c0-11.37-.22-13.01-6.67-13.77l-1.75-.23c-.66-.43-.44-2.4,.22-2.72,4.7,.21,8.42,.32,12.9,.32h20.57c7,0,13.45,0,14.77-.32,.65,1.85,1.3,9.72,1.75,14.53-.44,.66-2.19,.88-2.73,.22-1.64-5.14-2.63-8.97-8.32-10.39-2.29-.55-5.79-.65-10.6-.65h-7.88c-3.28,0-3.28,.22-3.28,4.38v21.86c0,3.07,.34,3.07,3.61,3.07h6.34c4.59,0,7.98-.22,9.3-.65,1.31-.44,2.08-1.09,2.63-3.83l.87-4.48c.55-.66,2.41-.66,2.84,.1,0,2.63-.43,6.9-.43,11.05s.43,8.09,.43,10.5c-.43,.77-2.29,.77-2.84,.1l-.99-4.26c-.43-1.97-1.2-3.61-3.38-4.16-1.53-.44-4.16-.54-8.43-.54h-6.34c-3.28,0-3.61,.1-3.61,2.95v15.42c0,5.79,.34,9.51,2.08,11.37,1.31,1.31,3.61,2.51,13.23,2.51,8.42,0,11.59-.44,14-1.64,1.97-1.09,4.92-4.92,7.77-10.62,.77-.54,2.29-.22,2.73,.77-.77,3.83-3.5,12.25-4.92,15.2-9.85-.22-19.58-.33-29.32-.33h-9.85c-4.7,0-8.42,.11-14.87,.33-.65-.33-.87-2.07-.22-2.73l3.62-.34c6.23-.54,6.78-2.18,6.78-13.66v-39.38Z"/>
  <path class="cls-1" d="M925.43,1235.45c0-11.37-.22-13.01-6.67-13.77l-1.75-.23c-.66-.43-.44-2.4,.22-2.72,4.7,.21,8.42,.32,12.9,.32h20.57c7,0,13.45,0,14.77-.32,.65,1.85,1.3,9.72,1.74,14.53-.44,.66-2.18,.88-2.73,.22-1.64-5.14-2.63-8.97-8.32-10.39-2.29-.55-5.79-.65-10.6-.65h-7.87c-3.29,0-3.29,.22-3.29,4.38v21.86c0,3.07,.34,3.07,3.61,3.07h6.34c4.59,0,7.99-.22,9.3-.65,1.31-.44,2.08-1.09,2.63-3.83l.87-4.48c.55-.66,2.41-.66,2.84,.1,0,2.63-.43,6.9-.43,11.05s.43,8.09,.43,10.5c-.43,.77-2.29,.77-2.84,.1l-.99-4.26c-.43-1.97-1.2-3.61-3.38-4.16-1.53-.44-4.16-.54-8.43-.54h-6.34c-3.28,0-3.61,.1-3.61,2.95v15.42c0,5.79,.34,9.51,2.08,11.37,1.31,1.31,3.61,2.51,13.23,2.51,8.42,0,11.59-.44,14-1.64,1.97-1.09,4.92-4.92,7.77-10.62,.77-.54,2.29-.22,2.73,.77-.77,3.83-3.5,12.25-4.92,15.2-9.85-.22-19.58-.33-29.32-.33h-9.85c-4.7,0-8.42,.11-14.87,.33-.65-.33-.87-2.07-.22-2.73l3.62-.34c6.23-.54,6.78-2.18,6.78-13.66v-39.38Z"/>
  <path class="cls-1" d="M994.74,1235.56c0-10.39-.33-12.25-4.81-12.79l-3.5-.44c-.77-.54-.77-2.3,.12-2.74,6.12-.53,13.66-.87,24.38-.87,6.78,0,13.23,.54,18.27,3.28,5.24,2.73,9.07,7.65,9.07,15.31,0,10.4-8.2,16.08-13.67,18.27-.54,.65,0,1.75,.55,2.63,8.75,14.1,14.54,22.86,21.98,29.09,1.86,1.64,4.59,2.84,7.54,3.06,.55,.22,.65,1.09,.11,1.53-.98,.33-2.74,.55-4.81,.55-9.3,0-14.87-2.74-22.63-13.78-2.85-4.05-7.33-11.59-10.72-16.51-1.65-2.4-3.39-3.5-7.77-3.5-4.92,0-5.14,.11-5.14,2.41v13.78c0,11.48,.22,12.79,6.57,13.66l2.3,.34c.65,.54,.44,2.4-.22,2.73-4.92-.22-8.64-.33-13.01-.33-4.6,0-8.54,.11-13.68,.33-.65-.33-.87-1.96-.22-2.73l2.74-.34c6.34-.76,6.56-2.19,6.56-13.66v-39.27Zm8.96,15.64c0,1.96,0,3.17,.34,3.61,.33,.33,1.97,.54,7.55,.54,3.93,0,8.09-.43,11.26-2.84,2.95-2.3,5.47-6.12,5.47-13.56,0-8.64-5.35-16.84-17.49-16.84-6.78,0-7.12,.43-7.12,3.49v25.6Z"/>
  <path class="cls-1" d="M1070.72,1235.67c0-11.6-.22-13.46-6.68-14l-2.73-.22c-.65-.43-.44-2.4,.22-2.73,5.47,.22,9.2,.33,13.78,.33s8.09-.11,13.56-.33c.66,.33,.88,2.3,.22,2.73l-2.74,.22c-6.46,.54-6.67,2.4-6.67,14v38.93c0,11.6,.22,13.13,6.67,13.89l2.74,.34c.65,.43,.44,2.4-.22,2.73-5.47-.22-9.19-.33-13.56-.33-4.59,0-8.32,.1-13.78,.33-.65-.33-.87-2.07-.22-2.73l2.73-.34c6.46-.76,6.68-2.29,6.68-13.89v-38.93Z"/>
  <path class="cls-1" d="M1174.16,1272.64c0,3.29,0,16.3,.33,19.15-.22,.65-.87,1.2-2.08,1.2-1.31-1.86-4.49-5.68-14-16.51l-25.37-28.88c-2.95-3.38-10.38-12.35-12.68-14.76h-.22c-.44,1.31-.55,3.82-.55,7.1v23.85c0,5.14,.11,19.35,1.97,22.63,.65,1.21,2.84,1.87,5.58,2.08l3.38,.34c.66,.87,.55,2.19-.22,2.72-4.92-.21-8.75-.32-12.79-.32-4.6,0-7.55,.11-11.37,.32-.77-.53-.88-2.07-.22-2.72l2.95-.34c2.51-.33,4.27-.99,4.81-2.19,1.53-3.94,1.42-17.28,1.42-22.52v-31.61c0-3.07-.1-5.35-2.4-7.87-1.53-1.53-4.16-2.3-6.78-2.63l-1.86-.22c-.65-.66-.65-2.29,.22-2.73,4.59,.33,10.38,.33,12.35,.33,1.75,0,3.61-.11,5.03-.33,2.19,5.58,15.09,20.01,18.71,24.06l10.61,11.92c7.54,8.42,12.9,14.55,18.05,19.79h.22c.44-.54,.44-2.29,.44-4.59v-23.41c0-5.14-.1-19.35-2.19-22.63-.66-.98-2.41-1.64-6.78-2.19l-1.86-.22c-.77-.66-.65-2.4,.22-2.73,5.03,.22,8.75,.33,12.9,.33,4.71,0,7.55-.11,11.27-.33,.88,.54,.88,2.07,.22,2.73l-1.53,.22c-3.5,.54-5.68,1.42-6.12,2.29-1.86,3.94-1.64,17.5-1.64,22.53v26.14Z"/>
  <path class="cls-1" d="M1258.88,1280.07c0,4.37,.66,7,2.63,7.77,.33,.33,.33,.99-.1,1.32-1.32,0-3.29,.43-5.36,.98-5.79,1.53-13.67,2.84-19.58,2.84-13.01,0-24.94-3.61-33.36-12.14-6.56-6.56-10.06-15.2-10.06-24.82s3.06-18.71,9.84-25.92c7.33-7.65,18.16-12.79,34.67-12.79,6.23,0,12.04,1.2,13.9,1.64,2.07,.44,5.47,1.21,6.78,.99,0,3.61,.66,9.29,1.65,15.86-.33,.87-2.31,.98-2.95,.33-3.07-11.81-11.27-15.53-22.42-15.53-21.22,0-30.52,15.09-30.52,31.49,0,21,10.83,37.51,32.81,37.51,6.78,0,10.82-1.42,12.04-3.28,.54-.77,1.09-2.73,1.09-6.23v-4.37c0-9.19-.33-9.84-7.11-10.61l-4.81-.55c-.88-.43-.77-2.4,0-2.73,3.17,.22,9.19,.33,15.64,.33,4.26,0,7.97-.11,11.59-.33,.77,.45,.88,2.07,.11,2.73l-1.75,.22c-4.6,.54-4.71,3.61-4.71,9.19v6.12Z"/>
  <path class="cls-1" d="M1346,1225.94c0,2.41-1.86,4.37-4.16,4.37-1.97,0-2.63-1.31-3.06-3.28-.32-1.42-1.75-3.17-3.93-3.17s-4.48,.98-7.11,3.5c-4.48,4.27-5.46,10.28-5.46,13.9,0,2.19,.21,3.82,.65,4.7,1.41-1.42,4.8-3.83,8.96-3.83,7.22,0,9.51,5.13,9.51,9.08,0,5.79-4.59,9.07-9.51,9.07-5.47,0-9.29-3.5-10.93-7.22-1.53,2.19-2.85,5.68-2.85,11.15,0,9.52,7.34,21.66,25.05,21.66,6.66,0,12.79-2.2,17.17-5.58,5.14-3.94,10.18-11.81,10.18-20.23,0-7-1.76-10.72-2.41-11.48-.66-.88-2.84-1.53-7.22-1.53s-8.09,2.4-8.09,7.44c0,2.08,1.41,3.05,2.19,3.05s1.21-.42,1.75-1.41c.65-.98,1.31-2.08,2.95-2.08,1.96,0,3.39,1.53,3.39,3.49,0,2.96-2.97,4.49-5.91,4.49-4.92,0-7.87-3.93-7.87-7.87,0-2.3,.77-4.92,2.85-7.22,3.06-3.61,8.75-4.49,11.8-4.49,2.2,0,4.38,.11,8.97,.11,5.24,0,16.3-.11,16.3-11.59,0-6.57-5.69-8.86-8.42-8.86-1.64,0-2.19,1.52-2.19,1.96,0,.55,.22,.99,1.08,1.64,.88,.66,2.3,1.64,2.3,3.61,0,3.28-2.4,4.6-4.7,4.6-3.06,0-5.36-2.52-5.36-5.69,0-4.05,3.07-8.75,9.52-8.75,6.01,0,11.81,5.35,11.81,13.78,0,4.92-1.76,7.99-4.49,10.62-5.24,4.92-14.53,4.48-15.85,4.48-1.21,0-1.43,.44-.99,1.86,.33,.99,2.96,6.34,2.96,12.8,0,14.54-12.8,29.75-32.16,29.75-22.86,0-29.42-15.86-29.42-26.58,0-6.23,2.29-12.35,6.12-16.95-.54-1.75-.99-4.05-.99-7.44,0-5.58,1.98-11.49,5.48-15.75,3.72-4.6,9.19-6.89,13.35-6.89,5.57,0,8.75,3.28,8.75,6.78m-22.09,22.97c1.09,3.82,3.93,7,8.32,7,2.84,0,5.24-1.75,5.24-4.7,0-2.74-1.97-5.8-6.12-5.8s-6.9,2.74-7.44,3.5"/>
  <path class="cls-1" d="M1453.77,1292.98c-9.18,0-14.98-2.84-17.06-4.05-1.32-2.4-2.74-10.17-2.95-15.31,.55-.77,2.19-.99,2.62-.33,1.65,5.58,6.13,16.29,18.82,16.29,9.18,0,13.67-6.01,13.67-12.58,0-4.8-.99-10.17-8.97-15.31l-10.39-6.78c-5.47-3.62-11.81-9.85-11.81-18.81,0-10.39,8.09-18.81,22.31-18.81,3.39,0,7.34,.65,10.18,1.42,1.42,.44,2.95,.65,3.82,.65,.99,2.63,1.97,8.75,1.97,13.35-.44,.65-2.18,.98-2.73,.33-1.43-5.25-4.37-12.36-14.88-12.36s-13.02,7.11-13.02,12.15c0,6.33,5.25,10.93,9.3,13.45l8.75,5.47c6.89,4.27,13.67,10.61,13.67,21,0,12.04-9.07,20.23-23.3,20.23"/>
  <path class="cls-1" d="M1506.79,1226.59c7.99-6.23,18.17-9.29,29.53-9.29,5.91,0,14.22,1.2,19.36,2.63,1.32,.33,2.07,.54,3.06,.43,.11,2.52,.65,9.41,1.53,16.08-.54,.77-2.19,.87-2.94,.22-1.64-7.44-6.57-15.97-22.43-15.97-16.73,0-30.95,10.62-30.95,33.25s14.55,35.66,32.48,35.66c14.11,0,20.34-9.19,22.86-15.64,.77-.55,2.42-.33,2.84,.44-.76,5.68-3.61,12.91-5.25,14.98-1.31,.22-2.62,.65-3.82,1.09-2.41,.88-10.28,2.51-17.28,2.51-9.84,0-19.25-1.96-27.23-7.33-8.75-6.02-15.52-15.97-15.52-30.07,0-12.14,5.46-22.53,13.77-28.99"/>
  <path class="cls-1" d="M1583.75,1235.67c0-11.6-.22-13.46-6.67-14l-2.74-.22c-.65-.43-.43-2.4,.22-2.73,5.47,.22,9.19,.33,13.78,.33s8.08-.11,13.56-.33c.66,.33,.88,2.3,.22,2.73l-2.73,.22c-6.46,.54-6.68,2.4-6.68,14v38.93c0,11.6,.22,13.13,6.68,13.89l2.73,.34c.66,.43,.44,2.4-.22,2.73-5.48-.22-9.19-.33-13.56-.33-4.6,0-8.32,.1-13.78,.33-.65-.33-.88-2.07-.22-2.73l2.74-.34c6.46-.76,6.67-2.29,6.67-13.89v-38.93Z"/>
  <path class="cls-1" d="M1626.17,1235.45c0-11.37-.22-13.01-6.67-13.77l-1.75-.23c-.65-.43-.44-2.4,.22-2.72,4.7,.21,8.42,.32,12.9,.32h20.56c7.01,0,13.46,0,14.77-.32,.65,1.85,1.31,9.72,1.74,14.53-.43,.66-2.19,.88-2.73,.22-1.64-5.14-2.63-8.97-8.31-10.39-2.3-.55-5.8-.65-10.61-.65h-7.89c-3.27,0-3.27,.22-3.27,4.38v21.86c0,3.07,.33,3.07,3.61,3.07h6.35c4.59,0,7.98-.22,9.3-.65,1.31-.44,2.08-1.09,2.62-3.83l.88-4.48c.55-.66,2.41-.66,2.84,.1,0,2.63-.43,6.9-.43,11.05s.43,8.09,.43,10.5c-.43,.77-2.29,.77-2.84,.1l-.98-4.26c-.43-1.97-1.21-3.61-3.39-4.16-1.53-.44-4.16-.54-8.42-.54h-6.35c-3.28,0-3.61,.1-3.61,2.95v15.42c0,5.79,.33,9.51,2.07,11.37,1.32,1.31,3.61,2.51,13.23,2.51,8.42,0,11.59-.44,14-1.64,1.96-1.09,4.92-4.92,7.77-10.62,.77-.54,2.3-.22,2.74,.77-.77,3.83-3.5,12.25-4.92,15.2-9.85-.22-19.58-.33-29.31-.33h-9.85c-4.7,0-8.42,.11-14.88,.33-.65-.33-.87-2.07-.22-2.73l3.61-.34c6.24-.54,6.78-2.18,6.78-13.66v-39.38Z"/>
  <path class="cls-1" d="M1754.32,1272.64c0,3.29,0,16.3,.33,19.15-.22,.65-.88,1.2-2.07,1.2-1.32-1.86-4.49-5.68-14-16.51l-25.38-28.88c-2.94-3.38-10.38-12.35-12.69-14.76h-.21c-.45,1.31-.55,3.82-.55,7.1v23.85c0,5.14,.1,19.35,1.96,22.63,.66,1.21,2.84,1.87,5.58,2.08l3.39,.34c.65,.87,.55,2.19-.22,2.72-4.92-.21-8.76-.32-12.8-.32-4.59,0-7.54,.11-11.36,.32-.77-.53-.88-2.07-.22-2.72l2.95-.34c2.51-.33,4.26-.99,4.81-2.19,1.52-3.94,1.42-17.28,1.42-22.52v-31.61c0-3.07-.11-5.35-2.4-7.87-1.54-1.53-4.16-2.3-6.78-2.63l-1.86-.22c-.65-.66-.65-2.29,.22-2.73,4.59,.33,10.38,.33,12.35,.33,1.75,0,3.61-.11,5.04-.33,2.19,5.58,15.08,20.01,18.7,24.06l10.61,11.92c7.54,8.42,12.9,14.55,18.05,19.79h.22c.44-.54,.44-2.29,.44-4.59v-23.41c0-5.14-.11-19.35-2.19-22.63-.65-.98-2.41-1.64-6.78-2.19l-1.86-.22c-.76-.66-.66-2.4,.22-2.73,5.03,.22,8.75,.33,12.9,.33,4.71,0,7.55-.11,11.27-.33,.88,.54,.88,2.07,.22,2.73l-1.53,.22c-3.5,.54-5.68,1.42-6.11,2.29-1.86,3.94-1.64,17.5-1.64,22.53v26.14Z"/>
  <path class="cls-1" d="M1786.76,1226.59c7.98-6.23,18.16-9.29,29.53-9.29,5.91,0,14.21,1.2,19.36,2.63,1.31,.33,2.07,.54,3.06,.43,.11,2.52,.65,9.41,1.53,16.08-.54,.77-2.19,.87-2.95,.22-1.64-7.44-6.56-15.97-22.43-15.97-16.73,0-30.95,10.62-30.95,33.25s14.55,35.66,32.49,35.66c14.1,0,20.34-9.19,22.85-15.64,.77-.55,2.41-.33,2.85,.44-.77,5.68-3.61,12.91-5.25,14.98-1.32,.22-2.63,.65-3.83,1.09-2.4,.88-10.28,2.51-17.27,2.51-9.85,0-19.26-1.96-27.24-7.33-8.75-6.02-15.53-15.97-15.53-30.07,0-12.14,5.48-22.53,13.78-28.99"/>
  <path class="cls-1" d="M1863.72,1235.45c0-11.37-.22-13.01-6.67-13.77l-1.75-.23c-.65-.43-.44-2.4,.22-2.72,4.7,.21,8.42,.32,12.9,.32h20.56c7.01,0,13.46,0,14.77-.32,.65,1.85,1.31,9.72,1.74,14.53-.43,.66-2.19,.88-2.73,.22-1.64-5.14-2.63-8.97-8.31-10.39-2.3-.55-5.8-.65-10.61-.65h-7.89c-3.27,0-3.27,.22-3.27,4.38v21.86c0,3.07,.33,3.07,3.61,3.07h6.34c4.59,0,7.98-.22,9.3-.65,1.31-.44,2.07-1.09,2.62-3.83l.88-4.48c.55-.66,2.41-.66,2.84,.1,0,2.63-.43,6.9-.43,11.05s.43,8.09,.43,10.5c-.43,.77-2.29,.77-2.84,.1l-.98-4.26c-.44-1.97-1.21-3.61-3.39-4.16-1.53-.44-4.16-.54-8.42-.54h-6.34c-3.28,0-3.61,.1-3.61,2.95v15.42c0,5.79,.33,9.51,2.07,11.37,1.32,1.31,3.61,2.51,13.23,2.51,8.42,0,11.59-.44,14-1.64,1.96-1.09,4.92-4.92,7.77-10.62,.77-.54,2.3-.22,2.74,.77-.77,3.83-3.5,12.25-4.92,15.2-9.85-.22-19.58-.33-29.31-.33h-9.85c-4.7,0-8.42,.11-14.88,.33-.65-.33-.87-2.07-.22-2.73l3.61-.34c6.23-.54,6.78-2.18,6.78-13.66v-39.38Z"/>
</svg>