<?xml version="1.0" encoding="UTF-8"?>
<svg id="Layer_1" data-name="Layer 1" xmlns="http://www.w3.org/2000/svg" viewBox="0 0 2000 2000">
  <defs>
    <style>
      .cls-1 {
        fill: #002d72;
      }
    </style>
  </defs>
  <g>
    <path class="cls-1" d="M141.67,924.95c0,44.3-11.47,82.19-34.35,113.68-22.92,31.47-50.29,47.21-82.11,47.21v-280.97c0-44.3,11.45-82.19,34.36-113.68,22.89-31.47,50.26-47.21,82.11-47.21v280.97h-.01Z"/>
    <path class="cls-1" d="M693.71,934.27c0,41.97-14.76,77.73-44.26,107.26-29.51,29.54-65.22,44.3-107.15,44.3h-180.52c-41.93,0-77.65-14.75-107.14-44.3-29.53-29.53-44.26-65.29-44.26-107.26v-138.73c0-41.97,14.74-77.7,44.26-107.26,29.5-29.53,65.22-44.3,107.14-44.3h195.67c0,32.21-15.55,59.3-46.59,81.26-31.06,21.99-69.11,33.76-114.14,35.32h-34.94c-23.29,.78-34.94,12.44-34.94,34.98v138.73c0,23.32,11.65,34.98,34.94,34.98h180.52c23.29,0,34.94-11.66,34.94-34.98v-292.62c0-44.3,11.35-82.19,34.1-113.68,22.75-31.47,50.19-47.21,82.36-47.21v453.52h.01Z"/>
    <path class="cls-1" d="M878.89,924.95c0,44.3-11.46,82.19-34.35,113.68-22.92,31.47-50.29,47.21-82.11,47.21v-280.97c0-44.3,11.45-82.19,34.36-113.68,22.89-31.47,50.26-47.21,82.11-47.21v280.97h-.01Z"/>
    <path class="cls-1" d="M1430.95,1085.83h-331.93c-41.93,0-77.65-14.75-107.14-44.3-29.51-29.53-44.26-65.29-44.26-107.26v-138.73c0-41.97,14.74-77.7,44.26-107.26,29.5-29.53,65.22-44.3,107.14-44.3h180.52c41.93,0,77.63,14.77,107.15,44.3,29.5,29.56,44.26,65.29,44.26,107.26v1.17c0,41.97-14.76,77.73-44.26,107.26-29.53,29.56-65.22,44.3-107.15,44.3h-167.7c0-32.18,15.71-59.65,47.17-82.43,31.44-22.77,69.3-34.16,113.56-34.16l6.99-1.15c23.29-3.82,34.94-15.28,34.94-34.42v-1.15c0-22.94-11.65-34.41-34.94-34.41h-180.52c-23.29,0-34.94,11.66-34.94,34.98v138.73c0,23.32,11.65,34.98,34.94,34.98h171.2c44.26,0,82.11,11.39,113.56,34.16,31.44,22.77,47.17,50.24,47.17,82.43h-.01Z"/>
    <path class="cls-1" d="M1982.99,643.98c0,32.21-15.66,59.68-46.95,82.45-31.3,22.77-68.97,34.14-113,34.14h-323.37c0-32.19,15.63-59.65,46.93-82.43,31.3-22.77,68.97-34.16,113.03-34.16h323.37Zm0,290.3c0,41.97-14.76,77.73-44.26,107.26-29.53,29.54-65.22,44.3-107.15,44.3h-331.93c0-32.18,15.73-59.65,47.17-82.43,31.44-22.77,69.29-34.16,113.56-34.16h171.2c23.29,0,34.94-11.66,34.94-34.98v-1.17c0-23.32-11.65-34.98-34.94-34.98h-170.04c-44.26,0-82.1-11.36-113.55-34.14-31.44-22.77-47.17-50.24-47.17-82.44h330.77c41.93,0,77.63,14.77,107.15,44.3,29.5,29.54,44.26,65.29,44.26,107.25v1.17h-.01Z"/>
    <path class="cls-1" d="M820.42,593.5c-36.2,0-65.64-29.48-65.64-65.71s29.45-65.71,65.64-65.71,65.64,29.48,65.64,65.71-29.45,65.71-65.64,65.71Zm0-118.58c-29.12,0-52.81,23.71-52.81,52.86s23.69,52.86,52.81,52.86,52.81-23.71,52.81-52.86-23.69-52.86-52.81-52.86Z"/>
    <path class="cls-1" d="M82.64,593.5c-36.2,0-65.64-29.48-65.64-65.71s29.45-65.71,65.64-65.71,65.64,29.48,65.64,65.71-29.45,65.71-65.64,65.71Zm0-118.58c-29.12,0-52.81,23.71-52.81,52.86s23.69,52.86,52.81,52.86,52.81-23.71,52.81-52.86-23.69-52.86-52.81-52.86Z"/>
  </g>
  <g>
    <path class="cls-1" d="M90.48,1187.75h-26.24v126.11h-20.99v-126.11H17v-18.38H90.48v18.38Z"/>
    <path class="cls-1" d="M145.1,1209.2c9.27,0,15.09,7.66,15.09,16.69v87.97h-20.99v-77.41c0-6.21-.74-10.32-7.22-10.32-5.9,0-10.33,3.23-13.78,6.05v81.68h-20.99v-144.5h20.99v52.41c7.38-6.61,14.35-12.58,26.9-12.58Z"/>
    <path class="cls-1" d="M208.09,1298.38c10.58,0,10.58-10.24,10.58-20.64h20.91c0,23.79-8.69,37.58-31.57,37.58-28.62,0-31.41-26.21-31.41-55.48s4.1-50.64,31.49-50.64,31.49,22.66,31.49,50.64v2.42h-41.99v5.16c0,11.93-1.31,30.96,10.5,30.96Zm0-72.25c-10.83,0-10.5,15.16-10.5,25.8h20.99c0-10.72,.25-25.8-10.5-25.8Z"/>
    <path class="cls-1" d="M304.78,1169.36v144.5h-20.99v-144.5h20.99Z"/>
    <path class="cls-1" d="M374.24,1209.2c9.27,0,15.09,7.66,15.09,16.69v87.97h-20.99v-77.41c0-6.53-1.07-10.32-7.87-10.32-5.9,0-9.68,3.23-13.12,6.05v81.68h-20.99v-103.21h20.99v11.13c7.38-6.61,14.35-12.58,26.9-12.58Z"/>
    <path class="cls-1" d="M434.2,1226.13c-6.64,0-10.5,3.71-10.5,10.32,0,4.03,2.95,7.02,5.25,8.71l20.99,15.48c8.28,6.53,15.75,14.35,15.75,27.42,0,18.06-12.88,27.25-31.49,27.25s-27.96-12.58-31.49-27.25l15.75-5.16c2.38,6.53,6.89,15.48,15.75,15.48,6.64,0,10.5-3.71,10.5-10.32,0-5.64-2.3-9.27-5.25-11.93l-20.99-15.48c-7.95-5.4-15.75-11.93-15.75-24.19,0-18.06,12.88-27.25,31.49-27.25s27.96,12.58,31.49,27.25l-15.75,5.16c-2.54-6.53-6.72-15.48-15.75-15.48Z"/>
    <path class="cls-1" d="M507.27,1315.31c-16.89,0-23.62-8.71-23.78-25v-64.18h-10.5v-15.48h10.5v-36.12h20.99v36.12h15.75v15.48h-15.75v60.23c0,7.34,1.15,12.01,8.69,12.01,1.97,0,5.17-.48,7.05-.81v16.77c-5.25,.64-7.87,.97-12.96,.97Z"/>
    <path class="cls-1" d="M555.08,1174.52v20.64h-20.99v-20.64h20.99Zm0,36.12v103.21h-20.99v-103.21h20.99Z"/>
    <path class="cls-1" d="M603.22,1315.31c-16.89,0-23.62-8.71-23.78-25v-64.18h-10.5v-15.48h10.5v-36.12h20.99v36.12h15.75v15.48h-15.75v60.23c0,7.34,1.15,12.01,8.69,12.01,1.97,0,5.17-.48,7.05-.81v16.77c-5.25,.64-7.87,.97-12.96,.97Z"/>
    <path class="cls-1" d="M643.57,1315.31c-9.35,0-15.25-7.5-15.25-16.69v-87.97h20.99v81.68c0,4.27,2.95,7.26,7.22,7.26,6.15,0,10.25-4.43,13.78-7.26v-81.68h20.99v103.21h-20.99v-11.13c-7.46,6.53-14.19,12.58-26.73,12.58Z"/>
    <path class="cls-1" d="M738.54,1315.31c-16.89,0-23.62-8.71-23.78-25v-64.18h-10.5v-15.48h10.5v-36.12h20.99v36.12h15.75v15.48h-15.75v60.23c0,7.34,1.15,12.01,8.69,12.01,1.97,0,5.17-.48,7.05-.81v16.77c-5.25,.64-7.87,.97-12.96,.97Z"/>
    <path class="cls-1" d="M793.98,1298.38c10.58,0,10.58-10.24,10.58-20.64h20.91c0,23.79-8.69,37.58-31.57,37.58-28.62,0-31.41-26.21-31.41-55.48s4.1-50.64,31.49-50.64,31.49,22.66,31.49,50.64v2.42h-41.99v5.16c0,11.93-1.31,30.96,10.5,30.96Zm0-72.25c-10.83,0-10.5,15.16-10.5,25.8h20.99c0-10.72,.25-25.8-10.5-25.8Z"/>
    <path class="cls-1" d="M896.25,1174.52c5.08,0,7.71,.32,12.96,.97v15.32c-2.13-.16-5-.81-7.05-.81-7.55,0-8.69,5.48-8.69,12.9v7.74h15.75v15.48h-15.75v87.73h-20.99v-87.73h-10.5v-15.48h10.5v-3.95c0-20,3.36-32.17,23.78-32.17Z"/>
    <path class="cls-1" d="M915.04,1277.73v-30.96c0-22.9,7.87-37.58,31.49-37.58s31.49,14.68,31.49,37.58v30.96c0,22.9-7.87,37.58-31.49,37.58s-31.49-14.68-31.49-37.58Zm20.99-30.96v30.96c0,10.32,0,20.64,10.5,20.64s10.5-10.32,10.5-20.64v-30.96c0-10.32,0-20.64-10.5-20.64s-10.5,10.32-10.5,20.64Z"/>
    <path class="cls-1" d="M1039.12,1209.2c1.07,0,1.8,.16,3.36,.32v22.82c-3.12-1.21-7.55-2.26-11.64-2.26-8.69,0-14.6,5.56-14.6,14.11v69.67h-20.99v-103.21h20.99v13.79c3.77-7.18,12.05-15.24,22.88-15.24Z"/>
    <path class="cls-1" d="M1113.01,1313.86h-32.39v-144.5h32.56c30.75,0,41.99,10.97,41.99,41.28v56.77c0,30.72-10.83,46.45-42.15,46.45Zm-.25-129.01h-11.15v113.53h11.56c22.22,0,20.99-14.84,20.99-36.12v-46.45c0-19.76-.57-30.96-21.4-30.96Z"/>
    <path class="cls-1" d="M1230.53,1241.61v46.45c0,10.56,.66,18.47,2.71,25.8h-20.91l-2.79-15.48c-4.18,8.14-8.86,16.93-20.99,16.93s-20.99-12.26-20.99-24.27c0-26.85,21.73-34.19,41.99-42.01v-7.42c0-9.11-1.72-16.45-10.5-16.45s-10.5,7.42-10.5,16.45h-20.99c.25-19.51,11.56-32.42,31.49-32.42s31.49,13.22,31.49,32.42Zm-41.99,43.95c0,7.74,2.95,12.82,10.5,12.82,5.08,0,8.28-4.68,10.5-7.58v-28.54c-8.28,5.48-20.99,10.81-20.99,23.3Z"/>
    <path class="cls-1" d="M1270.72,1315.31c-16.89,0-23.62-8.71-23.78-25v-64.18h-10.5v-15.48h10.5v-36.12h20.99v36.12h15.75v15.48h-15.75v60.23c0,7.34,1.15,12.01,8.69,12.01,1.97,0,5.17-.48,7.05-.81v16.77c-5.25,.64-7.87,.97-12.96,.97Z"/>
    <path class="cls-1" d="M1354.54,1241.61v46.45c0,10.56,.66,18.47,2.71,25.8h-20.91l-2.79-15.48c-4.18,8.14-8.86,16.93-20.99,16.93s-20.99-12.26-20.99-24.27c0-26.85,21.73-34.19,41.99-42.01v-7.42c0-9.11-1.72-16.45-10.5-16.45s-10.5,7.42-10.5,16.45h-20.99c.25-19.51,11.56-32.42,31.49-32.42s31.49,13.22,31.49,32.42Zm-41.99,43.95c0,7.74,2.95,12.82,10.5,12.82,5.08,0,8.28-4.68,10.5-7.58v-28.54c-8.28,5.48-20.99,10.81-20.99,23.3Z"/>
    <path class="cls-1" d="M1394.15,1262.25v15.48h-31.49v-15.48h31.49Z"/>
    <path class="cls-1" d="M1426.63,1169.36v144.5h-20.99v-144.5h20.99Z"/>
    <path class="cls-1" d="M1496.09,1209.2c9.27,0,15.09,7.66,15.09,16.69v87.97h-20.99v-77.41c0-6.53-1.07-10.32-7.87-10.32-5.9,0-9.68,3.23-13.12,6.05v81.68h-20.99v-103.21h20.99v11.13c7.38-6.61,14.35-12.58,26.9-12.58Z"/>
    <path class="cls-1" d="M1557.6,1315.31c-16.89,0-23.62-8.71-23.78-25v-64.18h-10.5v-15.48h10.5v-36.12h20.99v36.12h15.75v15.48h-15.75v60.23c0,7.34,1.15,12.01,8.69,12.01,1.97,0,5.17-.48,7.05-.81v16.77c-5.25,.64-7.87,.97-12.96,.97Z"/>
    <path class="cls-1" d="M1613.04,1298.38c10.58,0,10.58-10.24,10.58-20.64h20.91c0,23.79-8.69,37.58-31.57,37.58-28.62,0-31.41-26.21-31.41-55.48s4.1-50.64,31.49-50.64,31.49,22.66,31.49,50.64v2.42h-41.99v5.16c0,11.93-1.31,30.96,10.5,30.96Zm0-72.25c-10.83,0-10.5,15.16-10.5,25.8h20.99c0-10.72,.25-25.8-10.5-25.8Z"/>
    <path class="cls-1" d="M1706.04,1209.2c9.27,0,15.09,7.66,15.09,16.69v87.97h-20.99v-77.41c0-6.53-1.07-10.32-7.87-10.32-5.9,0-9.68,3.23-13.12,6.05v81.68h-20.99v-103.21h20.99v11.13c7.38-6.61,14.35-12.58,26.9-12.58Z"/>
    <path class="cls-1" d="M1766,1226.13c-6.64,0-10.5,3.71-10.5,10.32,0,4.03,2.95,7.02,5.25,8.71l20.99,15.48c8.28,6.53,15.75,14.35,15.75,27.42,0,18.06-12.88,27.25-31.49,27.25s-27.96-12.58-31.49-27.25l15.75-5.16c2.38,6.53,6.89,15.48,15.75,15.48,6.64,0,10.5-3.71,10.5-10.32,0-5.64-2.3-9.27-5.25-11.93l-20.99-15.48c-7.95-5.4-15.75-11.93-15.75-24.19,0-18.06,12.88-27.25,31.49-27.25s27.96,12.58,31.49,27.25l-15.75,5.16c-2.54-6.53-6.72-15.48-15.75-15.48Z"/>
    <path class="cls-1" d="M1832.92,1174.52v20.64h-20.99v-20.64h20.99Zm0,36.12v103.21h-20.99v-103.21h20.99Z"/>
    <path class="cls-1" d="M1844.73,1210.65h20.99l13.12,77.41,13.12-77.41h20.99l-23.45,103.21h-21.16l-23.62-103.21Z"/>
    <path class="cls-1" d="M1951.51,1298.38c10.58,0,10.58-10.24,10.58-20.64h20.91c0,23.79-8.69,37.58-31.57,37.58-28.62,0-31.41-26.21-31.41-55.48s4.1-50.64,31.49-50.64,31.49,22.66,31.49,50.64v2.42h-41.99v5.16c0,11.93-1.31,30.96,10.5,30.96Zm0-72.25c-10.83,0-10.5,15.16-10.5,25.8h20.99c0-10.72,.25-25.8-10.5-25.8Z"/>
  </g>
  <g>
    <path class="cls-1" d="M241.71,1439.95v51.61h36.74v15.48h-57.73v-144.5h57.73v15.48h-36.74v46.45h26.24v15.48h-26.24Z"/>
    <path class="cls-1" d="M338.32,1402.38c9.27,0,15.09,7.66,15.09,16.69v87.97h-20.99v-77.41c0-6.53-1.07-10.32-7.87-10.32-5.9,0-9.68,3.23-13.12,6.05v81.68h-20.99v-103.21h20.99v11.13c7.38-6.61,14.35-12.58,26.9-12.58Z"/>
    <path class="cls-1" d="M400.41,1402.38c12.05,0,17.8,4.84,22.63,12.18,3.44-6.29,9.43-12.18,19.35-12.18v16.93c-5.99,0-10.17,2.26-13.12,5.16,1.39,4.03,2.62,9.43,2.62,15.48,0,21.13-10.09,37.41-31.49,37.41-2.3,0-4.59-.24-6.64-.56l-3.94-.65c-.98,1.77-2.87,4.11-2.87,6.61,0,7.5,20.26,6.69,27.72,7.66,14.11,1.85,27.72,6.05,27.72,21.77,0,19.27-17.47,25.72-36.74,25.72-15.66,0-41.99-.16-41.99-15.16,0-11.61,7.54-18.87,15.75-22.9-4.84-1.29-10.5-4.19-10.5-9.03,0-7.74,6.81-15.32,10.5-19.92-6.48-7.58-10.5-18.06-10.5-30.96,0-21.13,10.66-37.58,31.49-37.58Zm23.62,112.65c0-.89-.08-1.77-.33-2.66-.74-4.03-6.23-6.69-16.48-7.9l-17.3-2.02c-3.94,2.82-7.71,8.95-7.71,15.48,0,6.13,16.98,4.76,23.45,4.76,7.46,0,18.37-.48,18.37-7.66Zm-23.62-98.29c-10.83,0-13.12,12.58-13.12,23.22s2.46,21.93,13.12,21.93,13.12-11.37,13.12-21.93-2.46-23.22-13.12-23.22Z"/>
    <path class="cls-1" d="M473.07,1367.7v20.64h-20.99v-20.64h20.99Zm0,36.12v103.21h-20.99v-103.21h20.99Z"/>
    <path class="cls-1" d="M541.06,1402.38c9.27,0,15.09,7.66,15.09,16.69v87.97h-20.99v-77.41c0-6.53-1.07-10.32-7.87-10.32-5.9,0-9.68,3.23-13.12,6.05v81.68h-20.99v-103.21h20.99v11.13c7.38-6.61,14.35-12.58,26.9-12.58Z"/>
    <path class="cls-1" d="M604.04,1491.56c10.58,0,10.58-10.24,10.58-20.64h20.91c0,23.79-8.69,37.58-31.57,37.58-28.62,0-31.41-26.21-31.41-55.48s4.1-50.64,31.49-50.64,31.49,22.66,31.49,50.64v2.42h-41.99v5.16c0,11.93-1.31,30.96,10.5,30.96Zm0-72.25c-10.83,0-10.5,15.16-10.5,25.8h20.99c0-10.72,.25-25.8-10.5-25.8Z"/>
    <path class="cls-1" d="M678.68,1491.56c10.58,0,10.58-10.24,10.58-20.64h20.91c0,23.79-8.69,37.58-31.57,37.58-28.62,0-31.41-26.21-31.41-55.48s4.1-50.64,31.49-50.64,31.49,22.66,31.49,50.64v2.42h-41.99v5.16c0,11.93-1.31,30.96,10.5,30.96Zm0-72.25c-10.83,0-10.5,15.16-10.5,25.8h20.99c0-10.72,.25-25.8-10.5-25.8Z"/>
    <path class="cls-1" d="M767.66,1402.38c1.07,0,1.8,.16,3.36,.32v22.82c-3.12-1.21-7.55-2.26-11.64-2.26-8.69,0-14.6,5.56-14.6,14.11v69.67h-20.99v-103.21h20.99v13.79c3.77-7.18,12.05-15.24,22.88-15.24Z"/>
    <path class="cls-1" d="M801.45,1367.7v20.64h-20.99v-20.64h20.99Zm0,36.12v103.21h-20.99v-103.21h20.99Z"/>
    <path class="cls-1" d="M869.44,1402.38c9.27,0,15.09,7.66,15.09,16.69v87.97h-20.99v-77.41c0-6.53-1.07-10.32-7.87-10.32-5.9,0-9.68,3.23-13.12,6.05v81.68h-20.99v-103.21h20.99v11.13c7.38-6.61,14.35-12.58,26.9-12.58Z"/>
    <path class="cls-1" d="M931.52,1402.38c12.05,0,17.8,4.84,22.63,12.18,3.44-6.29,9.43-12.18,19.35-12.18v16.93c-5.99,0-10.17,2.26-13.12,5.16,1.39,4.03,2.62,9.43,2.62,15.48,0,21.13-10.09,37.41-31.49,37.41-2.3,0-4.59-.24-6.64-.56l-3.94-.65c-.98,1.77-2.87,4.11-2.87,6.61,0,7.5,20.26,6.69,27.72,7.66,14.11,1.85,27.72,6.05,27.72,21.77,0,19.27-17.47,25.72-36.74,25.72-15.66,0-41.99-.16-41.99-15.16,0-11.61,7.54-18.87,15.75-22.9-4.84-1.29-10.5-4.19-10.5-9.03,0-7.74,6.81-15.32,10.5-19.92-6.48-7.58-10.5-18.06-10.5-30.96,0-21.13,10.66-37.58,31.49-37.58Zm23.62,112.65c0-.89-.08-1.77-.33-2.66-.74-4.03-6.23-6.69-16.48-7.9l-17.3-2.02c-3.94,2.82-7.71,8.95-7.71,15.48,0,6.13,16.98,4.76,23.45,4.76,7.46,0,18.37-.48,18.37-7.66Zm-23.62-98.29c-10.83,0-13.12,12.58-13.12,23.22s2.46,21.93,13.12,21.93,13.12-11.37,13.12-21.93-2.46-23.22-13.12-23.22Z"/>
    <path class="cls-1" d="M1068.89,1434.79v46.45c0,10.56,.66,18.47,2.71,25.8h-20.91l-2.79-15.48c-4.18,8.14-8.86,16.93-20.99,16.93s-20.99-12.26-20.99-24.27c0-26.85,21.73-34.19,41.99-42.01v-7.42c0-9.11-1.72-16.45-10.5-16.45s-10.5,7.42-10.5,16.45h-20.99c.25-19.51,11.56-32.42,31.49-32.42s31.49,13.22,31.49,32.42Zm-41.99,43.95c0,7.74,2.95,12.82,10.5,12.82,5.08,0,8.28-4.68,10.5-7.58v-28.54c-8.28,5.48-20.99,10.81-20.99,23.3Z"/>
    <path class="cls-1" d="M1134.5,1402.38c9.27,0,15.09,7.66,15.09,16.69v87.97h-20.99v-77.41c0-6.53-1.07-10.32-7.87-10.32-5.9,0-9.68,3.23-13.12,6.05v81.68h-20.99v-103.21h20.99v11.13c7.38-6.61,14.35-12.58,26.9-12.58Z"/>
    <path class="cls-1" d="M1213.23,1414.07v-51.44h20.99v144.42h-20.99v-9.35c-4.84,4.92-11.48,10.81-20.99,10.81-21.08,0-26.24-27.09-26.24-47.98,0-27.01-.33-58.14,25.91-58.14,9.92,0,15.83,5.97,21.32,11.69Zm-15.75,77.49c5.41,0,11.07-1.37,15.75-3.23v-64.91c-3.85-2.26-9.92-4.11-15.75-4.11-12.3,0-10.5,18.47-10.5,30.88,0,14.11-2.21,41.37,10.5,41.37Z"/>
    <path class="cls-1" d="M1316.08,1378.02c-10.17,0-15.75,5.89-15.75,15.72,0,8.95,4.76,15.88,10.5,20.4l26.24,20.64c10.74,8.55,20.99,21.45,20.99,39.91,0,21.45-14.68,33.79-36.74,33.79-27.47,0-40.43-17.5-41.99-42.74l20.99-5.16c.74,14.92,5.08,30.96,20.99,30.96,10.5,0,15.75-5.16,15.75-15.48,0-12.98-8.12-19.76-15.75-25.8l-26.24-20.64c-9.02-6.93-15.83-18.38-15.83-33.71,0-21.45,14.76-34.83,36.82-34.83,26,0,40.1,14.11,41.99,37.58l-20.99,5.16c-.9-13.71-6.15-25.8-20.99-25.8Z"/>
    <path class="cls-1" d="M1402.03,1491.56c10.5,0,10.5-10.32,10.5-20.64h20.99c0,22.66-8.12,37.58-31.49,37.58-28.46,0-31.49-25.16-31.49-53.06s3.03-53.06,31.49-53.06c24.03,0,31.49,14.11,31.49,37.58h-20.99c0-9.68-.82-21.53-10.5-21.53-12.63,0-10.5,23.95-10.5,37.01s-2.38,36.12,10.5,36.12Z"/>
    <path class="cls-1" d="M1468.29,1367.7v20.64h-20.99v-20.64h20.99Zm0,36.12v103.21h-20.99v-103.21h20.99Z"/>
    <path class="cls-1" d="M1517.91,1491.56c10.58,0,10.58-10.24,10.58-20.64h20.91c0,23.79-8.69,37.58-31.57,37.58-28.62,0-31.41-26.21-31.41-55.48s4.1-50.64,31.49-50.64,31.49,22.66,31.49,50.64v2.42h-41.99v5.16c0,11.93-1.31,30.96,10.5,30.96Zm0-72.25c-10.83,0-10.5,15.16-10.5,25.8h20.99c0-10.72,.25-25.8-10.5-25.8Z"/>
    <path class="cls-1" d="M1610.91,1402.38c9.27,0,15.09,7.66,15.09,16.69v87.97h-20.99v-77.41c0-6.53-1.07-10.32-7.87-10.32-5.9,0-9.68,3.23-13.12,6.05v81.68h-20.99v-103.21h20.99v11.13c7.38-6.61,14.35-12.58,26.9-12.58Z"/>
    <path class="cls-1" d="M1673.9,1491.56c10.5,0,10.5-10.32,10.5-20.64h20.99c0,22.66-8.12,37.58-31.49,37.58-28.46,0-31.49-25.16-31.49-53.06s3.03-53.06,31.49-53.06c24.03,0,31.49,14.11,31.49,37.58h-20.99c0-9.68-.82-21.53-10.5-21.53-12.63,0-10.5,23.95-10.5,37.01s-2.38,36.12,10.5,36.12Z"/>
    <path class="cls-1" d="M1747.79,1491.56c10.58,0,10.58-10.24,10.58-20.64h20.91c0,23.79-8.69,37.58-31.57,37.58-28.62,0-31.41-26.21-31.41-55.48s4.1-50.64,31.49-50.64,31.49,22.66,31.49,50.64v2.42h-41.99v5.16c0,11.93-1.31,30.96,10.5,30.96Zm0-72.25c-10.83,0-10.5,15.16-10.5,25.8h20.99c0-10.72,.25-25.8-10.5-25.8Z"/>
  </g>
</svg>