<?xml version="1.0" encoding="iso-8859-1"?>
<!-- Generator: Adobe Illustrator 25.4.1, SVG Export Plug-In . SVG Version: 6.00 Build 0)  -->
<svg version="1.1" id="Layer_1" xmlns="http://www.w3.org/2000/svg" xmlns:xlink="http://www.w3.org/1999/xlink" x="0px" y="0px"
	 viewBox="0 0 313 129" style="enable-background:new 0 0 313 129;" xml:space="preserve">
<g>
	<defs>
		<rect id="SVGID_1_" x="43.266" y="43.392" width="40.255" height="43.376"/>
	</defs>
	<clipPath id="SVGID_00000098924950834760667050000016153947248633664130_">
		<use xlink:href="#SVGID_1_"  style="overflow:visible;"/>
	</clipPath>
	<path style="clip-path:url(#SVGID_00000098924950834760667050000016153947248633664130_);fill:#FFFFFF;" d="M63.387,49.074
		c-5.726,4.719-9.534,11.319-10.738,18.605c3.422,1.29,7.009,1.943,10.697,1.943c3.649,0,7.332-0.671,10.771-1.953
		C72.912,60.386,69.106,53.789,63.387,49.074 M63.038,53.075c0.108-0.584,0.07-1.138,0.144-1.613
		c0.022-0.227,0.109-0.428,0.205-0.433c0.093,0.005,0.181,0.206,0.202,0.433c0.075,0.475,0.038,1.029,0.147,1.613
		c0.512,0.183,0.405,0.84,0.405,0.84h-0.523h-0.464h-0.518C62.636,53.915,62.524,53.258,63.038,53.075 M60.525,60.561h1.131
		c-0.755,1.608-0.97,2.99-0.996,3.934c-0.369,0.126-0.637,0.465-0.637,0.874h-1.48c0-0.232-0.094-0.439-0.235-0.603
		C58.934,62.153,59.512,61.329,60.525,60.561 M62.507,60.561h0.505h0.726h0.508c0.815,1.596,1.053,3.014,1.073,4.021
		c-0.27,0.163-0.462,0.448-0.462,0.787h-2.964c0-0.339-0.191-0.624-0.462-0.787C61.45,63.575,61.69,62.157,62.507,60.561
		 M68.711,67.964H58.075v-1.426h3.215h4.17h3.251V67.964z M68.468,64.782c-0.133,0.162-0.225,0.362-0.225,0.587h-1.516
		c0-0.409-0.269-0.748-0.635-0.874c-0.027-0.943-0.241-2.324-0.997-3.934h1.152C67.264,61.331,67.842,62.156,68.468,64.782
		 M65.878,59.626h-1.794h-1.413h-1.797c0.111-0.183,0.149-0.403,0.368-0.514c0.149-0.074,0.475-0.036,0.475-0.036
		c0.075-0.843-0.145-0.916,0.771-0.882l0.009-1.702c-0.915-0.367-0.696-1.468,0.075-1.615c0.038-0.036,1.592-0.036,1.628,0
		c0.769,0.147,0.99,1.248,0.074,1.615l-0.009,1.702c0.916-0.034,0.695,0.039,0.768,0.882c0,0,0.332-0.038,0.478,0.036
		C65.731,59.223,65.769,59.443,65.878,59.626"/>
	<path style="clip-path:url(#SVGID_00000098924950834760667050000016153947248633664130_);fill:#FFFFFF;" d="M81.945,45.385
		l-0.031-0.017l-0.196-0.045c-5.996-1.281-12.162-1.932-18.325-1.932c-6.173,0-12.345,0.653-18.346,1.938l-0.025,0.006l-0.047,0.011
		c-1.007,0.254-1.71,1.157-1.71,2.195l0.002,3.265c0,23.546,14.572,33.1,19.037,35.468c0.359,0.19,0.729,0.287,1.098,0.287
		c0.374,0,0.743-0.099,1.099-0.296C68.944,83.91,83.52,74.358,83.52,50.804v-3.263C83.52,46.55,82.87,45.678,81.945,45.385
		 M44.583,50.782l-0.001-3.265c0-0.443,0.305-0.816,0.717-0.918l0.024-0.006c5.285-1.131,10.75-1.774,16.343-1.885
		C54.077,50.46,49.163,58.982,48.01,68.391C45.964,63.678,44.583,57.872,44.583,50.782 M63.861,85.087
		c-0.3,0.165-0.585,0.187-0.943-0.003c-3.329-1.765-9.328-6.028-13.555-13.896c4.433,1.943,9.13,2.939,13.983,2.939
		c4.808,0,9.659-1.027,14.084-2.951C73.2,79.056,67.192,83.322,63.861,85.087 M70.591,71.938c-2.371,0.52-4.801,0.786-7.245,0.786
		c-2.374,0-4.758-0.251-7.117-0.763c-2.359-0.513-4.688-1.288-6.953-2.337c0.912-10.09,6.28-18.904,14.111-24.453
		c7.829,5.549,13.192,14.363,14.105,24.453C75.279,70.641,72.965,71.417,70.591,71.938 M82.202,50.782
		c0,7.105-1.387,12.922-3.438,17.641c-1.15-9.424-6.066-17.958-13.661-23.715c5.592,0.109,11.054,0.751,16.338,1.88l0.013,0.005
		c0.427,0.089,0.75,0.467,0.75,0.924L82.202,50.782z"/>
</g>
<g>
	<defs>
		<rect id="SVGID_00000102529623727505335630000016400011130907514753_" x="89.875" y="47.918" width="180" height="24.58"/>
	</defs>
	<clipPath id="SVGID_00000093147661053268240190000010226858634279204504_">
		<use xlink:href="#SVGID_00000102529623727505335630000016400011130907514753_"  style="overflow:visible;"/>
	</clipPath>
	<path style="clip-path:url(#SVGID_00000093147661053268240190000010226858634279204504_);fill:#FFFFFF;" d="M95.023,52.328
		c0-3.159-0.283-3.5-1.963-3.643l-0.71-0.056c-0.171-0.114-0.114-0.626,0.057-0.711c1.649,0.056,2.616,0.085,3.811,0.085
		c1.139,0,2.106-0.029,3.244-0.085c0.17,0.085,0.227,0.597,0.057,0.711l-0.427,0.056c-1.678,0.229-1.735,0.625-1.735,3.643v10.555
		c0,2.246-0.115,4.209-0.654,5.517c-0.94,2.278-2.959,4.098-5.606,4.098c-0.34,0-1.222-0.029-1.222-0.598
		c0-0.484,0.425-1.31,1.023-1.31c0.342,0,0.684,0.056,1.054,0.172c0.398,0.113,0.796,0.199,1.194,0.199
		c0.598,0,0.94-0.342,1.139-0.74c0.654-1.338,0.738-5.604,0.738-7.141V52.328z"/>
	<path style="clip-path:url(#SVGID_00000093147661053268240190000010226858634279204504_);fill:#FFFFFF;" d="M99.459,59.027
		c0-4.799,3.601-8.472,8.544-8.472c5.544,0,8.328,4.008,8.328,8.232c0,4.848-3.696,8.375-8.328,8.375
		C102.676,67.162,99.459,63.347,99.459,59.027 M113.931,59.531c0-3.959-1.751-8.232-6.335-8.232c-2.497,0-5.736,1.705-5.736,6.961
		c0,3.55,1.728,8.16,6.455,8.16C111.196,66.42,113.931,64.26,113.931,59.531"/>
	<path style="clip-path:url(#SVGID_00000093147661053268240190000010226858634279204504_);fill:#FFFFFF;" d="M121.783,59.027
		c-1.152,0-1.2,0.049-1.2,0.77v3.382c0,2.52,0.12,2.856,1.464,3l0.695,0.073c0.145,0.095,0.096,0.527-0.047,0.599
		c-1.297-0.049-2.112-0.072-3.049-0.072c-1.031,0-1.847,0.049-2.783,0.072c-0.144-0.072-0.191-0.457-0.049-0.599l0.408-0.073
		c1.344-0.24,1.393-0.48,1.393-3v-8.64c0-2.52-0.168-2.927-1.416-3.024l-0.625-0.048c-0.144-0.096-0.095-0.528,0.049-0.6
		c1.176,0.023,1.992,0.072,3.023,0.072c0.937,0,1.752-0.023,2.784-0.072c0.144,0.072,0.193,0.504,0.048,0.6l-0.456,0.048
		c-1.391,0.144-1.439,0.504-1.439,3.024V57.3c0,0.743,0.048,0.768,1.2,0.768h6.864c1.152,0,1.201-0.025,1.201-0.768v-2.761
		c0-2.52-0.049-2.88-1.465-3.024l-0.455-0.048c-0.145-0.096-0.098-0.528,0.047-0.6c1.103,0.049,1.92,0.072,2.904,0.072
		c0.936,0,1.752-0.023,2.832-0.072c0.142,0.072,0.191,0.504,0.049,0.6l-0.506,0.048c-1.39,0.144-1.439,0.504-1.439,3.024v8.64
		c0,2.52,0.049,2.832,1.439,3l0.576,0.073c0.144,0.095,0.096,0.527-0.049,0.599c-1.15-0.049-1.966-0.072-2.902-0.072
		c-0.984,0-1.847,0.023-2.904,0.072c-0.145-0.072-0.192-0.457-0.047-0.599l0.455-0.073c1.465-0.24,1.465-0.48,1.465-3v-3.382
		c0-0.721-0.049-0.77-1.201-0.77H121.783z"/>
	<path style="clip-path:url(#SVGID_00000093147661053268240190000010226858634279204504_);fill:#FFFFFF;" d="M150.225,62.699
		c0,0.721,0,3.576,0.07,4.199c-0.047,0.145-0.191,0.264-0.455,0.264c-0.287-0.406-0.984-1.246-3.072-3.623l-5.568-6.336
		c-0.647-0.744-2.28-2.712-2.784-3.238h-0.046c-0.098,0.287-0.122,0.838-0.122,1.558v5.233c0,1.127,0.024,4.248,0.432,4.966
		c0.145,0.266,0.625,0.409,1.225,0.457l0.744,0.073c0.144,0.191,0.119,0.48-0.049,0.599c-1.08-0.048-1.92-0.072-2.807-0.072
		c-1.009,0-1.656,0.024-2.496,0.072c-0.168-0.119-0.191-0.457-0.049-0.599l0.649-0.073c0.551-0.072,0.935-0.216,1.057-0.48
		c0.333-0.863,0.31-3.791,0.31-4.943V53.82c0-0.673-0.023-1.178-0.527-1.728c-0.336-0.336-0.912-0.505-1.489-0.577l-0.408-0.047
		c-0.144-0.144-0.144-0.503,0.049-0.601c1.008,0.072,2.279,0.072,2.711,0.072c0.385,0,0.793-0.023,1.105-0.072
		c0.479,1.225,3.311,4.393,4.104,5.281l2.328,2.615c1.654,1.848,2.83,3.192,3.959,4.344h0.049c0.096-0.119,0.096-0.504,0.096-1.008
		v-5.136c0-1.128-0.024-4.247-0.481-4.968c-0.144-0.216-0.527-0.36-1.488-0.48l-0.408-0.047c-0.168-0.144-0.143-0.529,0.048-0.601
		c1.104,0.049,1.92,0.072,2.833,0.072c1.031,0,1.654-0.023,2.47-0.072c0.194,0.121,0.194,0.457,0.049,0.601l-0.336,0.047
		c-0.767,0.12-1.248,0.313-1.344,0.504c-0.408,0.864-0.359,3.84-0.359,4.944V62.699z"/>
	<path style="clip-path:url(#SVGID_00000093147661053268240190000010226858634279204504_);fill:#FFFFFF;" d="M156.568,67.162
		c-2.018,0-3.289-0.623-3.744-0.887c-0.289-0.529-0.602-2.232-0.649-3.359c0.12-0.17,0.481-0.217,0.577-0.072
		c0.359,1.222,1.343,3.576,4.127,3.576c2.015,0,3-1.321,3-2.76c0-1.057-0.215-2.232-1.969-3.361l-2.279-1.489
		c-1.2-0.791-2.592-2.16-2.592-4.127c0-2.28,1.777-4.127,4.896-4.127c0.744,0,1.608,0.144,2.233,0.311
		c0.31,0.098,0.646,0.145,0.837,0.145c0.217,0.575,0.434,1.92,0.434,2.927c-0.096,0.145-0.48,0.216-0.601,0.073
		c-0.311-1.153-0.959-2.713-3.264-2.713c-2.352,0-2.856,1.56-2.856,2.666c0,1.39,1.153,2.398,2.041,2.951l1.92,1.199
		c1.512,0.936,3,2.328,3,4.608C161.679,65.363,159.687,67.162,156.568,67.162"/>
	<path style="clip-path:url(#SVGID_00000093147661053268240190000010226858634279204504_);fill:#FFFFFF;" d="M175.924,57.592
		c-1.365,0-1.422,0.055-1.422,0.908v4.012c0,2.986,0.141,3.385,1.734,3.557l0.827,0.086c0.17,0.113,0.113,0.625-0.059,0.708
		c-1.535-0.056-2.502-0.083-3.611-0.083c-1.225,0-2.192,0.056-3.301,0.083c-0.172-0.083-0.229-0.539-0.057-0.708l0.483-0.086
		c1.593-0.286,1.65-0.571,1.65-3.557V52.27c0-2.987-0.199-3.471-1.678-3.584l-0.74-0.057c-0.17-0.113-0.113-0.626,0.057-0.711
		c1.394,0.028,2.361,0.085,3.586,0.085c1.109,0,2.076-0.028,3.299-0.085c0.171,0.085,0.228,0.598,0.056,0.711l-0.541,0.057
		c-1.648,0.172-1.705,0.597-1.705,3.584v3.272c0,0.882,0.057,0.909,1.422,0.909h8.137c1.365,0,1.422-0.027,1.422-0.909V52.27
		c0-2.987-0.057-3.412-1.737-3.584l-0.541-0.057c-0.17-0.113-0.113-0.626,0.059-0.711c1.306,0.057,2.275,0.085,3.441,0.085
		c1.11,0,2.078-0.028,3.358-0.085c0.17,0.085,0.228,0.598,0.056,0.711l-0.597,0.057c-1.649,0.172-1.707,0.597-1.707,3.584v10.242
		c0,2.986,0.058,3.357,1.707,3.557l0.683,0.086c0.17,0.113,0.114,0.625-0.058,0.708c-1.364-0.056-2.332-0.083-3.442-0.083
		c-1.166,0-2.189,0.027-3.441,0.083c-0.172-0.083-0.229-0.539-0.059-0.708l0.541-0.086c1.737-0.286,1.737-0.571,1.737-3.557V58.5
		c0-0.853-0.057-0.908-1.422-0.908H175.924z"/>
	<path style="clip-path:url(#SVGID_00000093147661053268240190000010226858634279204504_);fill:#FFFFFF;" d="M190.025,59.027
		c0-4.799,3.602-8.472,8.543-8.472c5.545,0,8.328,4.008,8.328,8.232c0,4.848-3.695,8.375-8.328,8.375
		C193.242,67.162,190.025,63.347,190.025,59.027 M204.496,59.531c0-3.959-1.75-8.232-6.336-8.232c-2.494,0-5.734,1.705-5.734,6.961
		c0,3.55,1.728,8.16,6.455,8.16C201.762,66.42,204.496,64.26,204.496,59.531"/>
	<path style="clip-path:url(#SVGID_00000093147661053268240190000010226858634279204504_);fill:#FFFFFF;" d="M211.24,63.18
		c0,2.52,0.049,2.832,1.584,3l0.648,0.072c0.145,0.119,0.098,0.528-0.048,0.6c-1.368-0.049-2.159-0.072-3.12-0.072
		c-1.007,0-1.871,0.023-2.927,0.072c-0.145-0.072-0.192-0.457-0.047-0.6l0.504-0.072c1.39-0.191,1.439-0.48,1.439-3v-8.855
		c0-2.041-0.049-2.449-1.129-2.569l-0.863-0.097c-0.168-0.143-0.145-0.503,0.049-0.599c1.271-0.169,2.76-0.193,4.75-0.193
		c1.992,0,3.48,0.264,4.609,0.961c1.104,0.696,1.92,1.944,1.92,3.599c0,2.208-1.367,3.314-2.4,3.817
		c-1.057,0.504-2.328,0.719-3.313,0.719c-0.168-0.07-0.168-0.431-0.023-0.478c2.592-0.481,3.527-1.946,3.527-4.033
		c0-2.329-1.367-3.839-3.863-3.839c-1.272,0-1.297,0.094-1.297,0.864V63.18z"/>
	<path style="clip-path:url(#SVGID_00000093147661053268240190000010226858634279204504_);fill:#FFFFFF;" d="M221.227,54.539
		c0-2.52-0.049-2.904-1.439-3.023l-0.602-0.048c-0.143-0.097-0.094-0.529,0.049-0.601c1.176,0.049,1.943,0.072,3.023,0.072
		c0.936,0,1.752-0.023,2.785-0.072c0.143,0.072,0.192,0.504,0.047,0.601l-0.455,0.048c-1.392,0.143-1.441,0.503-1.441,3.023v2.762
		c0,0.455,0.049,0.91,0.314,0.91c0.215,0,0.502-0.143,0.67-0.264c0.336-0.287,0.961-0.912,1.225-1.152l2.592-2.567
		c0.455-0.433,1.632-1.657,1.871-1.992c0.121-0.169,0.17-0.289,0.17-0.385c0-0.095-0.096-0.167-0.409-0.239l-0.648-0.144
		c-0.168-0.169-0.145-0.48,0.047-0.601c0.84,0.049,1.801,0.072,2.64,0.072c0.84,0,1.657-0.023,2.375-0.072
		c0.17,0.121,0.194,0.457,0.049,0.601c-0.623,0.048-1.558,0.288-2.23,0.672c-0.672,0.383-2.018,1.511-3.362,2.784l-2.16,2.039
		c-0.336,0.338-0.552,0.553-0.552,0.744c0,0.17,0.144,0.361,0.457,0.744c2.279,2.615,4.127,4.776,6,6.744
		c0.576,0.576,1.013,0.889,1.828,0.985l0.463,0.072c0.17,0.119,0.121,0.527-0.049,0.6c-0.623-0.049-1.281-0.073-2.41-0.073
		c-0.983,0-1.825,0.024-2.928,0.073c-0.168-0.049-0.24-0.458-0.096-0.6l0.551-0.098c0.338-0.047,0.576-0.119,0.576-0.238
		c0-0.145-0.168-0.336-0.336-0.553c-0.457-0.576-1.08-1.224-1.992-2.256l-1.92-2.16c-1.367-1.535-1.752-2.015-2.328-2.015
		c-0.359,0-0.408,0.312-0.408,1.152v3.096c0,2.519,0.049,2.855,1.392,3l0.649,0.072c0.142,0.096,0.096,0.527-0.049,0.6
		c-1.176-0.049-1.992-0.073-2.928-0.073c-0.984,0-1.799,0.024-2.783,0.073c-0.144-0.073-0.193-0.432-0.049-0.6l0.481-0.072
		c1.271-0.192,1.32-0.481,1.32-3V54.539z"/>
	<path style="clip-path:url(#SVGID_00000093147661053268240190000010226858634279204504_);fill:#FFFFFF;" d="M237.699,54.588
		c0-2.544-0.047-2.953-1.465-3.072l-0.598-0.048c-0.144-0.097-0.097-0.528,0.047-0.601c1.2,0.049,2.016,0.073,3.024,0.073
		c0.961,0,1.777-0.024,2.976-0.073c0.145,0.073,0.192,0.504,0.049,0.601l-0.601,0.048c-1.416,0.119-1.463,0.528-1.463,3.072v8.543
		c0,2.545,0.047,2.881,1.463,3.049l0.601,0.072c0.143,0.096,0.096,0.527-0.049,0.6c-1.199-0.049-2.015-0.073-2.976-0.073
		c-1.008,0-1.733,0.024-2.932,0.073c-0.144-0.073-0.191-0.457-0.047-0.6l0.506-0.072c1.418-0.168,1.465-0.504,1.465-3.049V54.588z"
		/>
	<path style="clip-path:url(#SVGID_00000093147661053268240190000010226858634279204504_);fill:#FFFFFF;" d="M258.459,62.699
		c0,0.721,0,3.576,0.074,4.199c-0.049,0.145-0.193,0.264-0.457,0.264c-0.287-0.406-0.984-1.246-3.072-3.623l-5.568-6.336
		c-0.647-0.744-2.28-2.712-2.784-3.238h-0.047c-0.097,0.287-0.121,0.838-0.121,1.558v5.233c0,1.127,0.024,4.248,0.432,4.966
		c0.145,0.266,0.625,0.409,1.225,0.457l0.744,0.073c0.142,0.191,0.119,0.48-0.049,0.599c-1.08-0.048-1.92-0.072-2.807-0.072
		c-1.008,0-1.656,0.024-2.496,0.072c-0.168-0.119-0.193-0.457-0.049-0.599l0.649-0.073c0.551-0.072,0.935-0.216,1.056-0.48
		c0.336-0.863,0.311-3.791,0.311-4.943V53.82c0-0.673-0.023-1.178-0.527-1.728c-0.336-0.336-0.912-0.505-1.489-0.577l-0.408-0.047
		c-0.144-0.144-0.144-0.503,0.049-0.601c1.008,0.072,2.279,0.072,2.711,0.072c0.385,0,0.793-0.023,1.105-0.072
		c0.481,1.225,3.311,4.393,4.102,5.281l2.33,2.615c1.656,1.848,2.83,3.192,3.959,4.344h0.049c0.096-0.119,0.096-0.504,0.096-1.008
		v-5.136c0-1.128-0.024-4.247-0.481-4.968c-0.144-0.216-0.527-0.36-1.486-0.48l-0.408-0.047c-0.17-0.144-0.145-0.529,0.046-0.601
		c1.104,0.049,1.92,0.072,2.832,0.072c1.034,0,1.657-0.023,2.471-0.072c0.194,0.121,0.194,0.457,0.049,0.601l-0.336,0.047
		c-0.768,0.12-1.248,0.313-1.344,0.504c-0.408,0.864-0.361,3.84-0.361,4.944V62.699z"/>
	<path style="clip-path:url(#SVGID_00000093147661053268240190000010226858634279204504_);fill:#FFFFFF;" d="M264.764,67.162
		c-2.018,0-3.289-0.623-3.746-0.887c-0.287-0.529-0.6-2.232-0.649-3.359c0.122-0.17,0.483-0.217,0.577-0.072
		c0.361,1.222,1.345,3.576,4.129,3.576c2.015,0,3-1.321,3-2.76c0-1.057-0.217-2.232-1.969-3.361l-2.278-1.489
		c-1.201-0.791-2.593-2.16-2.593-4.127c0-2.28,1.775-4.127,4.896-4.127c0.744,0,1.608,0.144,2.233,0.311
		c0.312,0.098,0.646,0.145,0.837,0.145c0.217,0.575,0.434,1.92,0.434,2.927c-0.098,0.145-0.48,0.216-0.601,0.073
		c-0.311-1.153-0.959-2.713-3.262-2.713c-2.354,0-2.858,1.56-2.858,2.666c0,1.39,1.153,2.398,2.039,2.951l1.922,1.199
		c1.512,0.936,3,2.328,3,4.608C269.875,65.363,267.883,67.162,264.764,67.162"/>
</g>
<g>
	<defs>
		<rect id="SVGID_00000038399294997400101920000003790631628161711277_" width="313" height="129"/>
	</defs>
	<clipPath id="SVGID_00000065760315611524592850000002069817636967762312_">
		<use xlink:href="#SVGID_00000038399294997400101920000003790631628161711277_"  style="overflow:visible;"/>
	</clipPath>
	<path style="clip-path:url(#SVGID_00000065760315611524592850000002069817636967762312_);fill:#FFFFFF;" d="M114.578,85.892
		c-1.041,0-1.699-0.322-1.935-0.459c-0.149-0.272-0.31-1.153-0.335-1.736c0.063-0.087,0.249-0.113,0.297-0.037
		c0.188,0.632,0.696,1.847,2.135,1.847c1.041,0,1.551-0.681,1.551-1.426c0-0.545-0.112-1.154-1.018-1.737l-1.178-0.768
		c-0.621-0.411-1.34-1.118-1.34-2.134c0-1.179,0.918-2.134,2.53-2.134c0.385,0,0.832,0.074,1.154,0.161
		c0.161,0.05,0.335,0.074,0.434,0.074c0.112,0.298,0.224,0.993,0.224,1.514c-0.05,0.074-0.248,0.111-0.31,0.037
		c-0.162-0.596-0.496-1.402-1.688-1.402c-1.215,0-1.476,0.806-1.476,1.378c0,0.718,0.596,1.24,1.055,1.525l0.992,0.62
		c0.781,0.485,1.551,1.203,1.551,2.382C117.221,84.962,116.191,85.892,114.578,85.892"/>
	<path style="clip-path:url(#SVGID_00000065760315611524592850000002069817636967762312_);fill:#FFFFFF;" d="M120.295,78.361
		c0.905-0.707,2.059-1.054,3.35-1.054c0.67,0,1.612,0.136,2.195,0.298c0.148,0.037,0.235,0.062,0.348,0.049
		c0.011,0.286,0.074,1.067,0.173,1.824c-0.062,0.087-0.248,0.099-0.336,0.025c-0.185-0.844-0.744-1.812-2.542-1.812
		c-1.899,0-3.51,1.204-3.51,3.772c0,2.605,1.649,4.044,3.683,4.044c1.601,0,2.308-1.042,2.593-1.774
		c0.087-0.062,0.273-0.037,0.323,0.05c-0.088,0.644-0.41,1.464-0.595,1.699c-0.15,0.025-0.299,0.074-0.435,0.124
		c-0.272,0.1-1.166,0.285-1.96,0.285c-1.117,0-2.183-0.222-3.089-0.831c-0.993-0.682-1.761-1.811-1.761-3.411
		C118.732,80.272,119.352,79.093,120.295,78.361"/>
	<path style="clip-path:url(#SVGID_00000065760315611524592850000002069817636967762312_);fill:#FFFFFF;" d="M130.662,81.687
		c-0.596,0-0.621,0.024-0.621,0.396v1.75c0,1.302,0.062,1.476,0.757,1.55l0.36,0.038c0.074,0.049,0.049,0.273-0.025,0.31
		c-0.67-0.024-1.092-0.037-1.576-0.037c-0.534,0-0.956,0.024-1.439,0.037c-0.074-0.037-0.099-0.235-0.024-0.31l0.211-0.038
		c0.694-0.124,0.718-0.248,0.718-1.55v-4.466c0-1.302-0.086-1.513-0.731-1.563l-0.323-0.025c-0.075-0.049-0.049-0.273,0.025-0.31
		c0.607,0.013,1.029,0.037,1.563,0.037c0.484,0,0.906-0.012,1.439-0.037c0.074,0.037,0.1,0.261,0.025,0.31l-0.236,0.025
		c-0.719,0.074-0.744,0.261-0.744,1.563v1.426c0,0.385,0.025,0.398,0.621,0.398h3.547c0.596,0,0.621-0.013,0.621-0.398v-1.426
		c0-1.302-0.025-1.489-0.758-1.563l-0.234-0.025c-0.075-0.049-0.051-0.273,0.023-0.31c0.572,0.025,0.993,0.037,1.502,0.037
		c0.484,0,0.905-0.012,1.464-0.037c0.074,0.037,0.099,0.261,0.024,0.31l-0.259,0.025c-0.721,0.074-0.745,0.261-0.745,1.563v4.466
		c0,1.302,0.024,1.463,0.745,1.55l0.297,0.038c0.074,0.049,0.049,0.273-0.025,0.31c-0.596-0.024-1.017-0.037-1.501-0.037
		c-0.509,0-0.955,0.013-1.502,0.037c-0.074-0.037-0.098-0.235-0.023-0.31l0.234-0.038c0.758-0.124,0.758-0.248,0.758-1.55v-1.75
		c0-0.372-0.025-0.396-0.621-0.396H130.662z"/>
	<path style="clip-path:url(#SVGID_00000065760315611524592850000002069817636967762312_);fill:#FFFFFF;" d="M138.299,81.686
		c0-2.481,1.861-4.379,4.416-4.379c2.865,0,4.304,2.072,4.304,4.255c0,2.506-1.91,4.329-4.304,4.329
		C139.961,85.891,138.299,83.919,138.299,81.686 M145.779,81.947c0-2.047-0.906-4.256-3.275-4.256c-1.29,0-2.965,0.881-2.965,3.598
		c0,1.836,0.893,4.218,3.338,4.218C144.365,85.507,145.779,84.39,145.779,81.947"/>
	<path style="clip-path:url(#SVGID_00000065760315611524592850000002069817636967762312_);fill:#FFFFFF;" d="M148.777,81.686
		c0-2.481,1.86-4.379,4.416-4.379c2.866,0,4.304,2.072,4.304,4.255c0,2.506-1.91,4.329-4.304,4.329
		C150.439,85.891,148.777,83.919,148.777,81.686 M156.257,81.947c0-2.047-0.905-4.256-3.275-4.256c-1.29,0-2.965,0.881-2.965,3.598
		c0,1.836,0.893,4.218,3.337,4.218C154.842,85.507,156.257,84.39,156.257,81.947"/>
	<path style="clip-path:url(#SVGID_00000065760315611524592850000002069817636967762312_);fill:#FFFFFF;" d="M160.172,79.366
		c0-1.302-0.024-1.501-0.806-1.562l-0.31-0.026c-0.074-0.049-0.05-0.272,0.024-0.309c0.696,0.024,1.117,0.037,1.613,0.037
		c0.485,0,0.907-0.013,1.526-0.037c0.074,0.037,0.099,0.26,0.025,0.309l-0.298,0.026c-0.731,0.061-0.756,0.26-0.756,1.562v4.317
		c0,0.782,0.037,1.105,0.26,1.34c0.136,0.137,0.372,0.285,1.353,0.285c1.055,0,1.314-0.049,1.514-0.161
		c0.248-0.148,0.57-0.595,0.818-1.228c0.074-0.062,0.31-0.012,0.31,0.075c0,0.136-0.347,1.401-0.521,1.736
		c-0.633-0.024-1.812-0.037-3.09-0.037h-1.141c-0.521,0-0.917,0.013-1.613,0.037c-0.074-0.037-0.098-0.235-0.024-0.309l0.372-0.038
		c0.72-0.075,0.744-0.248,0.744-1.55V79.366z"/>
	<path style="clip-path:url(#SVGID_00000065760315611524592850000002069817636967762312_);fill:#FFFFFF;" d="M173.777,82.196
		c-0.037,0.681-0.398,1.873-1.316,2.815c-0.768,0.794-1.438,0.857-1.773,0.857c-0.794,0-1.315-0.583-1.24-1.651
		c0.049-0.768,0.508-1.971,1.351-2.778c0.645-0.62,1.203-0.807,1.712-0.807C173.392,80.632,173.827,81.289,173.777,82.196
		 M171.519,81.6c-0.72,0.968-1.203,2.443-1.241,3.102c-0.024,0.433,0.149,0.794,0.51,0.794c0.272,0,0.582-0.113,0.979-0.646
		c0.546-0.731,1.129-2.369,1.153-3.026c0.013-0.385-0.061-0.82-0.496-0.82C172.176,81.004,171.879,81.117,171.519,81.6"/>
	<path style="clip-path:url(#SVGID_00000065760315611524592850000002069817636967762312_);fill:#FFFFFF;" d="M177.371,81.265
		c-0.074,0.211-0.174,0.607-0.322,1.153c-0.372,1.39-0.707,2.581-1.104,3.946c-0.323,1.116-0.732,1.749-0.98,1.997
		c-0.186,0.174-0.757,0.67-1.489,0.67c-0.669,0-0.906-0.422-0.906-0.608c0-0.248,0.149-0.459,0.285-0.558
		c0.1-0.075,0.211-0.038,0.286,0.049c0.298,0.31,0.669,0.509,0.943,0.509c0.248,0,0.508-0.087,0.794-1.042
		c0.57-1.96,1.005-4.094,1.6-6.116h-1.03c-0.124-0.111-0.074-0.348,0.087-0.459h1.066c0.324-1.116,0.659-2.084,1.391-2.952
		c0.619-0.733,1.265-1.03,1.984-1.03c0.459,0,0.956,0.323,0.956,0.819c0,0.322-0.335,0.707-0.534,0.707
		c-0.111,0-0.162-0.112-0.173-0.198c-0.038-0.683-0.385-0.907-0.696-0.907c-0.272,0-0.607,0.249-0.892,0.67
		c-0.571,0.831-0.819,1.712-1.155,2.891h1.551c0.088,0.137,0.063,0.322-0.123,0.459H177.371z"/>
	<path style="clip-path:url(#SVGID_00000065760315611524592850000002069817636967762312_);fill:#FFFFFF;" d="M187.367,82.381
		c0.285,0.583,0.558,1.154,0.855,1.7h0.026c0.334-0.583,0.644-1.228,0.955-1.861l1.166-2.369c0.559-1.129,0.918-1.812,0.942-2.382
		c0.422,0.037,0.683,0.037,0.931,0.037c0.311,0,0.719-0.013,1.104-0.037c0.074,0.05,0.074,0.261,0.012,0.309l-0.261,0.026
		c-0.781,0.074-0.88,0.309-0.868,1.179c0.025,1.314,0.038,3.609,0.137,5.395c0.037,0.621,0.024,0.956,0.608,1.005l0.397,0.038
		c0.074,0.074,0.062,0.26-0.025,0.31c-0.508-0.025-1.017-0.037-1.463-0.037c-0.435,0-0.994,0.012-1.502,0.037
		c-0.086-0.062-0.1-0.236-0.025-0.31l0.361-0.038c0.607-0.062,0.607-0.26,0.607-1.054l-0.037-5.174h-0.025
		c-0.086,0.137-0.559,1.129-0.807,1.614l-1.104,2.171c-0.558,1.091-1.117,2.257-1.339,2.828c-0.026,0.037-0.075,0.05-0.124,0.05
		c-0.025,0-0.087-0.013-0.113-0.05c-0.21-0.658-0.805-1.873-1.091-2.481l-1.116-2.394c-0.261-0.571-0.521-1.216-0.795-1.786h-0.024
		c-0.05,0.768-0.087,1.488-0.124,2.208c-0.037,0.756-0.087,1.86-0.087,2.915c0,0.918,0.075,1.116,0.558,1.153l0.472,0.038
		c0.086,0.074,0.074,0.273-0.013,0.31c-0.421-0.025-0.905-0.037-1.376-0.037c-0.398,0-0.844,0.012-1.266,0.037
		c-0.074-0.062-0.099-0.248-0.025-0.31l0.273-0.038c0.52-0.074,0.694-0.148,0.768-1.017c0.076-0.819,0.137-1.501,0.211-2.729
		c0.063-1.029,0.113-2.084,0.137-2.767c0.026-0.781-0.074-0.968-0.83-1.066l-0.199-0.026c-0.063-0.074-0.049-0.259,0.05-0.309
		c0.372,0.024,0.67,0.037,0.979,0.037c0.285,0,0.621,0,1.03-0.037c-0.049,0.483,0.261,1.253,0.646,2.047L187.367,82.381z"/>
	<path style="clip-path:url(#SVGID_00000065760315611524592850000002069817636967762312_);fill:#FFFFFF;" d="M196.058,79.366
		c0-1.29-0.024-1.476-0.757-1.562l-0.198-0.026c-0.075-0.049-0.05-0.272,0.024-0.309c0.534,0.024,0.955,0.037,1.464,0.037h2.333
		c0.793,0,1.526,0,1.674-0.037c0.074,0.21,0.149,1.103,0.199,1.649c-0.05,0.075-0.248,0.1-0.31,0.025
		c-0.186-0.583-0.298-1.017-0.944-1.178c-0.259-0.063-0.656-0.075-1.203-0.075h-0.892c-0.373,0-0.373,0.025-0.373,0.497v2.48
		c0,0.348,0.038,0.348,0.41,0.348h0.719c0.521,0,0.906-0.025,1.054-0.075c0.15-0.049,0.237-0.124,0.299-0.434l0.099-0.508
		c0.061-0.075,0.272-0.075,0.322,0.012c0,0.298-0.05,0.782-0.05,1.253c0,0.447,0.05,0.918,0.05,1.191
		c-0.05,0.087-0.261,0.087-0.322,0.012l-0.113-0.484c-0.048-0.223-0.135-0.409-0.383-0.471c-0.174-0.05-0.472-0.062-0.956-0.062
		h-0.719c-0.372,0-0.41,0.012-0.41,0.335v1.749c0,0.657,0.038,1.079,0.236,1.29c0.148,0.149,0.409,0.285,1.501,0.285
		c0.955,0,1.315-0.049,1.588-0.185c0.223-0.124,0.557-0.559,0.881-1.204c0.087-0.062,0.26-0.025,0.309,0.087
		c-0.086,0.434-0.396,1.389-0.557,1.724c-1.117-0.024-2.221-0.037-3.326-0.037h-1.116c-0.533,0-0.955,0.013-1.686,0.037
		c-0.075-0.037-0.1-0.235-0.026-0.309l0.41-0.038c0.707-0.062,0.769-0.248,0.769-1.55V79.366z"/>
	<path style="clip-path:url(#SVGID_00000065760315611524592850000002069817636967762312_);fill:#FFFFFF;" d="M203.671,79.118
		c0-0.868-0.062-1.129-0.584-1.203l-0.272-0.037c-0.099-0.061-0.112-0.261,0.013-0.31c1.054-0.062,2.058-0.099,3.113-0.099
		c1.042,0,1.923,0.074,2.729,0.372c1.675,0.607,2.519,2.022,2.519,3.659c0,1.576-0.758,2.928-2.172,3.697
		c-0.806,0.434-1.823,0.596-2.778,0.596c-0.794,0-1.588-0.1-2.023-0.1c-0.52,0-0.966,0.013-1.55,0.038
		c-0.075-0.038-0.099-0.236-0.025-0.31l0.286-0.038c0.719-0.099,0.744-0.248,0.744-1.55V79.118z M204.689,83.547
		c0,0.658,0.038,1.055,0.248,1.353c0.273,0.384,0.745,0.508,1.526,0.508c2.407,0,3.487-1.575,3.487-3.882
		c0-1.366-0.658-3.672-3.908-3.672c-0.733,0-1.129,0.098-1.229,0.172c-0.1,0.076-0.124,0.385-0.124,0.944V83.547z"/>
	<path style="clip-path:url(#SVGID_00000065760315611524592850000002069817636967762312_);fill:#FFFFFF;" d="M213.592,79.392
		c0-1.315-0.025-1.526-0.758-1.588l-0.309-0.025c-0.075-0.049-0.05-0.273,0.024-0.31c0.621,0.025,1.043,0.037,1.564,0.037
		c0.496,0,0.917-0.012,1.538-0.037c0.074,0.037,0.099,0.261,0.025,0.31l-0.311,0.025c-0.732,0.062-0.756,0.273-0.756,1.588v4.416
		c0,1.315,0.024,1.488,0.756,1.575l0.311,0.038c0.074,0.049,0.049,0.273-0.025,0.31c-0.621-0.025-1.042-0.037-1.538-0.037
		c-0.521,0-0.943,0.012-1.564,0.037c-0.074-0.037-0.099-0.235-0.024-0.31l0.309-0.038c0.733-0.087,0.758-0.26,0.758-1.575V79.392z"
		/>
	<path style="clip-path:url(#SVGID_00000065760315611524592850000002069817636967762312_);fill:#FFFFFF;" d="M218.551,78.361
		c0.906-0.707,2.061-1.054,3.35-1.054c0.67,0,1.613,0.136,2.196,0.298c0.149,0.037,0.235,0.062,0.347,0.049
		c0.012,0.286,0.074,1.067,0.173,1.824c-0.061,0.087-0.248,0.099-0.334,0.025c-0.186-0.844-0.745-1.812-2.544-1.812
		c-1.897,0-3.51,1.204-3.51,3.772c0,2.605,1.65,4.044,3.684,4.044c1.601,0,2.308-1.042,2.593-1.774
		c0.087-0.062,0.274-0.037,0.322,0.05c-0.086,0.644-0.409,1.464-0.595,1.699c-0.149,0.025-0.297,0.074-0.434,0.124
		c-0.273,0.1-1.166,0.285-1.96,0.285c-1.116,0-2.184-0.222-3.089-0.831c-0.992-0.682-1.761-1.811-1.761-3.411
		C216.989,80.272,217.609,79.093,218.551,78.361"/>
	<path style="clip-path:url(#SVGID_00000065760315611524592850000002069817636967762312_);fill:#FFFFFF;" d="M227.281,79.392
		c0-1.315-0.025-1.526-0.758-1.588l-0.309-0.025c-0.075-0.049-0.05-0.273,0.024-0.31c0.621,0.025,1.043,0.037,1.564,0.037
		c0.496,0,0.917-0.012,1.538-0.037c0.074,0.037,0.099,0.261,0.025,0.31l-0.311,0.025c-0.732,0.062-0.756,0.273-0.756,1.588v4.416
		c0,1.315,0.024,1.488,0.756,1.575l0.311,0.038c0.074,0.049,0.049,0.273-0.025,0.31c-0.621-0.025-1.042-0.037-1.538-0.037
		c-0.521,0-0.943,0.012-1.564,0.037c-0.074-0.037-0.099-0.235-0.024-0.31l0.309-0.038c0.733-0.087,0.758-0.26,0.758-1.575V79.392z"
		/>
	<path style="clip-path:url(#SVGID_00000065760315611524592850000002069817636967762312_);fill:#FFFFFF;" d="M238.766,83.584
		c0,0.373,0,1.849,0.037,2.172c-0.024,0.074-0.099,0.136-0.235,0.136c-0.15-0.211-0.509-0.645-1.588-1.873l-2.878-3.276
		c-0.335-0.384-1.179-1.401-1.44-1.674h-0.024c-0.05,0.149-0.061,0.434-0.061,0.806v2.705c0,0.583,0.011,2.195,0.222,2.567
		c0.074,0.137,0.322,0.211,0.633,0.236l0.385,0.038c0.074,0.099,0.062,0.248-0.026,0.309c-0.558-0.024-0.992-0.037-1.451-0.037
		c-0.521,0-0.855,0.013-1.29,0.037c-0.087-0.061-0.098-0.235-0.024-0.309l0.334-0.038c0.285-0.037,0.484-0.112,0.547-0.248
		c0.173-0.447,0.16-1.96,0.16-2.555v-3.586c0-0.347-0.012-0.607-0.273-0.892c-0.173-0.174-0.471-0.261-0.768-0.298l-0.211-0.026
		c-0.074-0.074-0.074-0.259,0.024-0.309c0.521,0.037,1.179,0.037,1.402,0.037c0.199,0,0.41-0.013,0.571-0.037
		c0.248,0.633,1.712,2.27,2.121,2.729l1.203,1.352c0.857,0.955,1.464,1.65,2.047,2.245h0.024c0.051-0.062,0.051-0.26,0.051-0.521
		v-2.655c0-0.583-0.013-2.195-0.248-2.567c-0.075-0.112-0.273-0.187-0.769-0.248l-0.211-0.026c-0.087-0.074-0.075-0.272,0.025-0.309
		c0.57,0.024,0.992,0.037,1.463,0.037c0.533,0,0.855-0.013,1.277-0.037c0.1,0.061,0.1,0.235,0.026,0.309l-0.174,0.026
		c-0.397,0.061-0.645,0.161-0.694,0.26c-0.211,0.447-0.187,1.985-0.187,2.555V83.584z"/>
	<path style="clip-path:url(#SVGID_00000065760315611524592850000002069817636967762312_);fill:#FFFFFF;" d="M241.925,79.366
		c0-1.29-0.024-1.476-0.757-1.562l-0.198-0.026c-0.075-0.049-0.05-0.272,0.024-0.309c0.534,0.024,0.955,0.037,1.464,0.037h2.333
		c0.793,0,1.526,0,1.674-0.037c0.074,0.21,0.149,1.103,0.199,1.649c-0.05,0.075-0.248,0.1-0.31,0.025
		c-0.186-0.583-0.298-1.017-0.944-1.178c-0.259-0.063-0.656-0.075-1.203-0.075h-0.892c-0.373,0-0.373,0.025-0.373,0.497v2.48
		c0,0.348,0.038,0.348,0.41,0.348h0.719c0.521,0,0.906-0.025,1.054-0.075c0.15-0.049,0.237-0.124,0.299-0.434l0.099-0.508
		c0.061-0.075,0.272-0.075,0.322,0.012c0,0.298-0.05,0.782-0.05,1.253c0,0.447,0.05,0.918,0.05,1.191
		c-0.05,0.087-0.261,0.087-0.322,0.012l-0.113-0.484c-0.048-0.223-0.135-0.409-0.383-0.471c-0.174-0.05-0.472-0.062-0.956-0.062
		h-0.719c-0.372,0-0.41,0.012-0.41,0.335v1.749c0,0.657,0.038,1.079,0.236,1.29c0.148,0.149,0.409,0.285,1.501,0.285
		c0.955,0,1.315-0.049,1.588-0.185c0.223-0.124,0.557-0.559,0.881-1.204c0.087-0.062,0.26-0.025,0.309,0.087
		c-0.086,0.434-0.396,1.389-0.557,1.724c-1.117-0.024-2.221-0.037-3.326-0.037h-1.116c-0.533,0-0.955,0.013-1.686,0.037
		c-0.075-0.037-0.1-0.235-0.026-0.309l0.41-0.038c0.707-0.062,0.769-0.248,0.769-1.55V79.366z"/>
</g>
</svg>
