<?xml version="1.0" encoding="iso-8859-1"?>
<!-- Generator: Adobe Illustrator 25.4.1, SVG Export Plug-In . SVG Version: 6.00 Build 0)  -->
<svg version="1.1" id="Layer_1" xmlns="http://www.w3.org/2000/svg" xmlns:xlink="http://www.w3.org/1999/xlink" x="0px" y="0px"
	 viewBox="0 0 266 174" style="enable-background:new 0 0 266 174;" xml:space="preserve">
<g>
	<defs>
		<rect id="SVGID_1_" x="113.208" y="43.339" width="40.254" height="43.375"/>
	</defs>
	<clipPath id="SVGID_00000107577406703501182130000000275400263148417724_">
		<use xlink:href="#SVGID_1_"  style="overflow:visible;"/>
	</clipPath>
	<path style="clip-path:url(#SVGID_00000107577406703501182130000000275400263148417724_);fill:#002361;" d="M152.659,45.357
		l-0.014-0.005c-5.652-1.208-11.496-1.894-17.48-2.012c8.126,6.159,13.387,15.29,14.615,25.375
		c2.196-5.05,3.681-11.273,3.681-18.877l0.002-3.493C153.463,45.857,153.117,45.453,152.659,45.357"/>
	<path style="clip-path:url(#SVGID_00000107577406703501182130000000275400263148417724_);fill:#002361;" d="M118.323,71.673
		c4.522,8.418,10.94,12.98,14.505,14.869c0.382,0.203,0.687,0.18,1.008,0.003c3.564-1.89,9.992-6.455,14.517-14.886
		c-4.733,2.06-9.924,3.158-15.069,3.158C128.093,74.817,123.066,73.751,118.323,71.673"/>
	<path style="clip-path:url(#SVGID_00000107577406703501182130000000275400263148417724_);fill:#002361;" d="M131.487,43.34
		c-5.986,0.119-11.832,0.807-17.486,2.017l-0.027,0.007c-0.439,0.109-0.766,0.506-0.766,0.981l0.001,3.494
		c0,7.586,1.477,13.797,3.666,18.842C118.109,58.613,123.367,49.494,131.487,43.34"/>
	<path style="clip-path:url(#SVGID_00000107577406703501182130000000275400263148417724_);fill:#002361;" d="M133.326,43.835
		c-8.378,5.938-14.121,15.369-15.097,26.165c2.424,1.121,4.917,1.95,7.441,2.499c2.522,0.549,5.075,0.817,7.613,0.817
		c2.615,0,5.216-0.285,7.754-0.841c2.538-0.558,5.015-1.387,7.384-2.475C147.443,59.204,141.704,49.773,133.326,43.835
		 M133.283,69.997c-3.944,0-7.784-0.698-11.443-2.079c1.287-7.796,5.361-14.858,11.486-19.906
		c6.12,5.045,10.192,12.102,11.482,19.896C141.129,69.279,137.188,69.997,133.283,69.997"/>
	<path style="clip-path:url(#SVGID_00000107577406703501182130000000275400263148417724_);fill:#002361;" d="M129.729,65.447
		c0-0.438,0.287-0.801,0.681-0.936c0.028-1.01,0.258-2.488,1.066-4.21h-1.211c-1.083,0.824-1.703,1.706-2.372,4.5
		c0.151,0.175,0.252,0.397,0.252,0.646H129.729z"/>
	<path style="clip-path:url(#SVGID_00000107577406703501182130000000275400263148417724_);fill:#002361;" d="M136.221,64.511
		c0.394,0.135,0.681,0.497,0.681,0.936h1.623c0-0.242,0.096-0.456,0.239-0.628c-0.67-2.81-1.289-3.693-2.376-4.517h-1.232
		C135.963,62.026,136.194,63.501,136.221,64.511"/>
	<path style="clip-path:url(#SVGID_00000107577406703501182130000000275400263148417724_);fill:#002361;" d="M131.73,65.447h3.172
		c0-0.363,0.204-0.668,0.494-0.843c-0.021-1.077-0.278-2.593-1.148-4.303h-0.544h-0.778h-0.541c-0.872,1.71-1.128,3.226-1.149,4.303
		C131.526,64.779,131.73,65.084,131.73,65.447"/>
	<polygon style="clip-path:url(#SVGID_00000107577406703501182130000000275400263148417724_);fill:#002361;" points="
		131.085,66.697 127.646,66.697 127.646,68.223 139.025,68.223 139.025,66.697 135.545,66.697 	"/>
	<path style="clip-path:url(#SVGID_00000107577406703501182130000000275400263148417724_);fill:#002361;" d="M133.078,53.192h0.497
		h0.558c0,0,0.115-0.703-0.432-0.898c-0.116-0.625-0.077-1.219-0.157-1.727c-0.022-0.242-0.117-0.458-0.218-0.463
		c-0.101,0.005-0.194,0.221-0.218,0.463c-0.078,0.508-0.04,1.102-0.155,1.727c-0.548,0.195-0.43,0.898-0.43,0.898H133.078z"/>
	<path style="clip-path:url(#SVGID_00000107577406703501182130000000275400263148417724_);fill:#002361;" d="M135.088,58.714
		c-0.077-0.902,0.159-0.98-0.821-0.943l0.009-1.823c0.981-0.392,0.745-1.569-0.079-1.726c-0.039-0.039-1.701-0.039-1.741,0
		c-0.825,0.157-1.059,1.334-0.08,1.726l-0.01,1.823c-0.979-0.037-0.745,0.041-0.824,0.943c0,0-0.35-0.041-0.509,0.038
		c-0.234,0.118-0.274,0.355-0.393,0.55h1.921h1.512h1.919c-0.116-0.195-0.158-0.432-0.392-0.55
		C135.444,58.673,135.088,58.714,135.088,58.714"/>
</g>
<g>
	<defs>
		<rect id="SVGID_00000126283046295325039120000005745659657656859022_" x="43" y="93.168" width="180" height="24.58"/>
	</defs>
	<clipPath id="SVGID_00000077294823310510155270000011197500501511608763_">
		<use xlink:href="#SVGID_00000126283046295325039120000005745659657656859022_"  style="overflow:visible;"/>
	</clipPath>
	<path style="clip-path:url(#SVGID_00000077294823310510155270000011197500501511608763_);fill:#002361;" d="M48.148,97.578
		c0-3.159-0.283-3.5-1.963-3.643l-0.71-0.056c-0.171-0.114-0.114-0.626,0.057-0.711c1.649,0.056,2.616,0.085,3.811,0.085
		c1.139,0,2.106-0.029,3.243-0.085c0.171,0.085,0.229,0.597,0.058,0.711l-0.427,0.056c-1.678,0.229-1.735,0.625-1.735,3.643v10.555
		c0,2.246-0.115,4.209-0.654,5.517c-0.94,2.278-2.959,4.098-5.606,4.098c-0.34,0-1.222-0.029-1.222-0.598
		c0-0.484,0.425-1.31,1.023-1.31c0.342,0,0.684,0.056,1.054,0.172c0.398,0.113,0.796,0.199,1.194,0.199
		c0.598,0,0.94-0.342,1.139-0.74c0.654-1.338,0.738-5.604,0.738-7.141V97.578z"/>
	<path style="clip-path:url(#SVGID_00000077294823310510155270000011197500501511608763_);fill:#002361;" d="M52.584,104.277
		c0-4.799,3.601-8.472,8.544-8.472c5.544,0,8.328,4.008,8.328,8.232c0,4.848-3.695,8.375-8.328,8.375
		C55.8,112.412,52.584,108.597,52.584,104.277 M67.056,104.781c0-3.959-1.752-8.232-6.336-8.232c-2.496,0-5.735,1.705-5.735,6.961
		c0,3.55,1.727,8.16,6.456,8.16C64.321,111.67,67.056,109.51,67.056,104.781"/>
	<path style="clip-path:url(#SVGID_00000077294823310510155270000011197500501511608763_);fill:#002361;" d="M74.908,104.277
		c-1.151,0-1.2,0.049-1.2,0.77v3.382c0,2.52,0.12,2.856,1.463,3l0.697,0.073c0.144,0.095,0.096,0.527-0.048,0.599
		c-1.296-0.049-2.112-0.072-3.049-0.072c-1.031,0-1.848,0.049-2.784,0.072c-0.143-0.072-0.191-0.457-0.047-0.599l0.408-0.073
		c1.343-0.24,1.392-0.48,1.392-3v-8.64c0-2.52-0.168-2.927-1.416-3.024L69.7,96.717c-0.145-0.096-0.096-0.528,0.047-0.6
		c1.176,0.023,1.993,0.072,3.024,0.072c0.937,0,1.753-0.023,2.784-0.072c0.145,0.072,0.194,0.504,0.048,0.6l-0.456,0.048
		c-1.39,0.144-1.439,0.504-1.439,3.024v2.761c0,0.743,0.049,0.768,1.2,0.768h6.864c1.152,0,1.199-0.025,1.199-0.768v-2.761
		c0-2.52-0.047-2.88-1.463-3.024l-0.456-0.048c-0.144-0.096-0.096-0.528,0.048-0.6c1.104,0.049,1.919,0.072,2.903,0.072
		c0.937,0,1.753-0.023,2.833-0.072c0.143,0.072,0.192,0.504,0.048,0.6l-0.504,0.048c-1.392,0.144-1.44,0.504-1.44,3.024v8.64
		c0,2.52,0.048,2.832,1.44,3l0.576,0.073c0.143,0.095,0.096,0.527-0.049,0.599c-1.151-0.049-1.967-0.072-2.904-0.072
		c-0.984,0-1.847,0.023-2.903,0.072c-0.144-0.072-0.192-0.457-0.048-0.599l0.456-0.073c1.463-0.24,1.463-0.48,1.463-3v-3.382
		c0-0.721-0.047-0.77-1.199-0.77H74.908z"/>
	<path style="clip-path:url(#SVGID_00000077294823310510155270000011197500501511608763_);fill:#002361;" d="M103.349,107.949
		c0,0.721,0,3.576,0.072,4.199c-0.047,0.145-0.191,0.264-0.455,0.264c-0.289-0.406-0.984-1.246-3.072-3.623l-5.568-6.336
		c-0.649-0.744-2.28-2.712-2.784-3.238h-0.048c-0.096,0.287-0.12,0.838-0.12,1.558v5.233c0,1.127,0.024,4.248,0.432,4.966
		c0.145,0.266,0.624,0.409,1.224,0.457l0.743,0.073c0.145,0.191,0.121,0.48-0.047,0.599c-1.08-0.048-1.92-0.072-2.808-0.072
		c-1.008,0-1.657,0.024-2.497,0.072c-0.167-0.119-0.191-0.457-0.047-0.599l0.648-0.073c0.552-0.072,0.936-0.216,1.056-0.48
		c0.335-0.863,0.312-3.791,0.312-4.943V99.07c0-0.673-0.023-1.178-0.528-1.728c-0.336-0.336-0.911-0.505-1.488-0.577l-0.409-0.047
		c-0.143-0.144-0.143-0.503,0.049-0.601c1.008,0.072,2.28,0.072,2.712,0.072c0.384,0,0.792-0.023,1.103-0.072
		c0.481,1.225,3.313,4.393,4.105,5.281l2.327,2.615c1.656,1.848,2.832,3.192,3.961,4.344h0.047c0.097-0.119,0.097-0.504,0.097-1.008
		v-5.136c0-1.128-0.025-4.247-0.48-4.968c-0.144-0.216-0.529-0.36-1.488-0.48l-0.408-0.047c-0.168-0.144-0.145-0.529,0.047-0.601
		c1.105,0.049,1.921,0.072,2.833,0.072c1.032,0,1.655-0.023,2.471-0.072c0.192,0.121,0.192,0.457,0.049,0.601l-0.336,0.047
		c-0.768,0.12-1.249,0.313-1.345,0.504c-0.407,0.864-0.36,3.84-0.36,4.944V107.949z"/>
	<path style="clip-path:url(#SVGID_00000077294823310510155270000011197500501511608763_);fill:#002361;" d="M109.692,112.412
		c-2.016,0-3.287-0.623-3.744-0.887c-0.287-0.529-0.6-2.232-0.649-3.359c0.122-0.17,0.481-0.217,0.577-0.072
		c0.36,1.222,1.343,3.576,4.128,3.576c2.016,0,3.001-1.321,3.001-2.76c0-1.057-0.216-2.232-1.969-3.361l-2.28-1.489
		c-1.199-0.791-2.591-2.16-2.591-4.127c0-2.28,1.775-4.127,4.895-4.127c0.744,0,1.609,0.144,2.233,0.311
		c0.311,0.098,0.647,0.145,0.838,0.145c0.216,0.575,0.433,1.92,0.433,2.927c-0.096,0.145-0.48,0.216-0.601,0.073
		c-0.311-1.153-0.958-2.713-3.263-2.713c-2.352,0-2.856,1.56-2.856,2.666c0,1.39,1.153,2.398,2.04,2.951l1.92,1.199
		c1.513,0.936,3,2.328,3,4.608C114.804,110.613,112.812,112.412,109.692,112.412"/>
	<path style="clip-path:url(#SVGID_00000077294823310510155270000011197500501511608763_);fill:#002361;" d="M129.049,102.842
		c-1.365,0-1.422,0.055-1.422,0.908v4.012c0,2.986,0.142,3.385,1.735,3.557l0.826,0.086c0.17,0.113,0.114,0.625-0.058,0.708
		c-1.536-0.056-2.503-0.083-3.612-0.083c-1.224,0-2.192,0.056-3.301,0.083c-0.171-0.083-0.228-0.539-0.057-0.708l0.484-0.086
		c1.592-0.286,1.65-0.571,1.65-3.557V97.52c0-2.987-0.199-3.471-1.678-3.584l-0.74-0.057c-0.171-0.113-0.114-0.626,0.057-0.711
		c1.393,0.028,2.361,0.085,3.585,0.085c1.109,0,2.076-0.028,3.3-0.085c0.17,0.085,0.227,0.598,0.055,0.711l-0.54,0.057
		c-1.649,0.172-1.706,0.597-1.706,3.584v3.272c0,0.882,0.057,0.909,1.422,0.909h8.137c1.365,0,1.422-0.027,1.422-0.909V97.52
		c0-2.987-0.057-3.412-1.736-3.584l-0.541-0.057c-0.17-0.113-0.113-0.626,0.058-0.711c1.307,0.057,2.276,0.085,3.442,0.085
		c1.11,0,2.077-0.028,3.358-0.085c0.17,0.085,0.227,0.598,0.055,0.711l-0.596,0.057c-1.65,0.172-1.707,0.597-1.707,3.584v10.242
		c0,2.986,0.057,3.357,1.707,3.557l0.682,0.086c0.171,0.113,0.115,0.625-0.057,0.708c-1.365-0.056-2.332-0.083-3.442-0.083
		c-1.166,0-2.19,0.027-3.442,0.083c-0.171-0.083-0.228-0.539-0.058-0.708l0.541-0.086c1.736-0.286,1.736-0.571,1.736-3.557v-4.012
		c0-0.853-0.057-0.908-1.422-0.908H129.049z"/>
	<path style="clip-path:url(#SVGID_00000077294823310510155270000011197500501511608763_);fill:#002361;" d="M143.15,104.277
		c0-4.799,3.602-8.472,8.544-8.472c5.545,0,8.328,4.008,8.328,8.232c0,4.848-3.695,8.375-8.328,8.375
		C146.367,112.412,143.15,108.597,143.15,104.277 M157.622,104.781c0-3.959-1.751-8.232-6.336-8.232
		c-2.495,0-5.735,1.705-5.735,6.961c0,3.55,1.728,8.16,6.456,8.16C154.888,111.67,157.622,109.51,157.622,104.781"/>
	<path style="clip-path:url(#SVGID_00000077294823310510155270000011197500501511608763_);fill:#002361;" d="M164.366,108.43
		c0,2.52,0.048,2.832,1.584,3l0.648,0.072c0.144,0.119,0.097,0.528-0.048,0.6c-1.368-0.049-2.16-0.072-3.12-0.072
		c-1.008,0-1.872,0.023-2.927,0.072c-0.145-0.072-0.193-0.457-0.048-0.6l0.504-0.072c1.391-0.191,1.439-0.48,1.439-3v-8.855
		c0-2.041-0.048-2.449-1.128-2.569l-0.864-0.097c-0.168-0.143-0.144-0.503,0.049-0.599c1.271-0.169,2.76-0.193,4.751-0.193
		c1.992,0,3.48,0.264,4.608,0.961c1.104,0.696,1.92,1.944,1.92,3.599c0,2.208-1.367,3.314-2.4,3.817
		c-1.056,0.504-2.327,0.719-3.312,0.719c-0.168-0.07-0.168-0.431-0.024-0.478c2.592-0.481,3.528-1.946,3.528-4.033
		c0-2.329-1.368-3.839-3.863-3.839c-1.273,0-1.297,0.094-1.297,0.864V108.43z"/>
	<path style="clip-path:url(#SVGID_00000077294823310510155270000011197500501511608763_);fill:#002361;" d="M174.352,99.789
		c0-2.52-0.049-2.904-1.44-3.023l-0.601-0.048c-0.144-0.097-0.095-0.529,0.048-0.601c1.176,0.049,1.944,0.072,3.023,0.072
		c0.937,0,1.753-0.023,2.785-0.072c0.144,0.072,0.193,0.504,0.047,0.601l-0.455,0.048c-1.392,0.143-1.44,0.503-1.44,3.023v2.762
		c0,0.455,0.048,0.91,0.313,0.91c0.215,0,0.503-0.143,0.671-0.264c0.336-0.287,0.96-0.912,1.225-1.152l2.591-2.567
		c0.456-0.433,1.632-1.657,1.872-1.992c0.121-0.169,0.169-0.289,0.169-0.385c0-0.095-0.096-0.167-0.409-0.239l-0.648-0.144
		c-0.168-0.169-0.144-0.48,0.048-0.601c0.84,0.049,1.8,0.072,2.64,0.072s1.656-0.023,2.375-0.072
		c0.169,0.121,0.193,0.457,0.049,0.601c-0.624,0.048-1.559,0.288-2.231,0.672c-0.672,0.383-2.018,1.511-3.361,2.784l-2.16,2.039
		c-0.336,0.338-0.552,0.553-0.552,0.744c0,0.17,0.144,0.361,0.456,0.744c2.28,2.615,4.128,4.776,6.001,6.744
		c0.576,0.576,1.012,0.889,1.828,0.985l0.463,0.072c0.169,0.119,0.12,0.527-0.049,0.6c-0.624-0.049-1.282-0.073-2.41-0.073
		c-0.984,0-1.826,0.024-2.929,0.073c-0.168-0.049-0.239-0.458-0.096-0.6l0.552-0.098c0.337-0.047,0.576-0.119,0.576-0.238
		c0-0.145-0.168-0.336-0.337-0.553c-0.456-0.576-1.079-1.224-1.991-2.256l-1.92-2.16c-1.368-1.535-1.752-2.015-2.328-2.015
		c-0.36,0-0.408,0.312-0.408,1.152v3.096c0,2.519,0.048,2.855,1.392,3l0.649,0.072c0.142,0.096,0.096,0.527-0.049,0.6
		c-1.176-0.049-1.992-0.073-2.929-0.073c-0.983,0-1.799,0.024-2.783,0.073c-0.143-0.073-0.192-0.432-0.048-0.6l0.481-0.072
		c1.271-0.192,1.32-0.481,1.32-3V99.789z"/>
	<path style="clip-path:url(#SVGID_00000077294823310510155270000011197500501511608763_);fill:#002361;" d="M190.825,99.838
		c0-2.544-0.048-2.953-1.465-3.072l-0.598-0.048c-0.145-0.097-0.097-0.528,0.046-0.601c1.201,0.049,2.017,0.073,3.025,0.073
		c0.96,0,1.776-0.024,2.975-0.073c0.145,0.073,0.193,0.504,0.049,0.601l-0.6,0.048c-1.416,0.119-1.464,0.528-1.464,3.072v8.543
		c0,2.545,0.048,2.881,1.464,3.049l0.6,0.072c0.144,0.096,0.096,0.527-0.049,0.6c-1.199-0.049-2.015-0.073-2.975-0.073
		c-1.008,0-1.733,0.024-2.932,0.073c-0.144-0.073-0.192-0.457-0.048-0.6l0.507-0.072c1.417-0.168,1.465-0.504,1.465-3.049V99.838z"
		/>
	<path style="clip-path:url(#SVGID_00000077294823310510155270000011197500501511608763_);fill:#002361;" d="M211.585,107.949
		c0,0.721,0,3.576,0.073,4.199c-0.048,0.145-0.192,0.264-0.456,0.264c-0.288-0.406-0.984-1.246-3.072-3.623l-5.568-6.336
		c-0.648-0.744-2.281-2.712-2.784-3.238h-0.047c-0.097,0.287-0.122,0.838-0.122,1.558v5.233c0,1.127,0.025,4.248,0.433,4.966
		c0.145,0.266,0.624,0.409,1.224,0.457l0.744,0.073c0.143,0.191,0.119,0.48-0.048,0.599c-1.08-0.048-1.92-0.072-2.808-0.072
		c-1.007,0-1.656,0.024-2.495,0.072c-0.169-0.119-0.193-0.457-0.049-0.599l0.649-0.073c0.551-0.072,0.935-0.216,1.055-0.48
		c0.336-0.863,0.312-3.791,0.312-4.943V99.07c0-0.673-0.024-1.178-0.528-1.728c-0.336-0.336-0.912-0.505-1.488-0.577l-0.408-0.047
		c-0.144-0.144-0.144-0.503,0.049-0.601c1.008,0.072,2.279,0.072,2.711,0.072c0.384,0,0.792-0.023,1.104-0.072
		c0.481,1.225,3.312,4.393,4.103,5.281l2.329,2.615c1.656,1.848,2.831,3.192,3.96,4.344h0.048c0.096-0.119,0.096-0.504,0.096-1.008
		v-5.136c0-1.128-0.024-4.247-0.48-4.968c-0.144-0.216-0.527-0.36-1.487-0.48l-0.408-0.047c-0.169-0.144-0.145-0.529,0.046-0.601
		c1.105,0.049,1.92,0.072,2.833,0.072c1.033,0,1.656-0.023,2.471-0.072c0.193,0.121,0.193,0.457,0.049,0.601l-0.336,0.047
		c-0.768,0.12-1.248,0.313-1.345,0.504c-0.408,0.864-0.36,3.84-0.36,4.944V107.949z"/>
	<path style="clip-path:url(#SVGID_00000077294823310510155270000011197500501511608763_);fill:#002361;" d="M217.889,112.412
		c-2.017,0-3.288-0.623-3.745-0.887c-0.287-0.529-0.6-2.232-0.649-3.359c0.122-0.17,0.482-0.217,0.577-0.072
		c0.36,1.222,1.344,3.576,4.129,3.576c2.015,0,3-1.321,3-2.76c0-1.057-0.217-2.232-1.969-3.361l-2.279-1.489
		c-1.201-0.791-2.593-2.16-2.593-4.127c0-2.28,1.776-4.127,4.897-4.127c0.743,0,1.607,0.144,2.232,0.311
		c0.312,0.098,0.647,0.145,0.838,0.145c0.217,0.575,0.433,1.92,0.433,2.927c-0.097,0.145-0.479,0.216-0.6,0.073
		c-0.312-1.153-0.959-2.713-3.263-2.713c-2.353,0-2.857,1.56-2.857,2.666c0,1.39,1.153,2.398,2.039,2.951l1.921,1.199
		c1.512,0.936,3,2.328,3,4.608C223,110.613,221.008,112.412,217.889,112.412"/>
</g>
<g>
	<defs>
		<rect id="SVGID_00000082349019984968349340000009332009813753309321_" width="266" height="174"/>
	</defs>
	<clipPath id="SVGID_00000174562584726704582810000014263855638978911130_">
		<use xlink:href="#SVGID_00000082349019984968349340000009332009813753309321_"  style="overflow:visible;"/>
	</clipPath>
	<path style="clip-path:url(#SVGID_00000174562584726704582810000014263855638978911130_);fill:#002361;" d="M67.703,131.061
		c-1.042,0-1.7-0.322-1.935-0.459c-0.149-0.272-0.311-1.153-0.335-1.736c0.062-0.087,0.248-0.113,0.297-0.037
		c0.187,0.632,0.695,1.847,2.134,1.847c1.042,0,1.551-0.681,1.551-1.426c0-0.545-0.112-1.154-1.017-1.737l-1.179-0.768
		c-0.62-0.411-1.34-1.118-1.34-2.134c0-1.179,0.918-2.134,2.531-2.134c0.385,0,0.831,0.074,1.154,0.161
		c0.161,0.05,0.335,0.074,0.434,0.074c0.112,0.298,0.223,0.993,0.223,1.514c-0.049,0.074-0.248,0.111-0.31,0.037
		c-0.161-0.596-0.496-1.402-1.687-1.402c-1.216,0-1.476,0.806-1.476,1.378c0,0.718,0.595,1.24,1.054,1.525l0.993,0.62
		c0.781,0.485,1.551,1.203,1.551,2.382C70.346,130.132,69.316,131.061,67.703,131.061"/>
	<path style="clip-path:url(#SVGID_00000174562584726704582810000014263855638978911130_);fill:#002361;" d="M73.419,123.531
		c0.906-0.707,2.06-1.054,3.35-1.054c0.67,0,1.612,0.136,2.195,0.298c0.149,0.037,0.236,0.062,0.348,0.049
		c0.012,0.286,0.074,1.067,0.173,1.824c-0.062,0.087-0.248,0.099-0.335,0.025c-0.186-0.844-0.744-1.812-2.543-1.812
		c-1.898,0-3.51,1.204-3.51,3.772c0,2.605,1.65,4.044,3.684,4.044c1.6,0,2.307-1.042,2.593-1.774
		c0.087-0.062,0.273-0.037,0.322,0.05c-0.087,0.644-0.409,1.464-0.595,1.699c-0.149,0.025-0.298,0.074-0.434,0.124
		c-0.273,0.1-1.166,0.285-1.96,0.285c-1.117,0-2.184-0.222-3.089-0.831c-0.993-0.682-1.762-1.811-1.762-3.411
		C71.856,125.442,72.476,124.263,73.419,123.531"/>
	<path style="clip-path:url(#SVGID_00000174562584726704582810000014263855638978911130_);fill:#002361;" d="M83.786,126.856
		c-0.596,0-0.621,0.024-0.621,0.396v1.75c0,1.302,0.062,1.476,0.757,1.55l0.36,0.038c0.074,0.049,0.05,0.273-0.025,0.31
		c-0.67-0.024-1.092-0.037-1.575-0.037c-0.534,0-0.956,0.024-1.439,0.037c-0.075-0.037-0.1-0.235-0.025-0.31l0.211-0.038
		c0.694-0.124,0.719-0.248,0.719-1.55v-4.466c0-1.302-0.087-1.513-0.732-1.563l-0.322-0.025c-0.075-0.049-0.05-0.273,0.025-0.31
		c0.607,0.013,1.029,0.037,1.563,0.037c0.483,0,0.905-0.012,1.439-0.037c0.074,0.037,0.099,0.261,0.024,0.31l-0.235,0.025
		c-0.72,0.074-0.745,0.261-0.745,1.563v1.426c0,0.385,0.025,0.398,0.621,0.398h3.548c0.595,0,0.62-0.013,0.62-0.398v-1.426
		c0-1.302-0.025-1.489-0.757-1.563l-0.235-0.025c-0.075-0.049-0.05-0.273,0.024-0.31c0.571,0.025,0.993,0.037,1.502,0.037
		c0.483,0,0.905-0.012,1.464-0.037c0.074,0.037,0.099,0.261,0.024,0.31l-0.26,0.025c-0.72,0.074-0.745,0.261-0.745,1.563v4.466
		c0,1.302,0.025,1.463,0.745,1.55l0.298,0.038c0.074,0.049,0.049,0.273-0.025,0.31c-0.596-0.024-1.018-0.037-1.501-0.037
		c-0.509,0-0.956,0.013-1.502,0.037c-0.074-0.037-0.099-0.235-0.024-0.31l0.235-0.038c0.757-0.124,0.757-0.248,0.757-1.55v-1.75
		c0-0.372-0.025-0.396-0.62-0.396H83.786z"/>
	<path style="clip-path:url(#SVGID_00000174562584726704582810000014263855638978911130_);fill:#002361;" d="M91.424,126.856
		c0-2.481,1.86-4.379,4.416-4.379c2.865,0,4.304,2.072,4.304,4.255c0,2.506-1.91,4.329-4.304,4.329
		C93.086,131.061,91.424,129.089,91.424,126.856 M98.904,127.117c0-2.047-0.906-4.256-3.275-4.256c-1.29,0-2.965,0.881-2.965,3.598
		c0,1.836,0.893,4.218,3.337,4.218C97.489,130.677,98.904,129.56,98.904,127.117"/>
	<path style="clip-path:url(#SVGID_00000174562584726704582810000014263855638978911130_);fill:#002361;" d="M101.901,126.856
		c0-2.481,1.86-4.379,4.416-4.379c2.865,0,4.304,2.072,4.304,4.255c0,2.506-1.91,4.329-4.304,4.329
		C103.563,131.061,101.901,129.089,101.901,126.856 M109.381,127.117c0-2.047-0.906-4.256-3.275-4.256
		c-1.29,0-2.965,0.881-2.965,3.598c0,1.836,0.893,4.218,3.337,4.218C107.966,130.677,109.381,129.56,109.381,127.117"/>
	<path style="clip-path:url(#SVGID_00000174562584726704582810000014263855638978911130_);fill:#002361;" d="M113.297,124.536
		c0-1.302-0.025-1.501-0.806-1.562l-0.311-0.026c-0.074-0.049-0.049-0.272,0.025-0.309c0.695,0.024,1.117,0.037,1.613,0.037
		c0.484,0,0.906-0.013,1.526-0.037c0.074,0.037,0.099,0.26,0.025,0.309l-0.298,0.026c-0.732,0.061-0.757,0.26-0.757,1.562v4.317
		c0,0.782,0.038,1.105,0.261,1.34c0.136,0.137,0.372,0.285,1.352,0.285c1.055,0,1.315-0.049,1.514-0.161
		c0.248-0.148,0.57-0.595,0.818-1.228c0.075-0.062,0.31-0.012,0.31,0.075c0,0.136-0.347,1.401-0.521,1.736
		c-0.632-0.024-1.811-0.037-3.089-0.037h-1.141c-0.521,0-0.918,0.013-1.613,0.037c-0.074-0.037-0.099-0.235-0.025-0.309l0.373-0.038
		c0.719-0.075,0.744-0.248,0.744-1.55V124.536z"/>
	<path style="clip-path:url(#SVGID_00000174562584726704582810000014263855638978911130_);fill:#002361;" d="M126.901,127.366
		c-0.037,0.681-0.397,1.873-1.315,2.815c-0.769,0.794-1.439,0.857-1.774,0.857c-0.794,0-1.315-0.583-1.241-1.651
		c0.05-0.768,0.509-1.971,1.352-2.778c0.645-0.62,1.204-0.807,1.712-0.807C126.516,125.801,126.95,126.459,126.901,127.366
		 M124.643,126.77c-0.72,0.968-1.203,2.443-1.241,3.102c-0.024,0.433,0.149,0.794,0.509,0.794c0.273,0,0.583-0.113,0.98-0.646
		c0.546-0.731,1.129-2.369,1.154-3.026c0.012-0.385-0.062-0.82-0.496-0.82C125.3,126.174,125.003,126.286,124.643,126.77"/>
	<path style="clip-path:url(#SVGID_00000174562584726704582810000014263855638978911130_);fill:#002361;" d="M130.496,126.435
		c-0.074,0.211-0.173,0.607-0.322,1.153c-0.372,1.39-0.707,2.581-1.104,3.946c-0.323,1.116-0.732,1.749-0.98,1.997
		c-0.186,0.174-0.757,0.67-1.489,0.67c-0.67,0-0.906-0.422-0.906-0.608c0-0.248,0.149-0.459,0.286-0.558
		c0.099-0.075,0.21-0.038,0.285,0.049c0.298,0.31,0.67,0.509,0.943,0.509c0.248,0,0.508-0.087,0.794-1.042
		c0.57-1.96,1.005-4.094,1.6-6.116h-1.03c-0.124-0.111-0.074-0.348,0.087-0.459h1.067c0.323-1.116,0.658-2.084,1.39-2.952
		c0.62-0.733,1.265-1.03,1.984-1.03c0.459,0,0.956,0.323,0.956,0.819c0,0.322-0.335,0.707-0.534,0.707
		c-0.111,0-0.161-0.112-0.173-0.198c-0.038-0.683-0.385-0.907-0.695-0.907c-0.273,0-0.608,0.249-0.893,0.67
		c-0.571,0.831-0.819,1.712-1.154,2.891h1.551c0.087,0.137,0.062,0.322-0.124,0.459H130.496z"/>
	<path style="clip-path:url(#SVGID_00000174562584726704582810000014263855638978911130_);fill:#002361;" d="M140.491,127.551
		c0.285,0.583,0.558,1.154,0.856,1.7h0.025c0.335-0.583,0.645-1.228,0.955-1.861l1.166-2.369c0.559-1.129,0.918-1.812,0.943-2.382
		c0.422,0.037,0.682,0.037,0.93,0.037c0.311,0,0.72-0.013,1.104-0.037c0.075,0.05,0.075,0.261,0.013,0.309l-0.261,0.026
		c-0.781,0.074-0.88,0.309-0.868,1.179c0.025,1.314,0.037,3.609,0.137,5.395c0.037,0.621,0.024,0.956,0.607,1.005l0.397,0.038
		c0.075,0.074,0.062,0.26-0.025,0.31c-0.508-0.025-1.017-0.037-1.463-0.037c-0.434,0-0.993,0.012-1.501,0.037
		c-0.087-0.062-0.1-0.236-0.025-0.31l0.36-0.038c0.608-0.062,0.608-0.26,0.608-1.054l-0.038-5.174h-0.024
		c-0.087,0.137-0.559,1.129-0.807,1.614l-1.104,2.171c-0.558,1.091-1.117,2.257-1.34,2.828c-0.025,0.037-0.074,0.05-0.124,0.05
		c-0.025,0-0.087-0.013-0.112-0.05c-0.21-0.658-0.806-1.873-1.091-2.481l-1.117-2.394c-0.26-0.571-0.521-1.216-0.794-1.786h-0.025
		c-0.049,0.768-0.087,1.488-0.124,2.208c-0.037,0.756-0.087,1.86-0.087,2.915c0,0.918,0.075,1.116,0.559,1.153l0.471,0.038
		c0.087,0.074,0.075,0.273-0.012,0.31c-0.422-0.025-0.906-0.037-1.377-0.037c-0.397,0-0.844,0.012-1.266,0.037
		c-0.074-0.062-0.099-0.248-0.025-0.31l0.273-0.038c0.521-0.074,0.695-0.148,0.769-1.017c0.075-0.819,0.137-1.501,0.211-2.729
		c0.062-1.029,0.112-2.084,0.137-2.767c0.025-0.781-0.075-0.968-0.831-1.066l-0.199-0.026c-0.062-0.074-0.049-0.259,0.05-0.309
		c0.372,0.024,0.67,0.037,0.98,0.037c0.285,0,0.62,0,1.03-0.037c-0.05,0.483,0.26,1.253,0.645,2.047L140.491,127.551z"/>
	<path style="clip-path:url(#SVGID_00000174562584726704582810000014263855638978911130_);fill:#002361;" d="M149.182,124.536
		c0-1.29-0.025-1.476-0.757-1.562l-0.198-0.026c-0.075-0.049-0.05-0.272,0.025-0.309c0.533,0.024,0.955,0.037,1.463,0.037h2.333
		c0.794,0,1.526,0,1.675-0.037c0.074,0.21,0.148,1.103,0.198,1.649c-0.05,0.075-0.248,0.1-0.31,0.025
		c-0.186-0.583-0.298-1.017-0.943-1.178c-0.26-0.063-0.657-0.075-1.203-0.075h-0.894c-0.372,0-0.372,0.025-0.372,0.497v2.48
		c0,0.348,0.038,0.348,0.41,0.348h0.719c0.521,0,0.906-0.025,1.055-0.075c0.149-0.049,0.236-0.124,0.298-0.434l0.099-0.508
		c0.062-0.075,0.273-0.075,0.322,0.012c0,0.298-0.049,0.782-0.049,1.253c0,0.447,0.049,0.918,0.049,1.191
		c-0.049,0.087-0.26,0.087-0.322,0.012l-0.112-0.484c-0.049-0.223-0.136-0.409-0.384-0.471c-0.174-0.05-0.472-0.062-0.956-0.062
		h-0.719c-0.372,0-0.41,0.012-0.41,0.335v1.749c0,0.657,0.038,1.079,0.236,1.29c0.149,0.149,0.409,0.285,1.501,0.285
		c0.955,0,1.315-0.049,1.588-0.185c0.223-0.124,0.558-0.559,0.881-1.204c0.087-0.062,0.26-0.025,0.31,0.087
		c-0.087,0.434-0.397,1.389-0.558,1.724c-1.117-0.024-2.221-0.037-3.325-0.037h-1.117c-0.533,0-0.955,0.013-1.687,0.037
		c-0.074-0.037-0.099-0.235-0.025-0.309l0.41-0.038c0.707-0.062,0.769-0.248,0.769-1.55V124.536z"/>
	<path style="clip-path:url(#SVGID_00000174562584726704582810000014263855638978911130_);fill:#002361;" d="M156.796,124.288
		c0-0.868-0.062-1.129-0.583-1.203l-0.273-0.037c-0.099-0.061-0.112-0.261,0.012-0.31c1.055-0.062,2.06-0.099,3.114-0.099
		c1.042,0,1.923,0.074,2.729,0.372c1.675,0.607,2.518,2.022,2.518,3.659c0,1.576-0.756,2.928-2.17,3.697
		c-0.807,0.434-1.824,0.596-2.779,0.596c-0.794,0-1.588-0.1-2.022-0.1c-0.521,0-0.968,0.013-1.551,0.038
		c-0.074-0.038-0.099-0.236-0.025-0.31l0.286-0.038c0.719-0.099,0.744-0.248,0.744-1.55V124.288z M157.813,128.717
		c0,0.658,0.038,1.055,0.248,1.353c0.273,0.384,0.745,0.508,1.526,0.508c2.407,0,3.486-1.575,3.486-3.882
		c0-1.366-0.657-3.672-3.907-3.672c-0.732,0-1.129,0.098-1.229,0.172c-0.099,0.076-0.124,0.385-0.124,0.944V128.717z"/>
	<path style="clip-path:url(#SVGID_00000174562584726704582810000014263855638978911130_);fill:#002361;" d="M166.716,124.562
		c0-1.315-0.025-1.526-0.757-1.588l-0.31-0.025c-0.074-0.049-0.05-0.273,0.025-0.31c0.62,0.025,1.042,0.037,1.563,0.037
		c0.496,0,0.918-0.012,1.538-0.037c0.075,0.037,0.1,0.261,0.025,0.31l-0.31,0.025c-0.732,0.062-0.757,0.273-0.757,1.588v4.416
		c0,1.315,0.025,1.488,0.757,1.575l0.31,0.038c0.075,0.049,0.05,0.273-0.025,0.31c-0.62-0.025-1.042-0.037-1.538-0.037
		c-0.521,0-0.943,0.012-1.563,0.037c-0.075-0.037-0.099-0.235-0.025-0.31l0.31-0.038c0.732-0.087,0.757-0.26,0.757-1.575V124.562z"
		/>
	<path style="clip-path:url(#SVGID_00000174562584726704582810000014263855638978911130_);fill:#002361;" d="M171.676,123.531
		c0.906-0.707,2.06-1.054,3.35-1.054c0.67,0,1.612,0.136,2.195,0.298c0.149,0.037,0.236,0.062,0.348,0.049
		c0.012,0.286,0.074,1.067,0.173,1.824c-0.062,0.087-0.248,0.099-0.335,0.025c-0.186-0.844-0.744-1.812-2.543-1.812
		c-1.898,0-3.51,1.204-3.51,3.772c0,2.605,1.65,4.044,3.684,4.044c1.6,0,2.307-1.042,2.593-1.774
		c0.087-0.062,0.273-0.037,0.322,0.05c-0.087,0.644-0.409,1.464-0.595,1.699c-0.149,0.025-0.298,0.074-0.434,0.124
		c-0.273,0.1-1.166,0.285-1.96,0.285c-1.117,0-2.184-0.222-3.089-0.831c-0.993-0.682-1.762-1.811-1.762-3.411
		C170.113,125.442,170.733,124.263,171.676,123.531"/>
	<path style="clip-path:url(#SVGID_00000174562584726704582810000014263855638978911130_);fill:#002361;" d="M180.405,124.562
		c0-1.315-0.025-1.526-0.757-1.588l-0.31-0.025c-0.074-0.049-0.05-0.273,0.025-0.31c0.62,0.025,1.042,0.037,1.563,0.037
		c0.496,0,0.918-0.012,1.538-0.037c0.075,0.037,0.1,0.261,0.025,0.31l-0.31,0.025c-0.732,0.062-0.757,0.273-0.757,1.588v4.416
		c0,1.315,0.025,1.488,0.757,1.575l0.31,0.038c0.075,0.049,0.05,0.273-0.025,0.31c-0.62-0.025-1.042-0.037-1.538-0.037
		c-0.521,0-0.943,0.012-1.563,0.037c-0.075-0.037-0.099-0.235-0.025-0.31l0.31-0.038c0.732-0.087,0.757-0.26,0.757-1.575V124.562z"
		/>
	<path style="clip-path:url(#SVGID_00000174562584726704582810000014263855638978911130_);fill:#002361;" d="M191.891,128.754
		c0,0.373,0,1.849,0.037,2.172c-0.025,0.074-0.099,0.136-0.236,0.136c-0.149-0.211-0.509-0.645-1.588-1.873l-2.878-3.276
		c-0.335-0.384-1.178-1.401-1.439-1.674h-0.024c-0.05,0.149-0.062,0.434-0.062,0.806v2.705c0,0.583,0.012,2.195,0.223,2.567
		c0.074,0.137,0.322,0.211,0.633,0.236l0.384,0.038c0.075,0.099,0.062,0.248-0.025,0.309c-0.558-0.024-0.992-0.037-1.451-0.037
		c-0.521,0-0.856,0.013-1.29,0.037c-0.087-0.061-0.099-0.235-0.025-0.309l0.335-0.038c0.285-0.037,0.484-0.112,0.546-0.248
		c0.173-0.447,0.161-1.96,0.161-2.555v-3.586c0-0.347-0.012-0.607-0.273-0.892c-0.174-0.174-0.471-0.261-0.769-0.298l-0.211-0.026
		c-0.074-0.074-0.074-0.259,0.025-0.309c0.521,0.037,1.178,0.037,1.402,0.037c0.198,0,0.409-0.013,0.57-0.037
		c0.248,0.633,1.712,2.27,2.122,2.729l1.203,1.352c0.856,0.955,1.463,1.65,2.047,2.245h0.024c0.05-0.062,0.05-0.26,0.05-0.521
		v-2.655c0-0.583-0.012-2.195-0.248-2.567c-0.075-0.112-0.273-0.187-0.769-0.248l-0.211-0.026c-0.087-0.074-0.075-0.272,0.025-0.309
		c0.57,0.024,0.992,0.037,1.463,0.037c0.534,0,0.856-0.013,1.278-0.037c0.1,0.061,0.1,0.235,0.025,0.309l-0.174,0.026
		c-0.397,0.061-0.645,0.161-0.694,0.26c-0.211,0.447-0.186,1.985-0.186,2.555V128.754z"/>
	<path style="clip-path:url(#SVGID_00000174562584726704582810000014263855638978911130_);fill:#002361;" d="M195.049,124.536
		c0-1.29-0.025-1.476-0.757-1.562l-0.198-0.026c-0.075-0.049-0.05-0.272,0.025-0.309c0.533,0.024,0.955,0.037,1.463,0.037h2.333
		c0.794,0,1.526,0,1.675-0.037c0.074,0.21,0.148,1.103,0.198,1.649c-0.05,0.075-0.248,0.1-0.31,0.025
		c-0.186-0.583-0.298-1.017-0.943-1.178c-0.26-0.063-0.657-0.075-1.203-0.075h-0.894c-0.372,0-0.372,0.025-0.372,0.497v2.48
		c0,0.348,0.038,0.348,0.41,0.348h0.719c0.521,0,0.906-0.025,1.055-0.075c0.149-0.049,0.236-0.124,0.298-0.434l0.099-0.508
		c0.062-0.075,0.273-0.075,0.322,0.012c0,0.298-0.049,0.782-0.049,1.253c0,0.447,0.049,0.918,0.049,1.191
		c-0.049,0.087-0.26,0.087-0.322,0.012l-0.112-0.484c-0.049-0.223-0.136-0.409-0.384-0.471c-0.174-0.05-0.472-0.062-0.956-0.062
		h-0.719c-0.372,0-0.41,0.012-0.41,0.335v1.749c0,0.657,0.038,1.079,0.236,1.29c0.149,0.149,0.409,0.285,1.501,0.285
		c0.955,0,1.315-0.049,1.588-0.185c0.223-0.124,0.558-0.559,0.881-1.204c0.087-0.062,0.26-0.025,0.31,0.087
		c-0.087,0.434-0.397,1.389-0.558,1.724c-1.117-0.024-2.221-0.037-3.325-0.037h-1.117c-0.533,0-0.955,0.013-1.687,0.037
		c-0.074-0.037-0.099-0.235-0.025-0.309l0.41-0.038c0.707-0.062,0.769-0.248,0.769-1.55V124.536z"/>
</g>
</svg>
