<?xml version="1.0" encoding="UTF-8" standalone="no"?>
<!-- Created with Inkscape (http://www.inkscape.org/) -->

<svg
   version="1.1"
   id="svg2"
   width="751.05334"
   height="193.21333"
   viewBox="0 0 751.05334 193.21333"
   sodipodi:docname="Neurosci Logo Reversed.eps"
   xmlns:inkscape="http://www.inkscape.org/namespaces/inkscape"
   xmlns:sodipodi="http://sodipodi.sourceforge.net/DTD/sodipodi-0.dtd"
   xmlns="http://www.w3.org/2000/svg"
   xmlns:svg="http://www.w3.org/2000/svg">
  <defs
     id="defs6" />
  <sodipodi:namedview
     id="namedview4"
     pagecolor="#ffffff"
     bordercolor="#000000"
     borderopacity="0.25"
     inkscape:showpageshadow="2"
     inkscape:pageopacity="0.0"
     inkscape:pagecheckerboard="0"
     inkscape:deskcolor="#d1d1d1" />
  <g
     id="g8"
     inkscape:groupmode="layer"
     inkscape:label="ink_ext_XXXXXX"
     transform="matrix(1.3333333,0,0,-1.3333333,0,193.21333)">
    <g
       id="g10"
       transform="scale(0.1)">
      <path
         d="m 220.48,1234.63 c 28.083,-27.18 50.012,-57 66.231,-95.23 C 351.637,986.441 280.273,809.832 127.328,744.914 89.0938,728.688 46.5781,720.152 7.5,720.09 v -0.996 C 124.742,719.246 236.262,650.434 284.949,535.73 332.887,422.801 306.531,296.98 227.91,212.738 l 1.871,-1.879 c 27.641,29.211 61.375,51.403 100.77,68.121 152.933,64.911 329.554,-6.449 394.484,-159.371 C 740.52,83.1016 748.246,45.2695 748.961,7.89844 l 2.898,-0.11719 C 759.586,116.98 826.816,218.059 934.512,263.77 1040.69,308.852 1161.19,286.75 1244.9,218.738 l 2.38,2.543 c -22.51,24.578 -41.29,53.34 -55.06,85.758 -64.91,152.938 6.44,329.566 159.4,394.492 33.17,14.086 67.46,21.754 101.48,23.559 l 0.27,0.015 c -117.23,-0.152 -228.76,68.657 -277.45,183.375 -48.68,114.72 -19.22,243.01 62.32,327.25 l -2.12,1.81 c -28.16,-30.66 -58.07,-52.06 -98.88,-69.38 -152.959,-64.91 -329.568,6.43 -394.498,159.38 -16.222,38.25 -22.14,77.79 -22.191,116.87 l 0.508,3.61 c -3.477,-113.73 -69.614,-219.91 -181.223,-267.28 -111.613,-47.39 -235.832,-22.19 -320.051,54.33"
         style="fill:none;stroke:#ffffff;stroke-width:15;stroke-linecap:butt;stroke-linejoin:miter;stroke-miterlimit:4;stroke-dasharray:none;stroke-opacity:1"
         id="path12" />
      <path
         d="m 981.645,724.617 c 0,-137.695 -112.391,-249.316 -251.047,-249.316 -138.657,0 -251.051,111.621 -251.051,249.316 0,137.699 112.394,249.324 251.051,249.324 138.656,0 251.047,-111.625 251.047,-249.324 z"
         style="fill:none;stroke:#ffffff;stroke-width:15;stroke-linecap:butt;stroke-linejoin:miter;stroke-miterlimit:4;stroke-dasharray:none;stroke-opacity:1"
         id="path14" />
      <path
         d="M 1452.58,724.879 H 5463.54"
         style="fill:none;stroke:#ffffff;stroke-width:15;stroke-linecap:butt;stroke-linejoin:miter;stroke-miterlimit:4;stroke-dasharray:none;stroke-opacity:1"
         id="path16" />
      <path
         d="m 1534.1,1377.82 c 0,9.14 0,9.44 -8.85,9.44 h -19.17 c -12.69,0 -28.91,-0.59 -36.29,-7.38 -7.08,-6.49 -10.03,-12.98 -13.27,-20.35 -2.36,-1.77 -6.49,-0.3 -7.67,2.06 4.72,13.28 9.14,32.16 11.21,43.95 0.88,0.6 4.72,0.89 5.6,0 1.77,-9.43 11.51,-9.14 25.08,-9.14 h 122.42 c 16.23,0 20.95,1.77 21.83,4.13 v 4.13 l 19.77,7.97 c 1.18,0 2.36,-0.59 2.95,-1.77 -0.3,-8.86 -0.89,-23.6 -0.89,-36.59 v -61.94 c 0,-2.66 0.3,-5.02 1.18,-5.61 10.62,8.26 24.78,15.34 39.83,15.34 28.02,0 38.05,-17.4 38.05,-38.05 v -49.27 c 0,-21.24 0.59,-24.48 11.21,-25.67 l 7.97,-0.88 c 2.06,-1.48 1.47,-6.49 -0.59,-7.37 -10.62,0.59 -19.18,0.88 -29.5,0.88 -10.62,0 -19.47,-0.29 -27.44,-0.88 -2.06,0.88 -2.65,5.89 -0.59,7.37 l 5.9,0.88 c 10.91,1.78 11.21,4.43 11.21,25.67 v 42.19 c 0,18.88 -9.14,31.56 -28.02,31.56 -10.03,0 -17.7,-3.54 -23.01,-7.97 -5.31,-4.42 -6.2,-5.89 -6.2,-16.22 v -49.56 c 0,-21.24 0.59,-24.19 11.21,-25.67 l 6.2,-0.88 c 2.06,-1.17 1.47,-6.49 -0.59,-7.37 -8.85,0.59 -17.4,0.88 -27.73,0.88 -10.62,0 -19.47,-0.29 -28.91,-0.88 -2.07,0.88 -2.66,5.89 -0.59,7.37 l 7.37,0.88 c 10.92,1.19 11.21,4.43 11.21,25.67 v 131.87 c 0,18.58 -6.78,20.65 -41.3,20.65 h -26.84 c -8.85,0 -8.56,-0.3 -8.56,-10.03 v -131.28 c 0,-30.97 0.59,-35.4 17.7,-36.88 l 9.44,-0.88 c 1.77,-1.17 1.18,-6.49 -0.59,-7.37 -16.81,0.59 -26.84,0.88 -38.64,0.88 -11.8,0 -22.13,-0.29 -41.01,-0.88 -1.77,0.88 -2.36,5.89 0,7.37 l 10.62,0.88 c 16.82,1.48 18.29,5.91 18.29,36.88 v 131.87"
         style="fill:#ffffff;fill-opacity:1;fill-rule:nonzero;stroke:none"
         id="path18" />
      <path
         d="m 1814.64,1286.07 c 21.83,0 28.32,1.18 30.69,2.95 0.88,0.59 1.76,1.77 1.76,5.61 0,8.26 -5.6,18.58 -22.71,18.58 -17.41,0 -32.45,-15.93 -32.75,-25.66 0,-0.59 0,-1.48 2.07,-1.48 z m -18.29,-8.85 c -7.67,0 -7.96,-0.59 -7.96,-7.97 0,-29.79 17.4,-55.16 48.97,-55.16 9.73,0 18,2.95 27.14,14.46 2.95,0.88 5.02,-0.89 5.31,-3.54 -9.74,-20.06 -30.98,-27.44 -46.32,-27.44 -19.17,0 -34.22,8.26 -42.77,19.47 -8.85,11.51 -12.39,25.37 -12.39,38.35 0,36.29 23.89,66.67 59.29,66.67 25.37,0 41.9,-17.4 41.9,-35.1 0,-4.14 -0.6,-6.5 -1.19,-7.67 -0.88,-1.77 -5.01,-2.07 -17.4,-2.07 h -54.58"
         style="fill:#ffffff;fill-opacity:1;fill-rule:nonzero;stroke:none"
         id="path20" />
      <path
         d="m 2008.75,1196.98 c -24.78,0 -40.42,7.67 -46.02,10.92 -3.54,6.49 -7.37,27.43 -7.96,41.3 1.48,2.06 5.9,2.65 7.08,0.88 4.42,-15.04 16.51,-43.95 50.73,-43.95 24.79,0 36.88,16.22 36.88,33.92 0,12.98 -2.66,27.44 -24.19,41.3 l -28.03,18.29 c -14.74,9.74 -31.85,26.56 -31.85,50.74 0,28.03 21.82,50.74 60.17,50.74 9.15,0 19.77,-1.77 27.44,-3.83 3.83,-1.18 7.96,-1.77 10.33,-1.77 2.65,-7.09 5.31,-23.6 5.31,-35.99 -1.18,-1.77 -5.9,-2.66 -7.38,-0.89 -3.83,14.16 -11.8,33.34 -40.12,33.34 -28.91,0 -35.1,-19.18 -35.1,-32.75 0,-17.11 14.16,-29.5 25.07,-36.28 l 23.6,-14.75 c 18.59,-11.51 36.88,-28.62 36.88,-56.65 0,-32.44 -24.49,-54.57 -62.84,-54.57"
         style="fill:#ffffff;fill-opacity:1;fill-rule:nonzero;stroke:none"
         id="path22" />
      <path
         d="m 2150.05,1313.21 c -19.47,0 -33.92,-18.58 -33.92,-51.03 0,-26.85 12.1,-55.76 38.05,-55.76 25.96,0 33.93,27.14 33.93,49.86 0,25.07 -10.03,56.93 -38.06,56.93 z m 63.43,-52.21 c 0,-36.87 -25.37,-63.43 -62.24,-63.43 -33.93,0 -60.48,23.9 -60.48,60.77 0,37.17 28.02,63.72 62.84,63.72 33.04,0 59.88,-24.78 59.88,-61.06"
         style="fill:#ffffff;fill-opacity:1;fill-rule:nonzero;stroke:none"
         id="path24" />
      <path
         d="m 2268.65,1234.74 c 0,-21.24 0.58,-24.19 11.21,-25.67 l 7.08,-0.88 c 2.06,-1.48 1.47,-6.49 -0.6,-7.37 -9.73,0.59 -18.29,0.88 -28.61,0.88 -10.62,0 -19.47,-0.29 -28.32,-0.88 -2.06,0.88 -2.66,5.89 -0.59,7.37 l 6.78,0.88 c 10.92,1.48 11.21,4.43 11.21,25.67 v 133.34 c 0,17.4 -0.29,19.18 -9.14,24.49 l -2.95,1.77 c -1.47,0.88 -1.47,5.01 0,5.9 7.37,2.35 21.24,6.78 31.86,12.39 1.18,0 2.36,-0.59 2.95,-1.77 -0.3,-8.86 -0.88,-23.6 -0.88,-36.59 v -139.53"
         style="fill:#ffffff;fill-opacity:1;fill-rule:nonzero;stroke:none"
         id="path26" />
      <path
         d="m 2360.39,1313.21 c -19.48,0 -33.93,-18.58 -33.93,-51.03 0,-26.85 12.1,-55.76 38.06,-55.76 25.95,0 33.92,27.14 33.92,49.86 0,25.07 -10.03,56.93 -38.05,56.93 z m 63.42,-52.21 c 0,-36.87 -25.37,-63.43 -62.24,-63.43 -33.93,0 -60.48,23.9 -60.48,60.77 0,37.17 28.03,63.72 62.84,63.72 33.04,0 59.88,-24.78 59.88,-61.06"
         style="fill:#ffffff;fill-opacity:1;fill-rule:nonzero;stroke:none"
         id="path28" />
      <path
         d="m 2616.45,1277.52 c 0,20.05 -8.86,30.38 -27.44,30.38 -11.21,0 -20.35,-5.01 -24.48,-10.33 -3.54,-4.42 -4.43,-7.37 -4.43,-17.69 v -45.14 c 0,-21.24 0.59,-24.19 11.21,-25.67 l 6.19,-0.88 c 2.08,-1.48 1.48,-6.49 -0.58,-7.37 -8.85,0.59 -17.4,0.88 -27.74,0.88 -10.61,0 -18.58,-0.29 -26.84,-0.88 -2.06,0.88 -2.66,5.89 -0.59,7.37 l 5.32,0.88 c 10.9,1.78 11.2,4.43 11.2,25.67 v 42.78 c 0,19.76 -8.85,30.38 -27.14,30.38 -12.09,0 -20.35,-5.31 -24.78,-10.62 -2.95,-3.54 -4.42,-7.37 -4.42,-16.82 v -45.72 c 0,-21.24 0.58,-23.89 11.21,-25.67 l 5.3,-0.88 c 2.07,-1.48 1.48,-6.49 -0.58,-7.37 -7.97,0.59 -16.53,0.88 -26.85,0.88 -10.61,0 -19.47,-0.29 -28.61,-0.88 -2.07,0.88 -2.66,5.89 -0.6,7.37 l 7.08,0.88 c 10.92,1.48 11.21,4.43 11.21,25.67 v 51.62 c 0,11.52 0,12.99 -7.96,18.3 l -2.65,1.77 c -1.18,1.18 -1.18,4.42 0.29,5.3 6.79,2.37 23.6,10.04 29.5,14.47 1.18,0 2.66,-0.6 3.24,-2.07 -0.58,-6.79 -0.58,-11.21 -0.58,-13.87 0,-1.77 1.18,-3.24 3.24,-3.24 11.21,7.96 25.08,15.04 39.24,15.04 14.75,0 23.01,-5.31 31.27,-17.4 2.65,-0.59 4.72,0.59 7.37,2.36 11.8,8.26 26.25,15.04 40.12,15.04 23.6,0 35.11,-16.22 35.11,-36.58 v -50.74 c 0,-21.24 0.58,-24.19 11.21,-25.67 l 7.08,-0.88 c 2.06,-1.48 1.47,-6.49 -0.59,-7.37 -9.73,0.59 -18.29,0.88 -28.62,0.88 -10.62,0 -18.59,-0.29 -26.85,-0.88 -2.06,0.88 -2.64,5.89 -0.58,7.37 l 5.31,0.88 c 10.91,1.78 11.21,4.43 11.21,25.67 v 42.78"
         style="fill:#ffffff;fill-opacity:1;fill-rule:nonzero;stroke:none"
         id="path30" />
      <path
         d="m 2730.01,1313.21 c -19.47,0 -33.92,-18.58 -33.92,-51.03 0,-26.85 12.1,-55.76 38.06,-55.76 25.95,0 33.92,27.14 33.92,49.86 0,25.07 -10.03,56.93 -38.06,56.93 z m 63.44,-52.21 c 0,-36.87 -25.38,-63.43 -62.25,-63.43 -33.93,0 -60.48,23.9 -60.48,60.77 0,37.17 28.03,63.72 62.84,63.72 33.04,0 59.89,-24.78 59.89,-61.06"
         style="fill:#ffffff;fill-opacity:1;fill-rule:nonzero;stroke:none"
         id="path32" />
      <path
         d="m 2829.72,1286.36 c 0,11.52 0,12.99 -7.95,18.3 l -2.66,1.77 c -1.19,1.18 -1.19,4.42 0.29,5.3 6.78,2.37 23.6,10.04 29.5,14.47 1.19,0 2.65,-0.6 3.24,-2.07 -0.59,-6.79 -0.59,-11.21 -0.59,-13.87 0,-1.77 1.19,-3.24 3.24,-3.24 12.41,7.66 26.27,15.04 41.31,15.04 24.48,0 34.52,-16.81 34.52,-36.58 v -50.74 c 0,-21.24 0.58,-24.19 11.21,-25.67 l 6.48,-0.88 c 2.07,-1.48 1.48,-6.49 -0.59,-7.37 -8.84,0.59 -17.4,0.88 -27.73,0.88 -10.61,0 -19.47,-0.29 -27.42,-0.88 -2.07,0.88 -2.66,5.89 -0.61,7.37 l 5.61,0.88 c 10.92,1.78 11.21,4.43 11.21,25.67 v 43.96 c 0,16.81 -7.66,29.2 -27.72,29.2 -11.21,0 -20.95,-4.72 -25.07,-10.33 -3.85,-5.01 -4.44,-9.14 -4.44,-17.69 v -45.14 c 0,-21.24 0.59,-23.89 11.21,-25.67 l 5.32,-0.88 c 2.07,-1.48 1.46,-6.49 -0.59,-7.37 -7.97,0.59 -16.52,0.88 -26.86,0.88 -10.6,0 -19.47,-0.29 -27.71,-0.88 -2.07,0.88 -2.66,5.89 -0.61,7.37 l 6.2,0.88 c 10.91,1.48 11.21,4.43 11.21,25.67 v 51.62"
         style="fill:#ffffff;fill-opacity:1;fill-rule:nonzero;stroke:none"
         id="path34" />
      <path
         d="m 3100.24,1296.98 c -14.16,0 -14.74,-0.58 -14.74,-9.43 v -41.6 c 0,-30.97 1.46,-35.1 17.99,-36.88 l 8.55,-0.88 c 1.78,-1.17 1.17,-6.49 -0.58,-7.37 -15.94,0.59 -25.96,0.88 -37.47,0.88 -12.69,0 -22.71,-0.59 -34.23,-0.88 -1.76,0.88 -2.35,5.6 -0.59,7.37 l 5.02,0.88 c 16.52,2.96 17.11,5.91 17.11,36.88 v 106.2 c 0,30.98 -2.07,35.99 -17.4,37.17 l -7.68,0.59 c -1.76,1.18 -1.17,6.49 0.59,7.38 14.47,-0.29 24.49,-0.89 37.18,-0.89 11.51,0 21.53,0.3 34.22,0.89 1.76,-0.89 2.35,-6.2 0.59,-7.38 l -5.61,-0.59 c -17.11,-1.77 -17.69,-6.19 -17.69,-37.17 v -33.92 c 0,-9.15 0.58,-9.44 14.74,-9.44 h 84.38 c 14.16,0 14.75,0.29 14.75,9.44 v 33.92 c 0,30.98 -0.59,35.4 -18.01,37.17 l -5.61,0.59 c -1.76,1.18 -1.17,6.49 0.61,7.38 13.55,-0.59 23.59,-0.89 35.68,-0.89 11.5,0 21.54,0.3 34.81,0.89 1.77,-0.89 2.36,-6.2 0.6,-7.38 l -6.19,-0.59 c -17.13,-1.77 -17.72,-6.19 -17.72,-37.17 v -106.2 c 0,-30.97 0.59,-34.81 17.72,-36.88 l 7.07,-0.88 c 1.78,-1.17 1.17,-6.49 -0.59,-7.37 -14.16,0.59 -24.2,0.88 -35.7,0.88 -12.09,0 -22.71,-0.29 -35.68,-0.88 -1.78,0.88 -2.37,5.6 -0.61,7.37 l 5.61,0.88 c 18.01,2.96 18.01,5.91 18.01,36.88 v 41.6 c 0,8.85 -0.59,9.43 -14.75,9.43 h -84.38"
         style="fill:#ffffff;fill-opacity:1;fill-rule:nonzero;stroke:none"
         id="path36" />
      <path
         d="m 3278.72,1213.8 c 0,10.02 7.07,17.4 16.52,17.4 10.02,0 16.53,-7.97 16.53,-17.4 0,-9.44 -6.51,-16.23 -16.53,-16.23 -8.55,0 -16.52,6.2 -16.52,16.23"
         style="fill:#ffffff;fill-opacity:1;fill-rule:nonzero;stroke:none"
         id="path38" />
      <path
         d="m 3466.04,1196.98 c -24.78,0 -40.42,7.67 -46.03,10.92 -3.54,6.49 -7.36,27.43 -7.95,41.3 1.47,2.06 5.9,2.65 7.07,0.88 4.43,-15.04 16.52,-43.95 50.74,-43.95 24.79,0 36.88,16.22 36.88,33.92 0,12.98 -2.66,27.44 -24.2,41.3 l -28.03,18.29 c -14.74,9.74 -31.85,26.56 -31.85,50.74 0,28.03 21.83,50.74 60.17,50.74 9.16,0 19.77,-1.77 27.44,-3.83 3.83,-1.18 7.97,-1.77 10.34,-1.77 2.65,-7.09 5.31,-23.6 5.31,-35.99 -1.19,-1.77 -5.9,-2.66 -7.39,-0.89 -3.82,14.16 -11.79,33.34 -40.11,33.34 -28.91,0 -35.1,-19.18 -35.1,-32.75 0,-17.11 14.16,-29.5 25.06,-36.28 L 3492,1308.2 c 18.58,-11.51 36.88,-28.62 36.88,-56.65 0,-32.44 -24.5,-54.57 -62.84,-54.57"
         style="fill:#ffffff;fill-opacity:1;fill-rule:nonzero;stroke:none"
         id="path40" />
      <path
         d="m 3563.1,1286.36 c 0,11.52 0,12.99 -7.97,18.3 l -2.66,1.77 c -1.17,1.18 -1.17,4.42 0.29,5.3 6.8,2.37 23.62,10.04 29.52,14.47 1.17,0 2.65,-0.6 3.24,-2.07 -0.59,-6.79 -0.59,-11.21 -0.59,-13.87 0,-1.77 1.17,-3.24 3.24,-3.24 12.39,7.66 26.25,15.04 41.29,15.04 24.5,0 34.53,-16.81 34.53,-36.58 v -50.74 c 0,-21.24 0.59,-24.19 11.2,-25.67 l 6.5,-0.88 c 2.05,-1.48 1.46,-6.49 -0.59,-7.37 -8.86,0.59 -17.42,0.88 -27.73,0.88 -10.63,0 -19.47,-0.29 -27.44,-0.88 -2.07,0.88 -2.66,5.89 -0.59,7.37 l 5.61,0.88 c 10.92,1.78 11.21,4.43 11.21,25.67 v 43.96 c 0,16.81 -7.68,29.2 -27.74,29.2 -11.21,0 -20.93,-4.72 -25.07,-10.33 -3.83,-5.01 -4.42,-9.14 -4.42,-17.69 v -45.14 c 0,-21.24 0.59,-23.89 11.21,-25.67 l 5.3,-0.88 c 2.07,-1.48 1.48,-6.49 -0.59,-7.37 -7.97,0.59 -16.52,0.88 -26.84,0.88 -10.62,0 -19.47,-0.29 -27.73,-0.88 -2.07,0.88 -2.66,5.89 -0.59,7.37 l 6.19,0.88 c 10.92,1.48 11.22,4.43 11.22,25.67 v 51.62"
         style="fill:#ffffff;fill-opacity:1;fill-rule:nonzero;stroke:none"
         id="path42" />
      <path
         d="m 3693.19,1140.93 c 0,7.97 5.32,11.8 11.8,11.8 h 5.61 c 4.72,0 7.67,2.07 9.72,5.31 8.56,13.28 14.46,25.67 17.11,32.75 0.9,2.36 2.95,8.55 2.95,12.68 0,5.9 -1.17,9.44 -5,20.35 l -23.01,63.14 c -5.02,13.86 -7.09,20.94 -17.42,23.01 l -7.36,1.47 c -1.78,1.48 -1.49,6.49 0.88,7.38 9.43,-0.59 18.3,-0.89 28.02,-0.89 7.97,0 16.23,0.3 25.67,0.89 2.36,-0.89 2.65,-5.9 0.58,-7.38 l -7.36,-1.47 c -4.14,-0.89 -6.5,-1.77 -6.5,-3.84 0,-3.54 6.79,-22.72 8.55,-27.73 l 9.45,-27.14 c 1.76,-4.72 7.37,-20.35 8.56,-20.94 0.88,0.59 5.6,9.73 10.92,21.82 l 10.02,23.31 c 6.48,15.34 10.33,26.26 10.33,29.5 0,2.07 -1.78,4.13 -7.09,5.02 l -9.14,1.47 c -2.07,1.48 -1.78,6.49 0.58,7.38 9.46,-0.59 18.31,-0.89 25.96,-0.89 7.38,0 14.16,0.3 22.42,0.89 2.37,-1.18 2.66,-5.61 0.59,-7.38 l -5,-0.88 c -9.75,-1.77 -15.06,-10.33 -25.08,-31.27 l -16.52,-33.93 c -9.73,-19.76 -33.93,-71.09 -48.38,-103.25 -5.02,-11.21 -12.09,-13.86 -18.89,-13.86 -8.55,0 -12.97,5.31 -12.97,12.68"
         style="fill:#ffffff;fill-opacity:1;fill-rule:nonzero;stroke:none"
         id="path44" />
      <path
         d="m 3913.86,1289.02 c 0,5.9 -1.19,8.55 -3.24,11.5 -4.44,6.2 -13.29,12.4 -24.79,12.4 -26.86,0 -40.72,-23.31 -40.72,-48.97 0,-26.85 15.06,-52.22 43.96,-52.22 7.97,0 17.99,3.54 22.72,8.26 1.77,1.77 2.07,6.2 2.07,10.92 z m 21.81,-44.25 c 0,-23.3 0.3,-34.22 8.56,-34.22 3.26,0 8.26,1.48 12.69,2.95 2.07,-0.59 2.37,-7.96 -0.29,-9.44 -12.4,-1.77 -30.68,-6.19 -38.94,-9.44 -1.78,0 -3.25,0.88 -3.25,2.36 v 5.02 c 0,4.42 0,7.96 -0.58,9.14 h -1.19 c -12.97,-8.85 -23.01,-13.57 -37.17,-13.57 -32.74,0 -54.57,25.66 -54.57,56.64 0,41.3 31.27,67.85 71.38,67.85 10.04,0 16.53,-1.47 19.77,-2.65 1.48,0 1.78,1.77 1.78,4.13 v 44.54 c 0,17.4 -0.3,19.18 -9.16,24.49 l -2.95,1.77 c -1.47,0.88 -1.47,5.01 0,5.9 7.38,2.35 21.25,6.78 31.87,12.39 1.17,0 2.35,-0.59 2.95,-1.77 -0.29,-8.86 -0.9,-23.6 -0.9,-36.59 v -129.5"
         style="fill:#ffffff;fill-opacity:1;fill-rule:nonzero;stroke:none"
         id="path46" />
      <path
         d="m 4014.44,1286.07 c 21.82,0 28.32,1.18 30.69,2.95 0.88,0.59 1.75,1.77 1.75,5.61 0,8.26 -5.6,18.58 -22.71,18.58 -17.4,0 -32.44,-15.93 -32.73,-25.66 0,-0.59 0,-1.48 2.05,-1.48 z m -18.3,-8.85 c -7.65,0 -7.97,-0.59 -7.97,-7.97 0,-29.79 17.43,-55.16 48.99,-55.16 9.72,0 17.99,2.95 27.13,14.46 2.95,0.88 5.02,-0.89 5.31,-3.54 -9.73,-20.06 -30.98,-27.44 -46.31,-27.44 -19.18,0 -34.22,8.26 -42.77,19.47 -8.85,11.51 -12.4,25.37 -12.4,38.35 0,36.29 23.9,66.67 59.29,66.67 25.37,0 41.9,-17.4 41.9,-35.1 0,-4.14 -0.59,-6.5 -1.18,-7.67 -0.89,-1.77 -5.01,-2.07 -17.4,-2.07 h -54.59"
         style="fill:#ffffff;fill-opacity:1;fill-rule:nonzero;stroke:none"
         id="path48" />
      <path
         d="m 4100.58,1286.36 c 0,11.52 0,12.99 -7.97,18.3 l -2.66,1.77 c -1.17,1.18 -1.17,4.42 0.29,5.3 6.8,2.37 22.43,10.04 29.81,14.47 1.46,-0.31 2.36,-0.9 2.36,-2.07 v -17.11 c 0,-1.48 0.3,-2.36 0.88,-2.66 10.33,8.56 21.54,17.7 32.44,17.7 7.39,0 13.28,-4.72 13.28,-11.8 0,-9.74 -7.97,-13.57 -12.67,-13.57 -2.95,0 -4.44,0.88 -6.51,2.07 -4.41,2.95 -8.84,4.72 -12.96,4.72 -4.73,0 -8.27,-2.66 -10.63,-5.91 -2.95,-4.12 -3.83,-12.68 -3.83,-22.71 v -40.12 c 0,-21.24 0.59,-24.78 11.8,-25.67 l 10.62,-0.88 c 2.05,-1.48 1.47,-6.49 -0.6,-7.37 -13.87,0.59 -22.42,0.88 -32.74,0.88 -10.62,0 -19.47,-0.29 -27.14,-0.88 -2.07,0.88 -2.66,5.89 -0.59,7.37 l 5.61,0.88 c 10.91,1.78 11.21,4.43 11.21,25.67 v 51.62"
         style="fill:#ffffff;fill-opacity:1;fill-rule:nonzero;stroke:none"
         id="path50" />
      <path
         d="m 1522.38,923.98 c 0,-19.082 1.08,-30.597 7.2,-39.238 7.92,-11.16 21.6,-14.758 44.28,-14.758 69.84,0 101.16,45.715 101.16,112.68 0,39.596 -19.08,106.556 -113.4,106.556 -21.24,0 -32.76,-2.88 -35.64,-5.04 -2.88,-2.16 -3.6,-11.16 -3.6,-27.36 z m -29.52,128.52 c 0,25.2 -1.8,32.76 -16.92,34.93 l -7.92,1.07 c -2.88,1.8 -3.24,7.56 0.36,9 30.6,1.8 59.76,2.88 90.37,2.88 30.23,0 55.79,-2.15 79.19,-10.8 48.6,-17.64 73.09,-58.68 73.09,-106.197 0,-45.719 -21.97,-84.961 -63.01,-107.281 -23.4,-12.598 -52.92,-17.282 -80.64,-17.282 -23.04,0 -46.08,2.883 -58.68,2.883 -15.12,0 -28.08,-0.363 -45,-1.082 -2.16,1.082 -2.88,6.844 -0.72,9 l 8.28,1.078 c 20.88,2.883 21.6,7.203 21.6,45 V 1052.5"
         style="fill:#ffffff;fill-opacity:1;fill-rule:nonzero;stroke:none"
         id="path52" />
      <path
         d="m 1790.94,964.66 c 26.64,0 34.56,1.442 37.44,3.606 1.08,0.714 2.16,2.156 2.16,6.836 0,10.082 -6.84,22.679 -27.72,22.679 -21.24,0 -39.6,-19.437 -39.96,-31.32 0,-0.715 0,-1.801 2.52,-1.801 z m -22.32,-10.801 c -9.36,0 -9.72,-0.718 -9.72,-9.714 0,-36.364 21.24,-67.321 59.76,-67.321 11.88,0 21.96,3.598 33.12,17.637 3.61,1.078 6.13,-1.078 6.49,-4.316 -11.89,-24.485 -37.81,-33.481 -56.53,-33.481 -23.4,0 -41.76,10.078 -52.2,23.758 -10.8,14.039 -15.12,30.961 -15.12,46.801 0,44.277 29.16,81.357 72.36,81.357 30.96,0 51.13,-21.24 51.13,-42.834 0,-5.047 -0.73,-7.922 -1.45,-9.363 -1.07,-2.16 -6.11,-2.524 -21.24,-2.524 h -66.6"
         style="fill:#ffffff;fill-opacity:1;fill-rule:nonzero;stroke:none"
         id="path54" />
      <path
         d="m 1918.02,898.063 c 0,-11.524 3.61,-15.84 10.8,-21.602 7.21,-5.398 18.36,-7.918 25.93,-7.918 29.51,0 46.8,27.359 46.8,64.801 0,28.797 -16.2,57.957 -48.61,57.957 -15.47,0 -26.64,-5.758 -30.59,-10.078 -3.24,-3.961 -4.33,-9.36 -4.33,-21.239 z m -26.64,66.96 c 0,14.043 0,15.84 -9.71,22.317 l -3.25,2.164 c -1.43,1.441 -1.43,5.402 0.36,6.48 9.37,3.961 26.28,12.596 35.65,19.436 2.16,0 3.59,-0.71 4.32,-2.52 -0.73,-6.48 -1.44,-11.88 -1.44,-16.56 0,-2.52 0.71,-4.676 3.23,-4.676 4.69,2.156 27.37,16.916 50.4,16.916 36.37,0 59.77,-29.514 59.77,-65.877 0,-50.039 -36.72,-86.039 -87.84,-86.039 -6.49,0 -16.57,0.715 -19.8,1.438 -3.24,-0.723 -5.05,-2.52 -5.05,-10.082 v -37.797 c 0,-25.563 0.73,-28.801 13.68,-30.602 l 14.05,-1.801 c 2.52,-1.797 1.79,-7.922 -0.73,-9 -17.27,0.723 -27.71,1.078 -40.32,1.078 -12.96,0 -23.76,-0.355 -33.84,-1.078 -2.52,1.078 -3.24,7.203 -0.72,9 l 7.57,1.078 c 13.32,1.801 13.67,5.403 13.67,31.325 v 154.8"
         style="fill:#ffffff;fill-opacity:1;fill-rule:nonzero;stroke:none"
         id="path56" />
      <path
         d="m 2102.7,872.863 c 7.21,0 18.36,5.403 21.96,9 4.32,4.321 4.32,9.36 4.68,16.918 l 0.72,21.242 c 0,3.957 -1.44,4.676 -3.6,4.676 -2.16,0 -8.28,-1.433 -14.76,-3.597 -21.24,-7.2 -31.68,-12.598 -31.68,-26.641 0,-6.117 4.32,-21.598 22.68,-21.598 z m 22.32,63.36 c 5.4,1.797 6.13,5.039 6.13,10.441 l 0.35,16.555 c 0.36,13.32 -3.96,31.324 -26.28,31.324 -10.08,0 -22.31,-5.039 -23.04,-16.199 -0.36,-5.762 -0.72,-10.078 -3.6,-12.242 -5.4,-4.317 -15.12,-6.84 -20.52,-6.84 -3.24,0 -5.04,1.801 -5.04,5.043 0,18.718 40.69,44.275 66.97,44.275 25.91,0 38.51,-15.115 37.44,-42.119 l -2.17,-62.641 c -0.71,-16.558 2.52,-31.316 16.56,-31.316 3.6,0 6.85,1.078 9.01,2.156 1.79,1.078 3.59,2.52 4.67,2.52 1.44,0 2.52,-2.157 2.52,-4.676 0,-1.805 -12.6,-15.84 -30.24,-15.84 -8.63,0 -17.28,3.234 -23.4,11.156 -1.44,2.164 -3.59,5.043 -5.76,5.043 -2.52,0 -6.84,-3.242 -14.04,-7.203 -7.91,-4.32 -15.83,-8.996 -25.91,-8.996 -10.45,0 -19.09,2.879 -25.21,8.281 -6.83,6.118 -11.16,15.118 -11.16,25.2 0,14.039 6.85,22.32 29.88,30.601 l 42.84,15.477"
         style="fill:#ffffff;fill-opacity:1;fill-rule:nonzero;stroke:none"
         id="path58" />
      <path
         d="m 2216.82,965.023 c 0,14.043 0,15.84 -9.73,22.317 l -3.23,2.164 c -1.44,1.441 -1.44,5.402 0.35,6.48 8.29,2.879 27.37,12.246 36.37,17.636 1.8,-0.35 2.88,-1.08 2.88,-2.52 v -20.877 c 0,-1.801 0.36,-2.883 1.08,-3.239 12.59,10.442 26.28,21.596 39.6,21.596 9,0 16.2,-5.76 16.2,-14.396 0,-11.883 -9.72,-16.559 -15.48,-16.559 -3.61,0 -5.4,1.078 -7.92,2.52 -5.4,3.597 -10.8,5.757 -15.84,5.757 -5.76,0 -10.08,-3.238 -12.96,-7.199 -3.6,-5.039 -4.68,-15.484 -4.68,-27.719 v -48.961 c 0,-25.921 0.71,-30.242 14.4,-31.324 l 12.96,-1.078 c 2.51,-1.801 1.8,-7.918 -0.72,-9 -16.92,0.719 -27.36,1.082 -39.96,1.082 -12.96,0 -23.76,-0.363 -33.12,-1.082 -2.52,1.082 -3.25,7.199 -0.73,9 l 6.85,1.078 c 13.32,2.164 13.68,5.403 13.68,31.324 v 63"
         style="fill:#ffffff;fill-opacity:1;fill-rule:nonzero;stroke:none"
         id="path60" />
      <path
         d="m 2365.13,988.422 c -6.12,0 -6.48,-1.082 -6.48,-8.641 v -67.316 c 0,-20.883 2.52,-39.961 26.28,-39.961 3.6,0 6.84,0.715 9.71,1.797 3.25,1.082 7.92,5.043 9.01,5.043 2.88,0 4.31,-3.961 3.6,-6.125 -6.48,-7.559 -19.44,-16.555 -37.8,-16.555 -30.96,0 -37.44,17.277 -37.44,38.875 v 82.441 c 0,9.723 -0.36,10.442 -7.56,10.442 h -10.08 c -2.16,1.437 -2.52,5.398 -1.08,7.562 10.44,3.239 19.44,7.916 23.03,11.156 4.69,4.32 11.53,14.04 15.13,21.24 1.8,0.73 6.11,0.73 7.56,-1.79 v -16.21 c 0,-6.48 0.36,-6.84 6.47,-6.84 h 39.96 c 4.33,-3.24 3.61,-12.958 0.37,-15.118 h -40.68"
         style="fill:#ffffff;fill-opacity:1;fill-rule:nonzero;stroke:none"
         id="path62" />
      <path
         d="m 2633.33,954.223 c 0,24.48 -10.81,37.078 -33.49,37.078 -13.67,0 -24.84,-6.117 -29.87,-12.598 -4.33,-5.398 -5.4,-8.996 -5.4,-21.601 v -55.079 c 0,-25.921 0.71,-29.519 13.68,-31.324 l 7.56,-1.078 c 2.52,-1.801 1.79,-7.918 -0.73,-9 -10.8,0.719 -21.24,1.082 -33.83,1.082 -12.96,0 -22.69,-0.363 -32.77,-1.082 -2.52,1.082 -3.24,7.199 -0.72,9 l 6.48,1.078 c 13.32,2.164 13.68,5.403 13.68,31.324 v 52.2 c 0,24.121 -10.8,37.078 -33.12,37.078 -14.76,0 -24.83,-6.481 -30.23,-12.957 -3.61,-4.324 -5.4,-9 -5.4,-20.52 v -55.801 c 0,-25.921 0.71,-29.16 13.67,-31.324 l 6.48,-1.078 c 2.52,-1.801 1.8,-7.918 -0.72,-9 -9.72,0.719 -20.16,1.082 -32.76,1.082 -12.95,0 -23.76,-0.363 -34.92,-1.082 -2.52,1.082 -3.24,7.199 -0.72,9 l 8.64,1.078 c 13.32,1.805 13.68,5.403 13.68,31.324 v 63 c 0,14.043 0,15.84 -9.72,22.317 l -3.23,2.164 c -1.45,1.441 -1.45,5.402 0.35,6.48 8.28,2.879 28.81,12.246 36,17.636 1.44,0 3.25,-0.72 3.96,-2.52 -0.71,-8.28 -0.71,-13.674 -0.71,-16.916 0,-2.161 1.43,-3.961 3.95,-3.961 13.68,9.722 30.61,18.357 47.88,18.357 18,0 28.09,-6.48 38.17,-21.24 3.23,-0.715 5.76,0.723 8.99,2.883 14.4,10.077 32.04,18.357 48.96,18.357 28.8,0 42.85,-19.799 42.85,-44.639 v -61.918 c 0,-25.921 0.71,-29.519 13.68,-31.324 l 8.63,-1.078 c 2.52,-1.801 1.81,-7.918 -0.71,-9 -11.89,0.719 -22.33,1.082 -34.92,1.082 -12.96,0 -22.69,-0.363 -32.77,-1.082 -2.52,1.082 -3.24,7.199 -0.72,9 l 6.48,1.078 c 13.32,2.164 13.69,5.403 13.69,31.324 v 52.2"
         style="fill:#ffffff;fill-opacity:1;fill-rule:nonzero;stroke:none"
         id="path64" />
      <path
         d="m 2756.08,964.66 c 26.64,0 34.55,1.442 37.45,3.606 1.07,0.714 2.14,2.156 2.14,6.836 0,10.082 -6.83,22.679 -27.72,22.679 -21.24,0 -39.6,-19.437 -39.95,-31.32 0,-0.715 0,-1.801 2.52,-1.801 z m -22.33,-10.801 c -9.35,0 -9.71,-0.718 -9.71,-9.714 0,-36.364 21.24,-67.321 59.75,-67.321 11.88,0 21.96,3.598 33.13,17.637 3.6,1.078 6.12,-1.078 6.49,-4.316 -11.9,-24.485 -37.81,-33.481 -56.53,-33.481 -23.4,0 -41.76,10.078 -52.2,23.758 -10.8,14.039 -15.12,30.961 -15.12,46.801 0,44.277 29.16,81.357 72.36,81.357 30.96,0 51.12,-21.24 51.12,-42.834 0,-5.047 -0.73,-7.922 -1.45,-9.363 -1.07,-2.16 -6.11,-2.524 -21.23,-2.524 h -66.61"
         style="fill:#ffffff;fill-opacity:1;fill-rule:nonzero;stroke:none"
         id="path66" />
      <path
         d="m 2861.2,965.023 c 0,14.043 0,15.84 -9.73,22.317 l -3.22,2.164 c -1.44,1.441 -1.44,5.402 0.35,6.48 8.28,2.879 28.81,12.246 36,17.636 1.44,0 3.24,-0.72 3.96,-2.52 -0.72,-8.28 -0.72,-13.674 -0.72,-16.916 0,-2.161 1.45,-3.961 3.97,-3.961 15.11,9.359 32.03,18.357 50.39,18.357 29.88,0 42.13,-20.517 42.13,-44.639 v -61.918 c 0,-25.921 0.72,-29.519 13.67,-31.324 l 7.93,-1.078 c 2.52,-1.801 1.79,-7.918 -0.72,-9 -10.81,0.719 -21.25,1.082 -33.85,1.082 -12.95,0 -23.75,-0.363 -33.48,-1.082 -2.52,1.082 -3.24,7.199 -0.72,9 l 6.83,1.078 c 13.32,2.164 13.7,5.403 13.7,31.324 v 53.637 c 0,20.524 -9.36,35.641 -33.85,35.641 -13.67,0 -25.55,-5.758 -30.59,-12.598 -4.69,-6.121 -5.41,-11.16 -5.41,-21.601 v -55.079 c 0,-25.921 0.72,-29.16 13.67,-31.324 l 6.49,-1.078 c 2.52,-1.801 1.79,-7.918 -0.72,-9 -9.71,0.719 -20.16,1.082 -32.76,1.082 -12.95,0 -23.75,-0.363 -33.85,-1.082 -2.52,1.082 -3.22,7.199 -0.7,9 l 7.56,1.078 c 13.32,1.805 13.67,5.403 13.67,31.324 v 63"
         style="fill:#ffffff;fill-opacity:1;fill-rule:nonzero;stroke:none"
         id="path68" />
      <path
         d="m 3076.12,988.422 c -6.13,0 -6.48,-1.082 -6.48,-8.641 v -67.316 c 0,-20.883 2.52,-39.961 26.27,-39.961 3.61,0 6.85,0.715 9.72,1.797 3.25,1.082 7.91,5.043 9.01,5.043 2.87,0 4.32,-3.961 3.59,-6.125 -6.48,-7.559 -19.43,-16.555 -37.79,-16.555 -30.96,0 -37.44,17.277 -37.44,38.875 v 82.441 c 0,9.723 -0.37,10.442 -7.56,10.442 h -10.08 c -2.17,1.437 -2.52,5.398 -1.09,7.562 10.45,3.239 19.45,7.916 23.04,11.156 4.69,4.32 11.53,14.04 15.12,21.24 1.8,0.73 6.11,0.73 7.56,-1.79 v -16.21 c 0,-6.48 0.37,-6.84 6.48,-6.84 h 39.97 c 4.31,-3.24 3.59,-12.958 0.35,-15.118 h -40.67"
         style="fill:#ffffff;fill-opacity:1;fill-rule:nonzero;stroke:none"
         id="path70" />
      <path
         d="m 3289.6,997.781 c -23.77,0 -41.41,-22.679 -41.41,-62.281 0,-32.758 14.77,-68.035 46.45,-68.035 31.68,0 41.39,33.117 41.39,60.84 0,30.597 -12.23,69.476 -46.43,69.476 z m 77.4,-63.722 c 0,-45 -30.97,-77.395 -75.97,-77.395 -41.39,0 -73.79,29.16 -73.79,74.16 0,45.36 34.2,77.756 76.68,77.756 40.31,0 73.08,-30.236 73.08,-74.521"
         style="fill:#ffffff;fill-opacity:1;fill-rule:nonzero;stroke:none"
         id="path72" />
      <path
         d="m 3442.96,988.422 c -6.13,0 -6.13,-0.719 -6.13,-10.442 v -75.957 c 0,-25.921 0.72,-30.242 13.69,-31.324 l 12.95,-1.078 c 2.52,-1.801 1.79,-7.918 -0.73,-9 -16.19,0.719 -26.64,1.082 -39.23,1.082 -12.95,0 -23.75,-0.363 -34.55,-1.082 -2.52,1.082 -3.25,7.199 -0.73,9 l 8.28,1.078 c 13.32,1.805 13.68,5.403 13.68,31.324 v 75.957 c 0,9.723 0,10.442 -7.19,10.442 h -12.6 c -2.17,1.437 -2.52,4.68 -1.09,6.84 l 15.48,7.558 c 2.88,1.44 5.4,3.6 5.4,7.2 0,20.88 2.52,43.21 11.17,63.36 9,20.52 29.16,45.73 64.78,45.73 19.08,0 35.3,-8.65 35.3,-21.61 0,-7.2 -6.84,-12.96 -13.7,-12.96 -3.94,0 -6.11,1.44 -8.63,4.32 -6.83,7.93 -16.91,15.85 -28.81,15.85 -11.15,0 -20.15,-6.85 -25.54,-19.8 -6.49,-16.57 -7.93,-42.85 -7.93,-60.84 v -10.45 c 0,-9.72 0,-10.08 6.13,-10.08 h 41.03 c 3.97,-3.595 1.45,-13.681 -2.52,-15.118 h -38.51"
         style="fill:#ffffff;fill-opacity:1;fill-rule:nonzero;stroke:none"
         id="path74" />
      <path
         d="m 3802.96,922.902 c 0,-10.8 0,-53.64 1.07,-63.004 -0.72,-2.156 -2.89,-3.957 -6.83,-3.957 -4.34,6.122 -14.77,18.719 -46.1,54.36 l -83.51,95.039 c -9.73,11.16 -34.2,40.68 -41.76,48.6 h -0.72 c -1.45,-4.32 -1.8,-12.6 -1.8,-23.4 v -78.477 c 0,-16.918 0.35,-63.719 6.48,-74.52 2.15,-3.961 9.36,-6.121 18.36,-6.844 l 11.16,-1.078 c 2.16,-2.879 1.79,-7.203 -0.73,-9 -16.19,0.719 -28.79,1.082 -42.11,1.082 -15.11,0 -24.84,-0.363 -37.44,-1.082 -2.52,1.797 -2.89,6.844 -0.72,9 l 9.73,1.078 c 8.28,1.082 14.02,3.242 15.84,7.203 5.04,12.961 4.66,56.879 4.66,74.161 V 1056.1 c 0,10.08 -0.35,17.64 -7.91,25.92 -5.03,5.04 -13.69,7.56 -22.32,8.64 l -6.11,0.72 c -2.17,2.16 -2.17,7.56 0.7,9 15.14,-1.08 34.2,-1.08 40.68,-1.08 5.77,0 11.9,0.36 16.57,1.08 7.2,-18.36 49.68,-65.88 61.56,-79.2 l 34.92,-39.239 c 24.84,-27.718 42.48,-47.882 59.4,-65.16 h 0.72 c 1.44,1.801 1.44,7.563 1.44,15.121 v 77.038 c 0,16.92 -0.37,63.72 -7.2,74.52 -2.15,3.24 -7.91,5.4 -22.33,7.2 l -6.11,0.72 c -2.52,2.16 -2.17,7.92 0.72,9 16.56,-0.72 28.79,-1.08 42.48,-1.08 15.47,0 24.85,0.36 37.07,1.08 2.89,-1.8 2.89,-6.84 0.72,-9 l -5.03,-0.72 c -11.53,-1.8 -18.72,-4.68 -20.16,-7.56 -6.11,-12.96 -5.39,-57.6 -5.39,-74.16 v -86.038"
         style="fill:#ffffff;fill-opacity:1;fill-rule:nonzero;stroke:none"
         id="path76" />
      <path
         d="m 3899.79,964.66 c 26.65,0 34.56,1.442 37.45,3.606 1.07,0.714 2.14,2.156 2.14,6.836 0,10.082 -6.83,22.679 -27.71,22.679 -21.25,0 -39.61,-19.437 -39.96,-31.32 0,-0.715 0,-1.801 2.52,-1.801 z m -22.32,-10.801 c -9.35,0 -9.73,-0.718 -9.73,-9.714 0,-36.364 21.25,-67.321 59.77,-67.321 11.87,0 21.95,3.598 33.12,17.637 3.6,1.078 6.12,-1.078 6.49,-4.316 -11.9,-24.485 -37.81,-33.481 -56.52,-33.481 -23.4,0 -41.76,10.078 -52.21,23.758 -10.8,14.039 -15.12,30.961 -15.12,46.801 0,44.277 29.16,81.357 72.36,81.357 30.96,0 51.12,-21.24 51.12,-42.834 0,-5.047 -0.72,-7.922 -1.45,-9.363 -1.07,-2.16 -6.11,-2.524 -21.23,-2.524 h -66.6"
         style="fill:#ffffff;fill-opacity:1;fill-rule:nonzero;stroke:none"
         id="path78" />
      <path
         d="m 4026.87,914.621 c 0,-24.84 6.11,-41.402 33.47,-41.402 9.73,0 21.25,3.961 29.16,10.801 4.69,4.324 7.21,9.722 7.21,20.878 v 59.043 c 0,23.399 -2.52,24.122 -13.32,28.438 l -4.69,1.805 c -2.52,1.437 -2.52,6.476 0.37,7.916 14.4,0.36 34.2,2.88 42.11,6.48 1.8,-0.35 2.89,-1.08 3.24,-2.52 -0.72,-6.837 -1.07,-17.997 -1.07,-31.318 v -60.48 c 0,-28.438 1.07,-39.239 11.15,-39.239 4.32,0 9.01,0.715 14.04,1.801 2.17,-1.801 2.52,-9.004 -0.35,-10.445 -14.04,-2.875 -34.92,-6.481 -47.16,-13.316 -1.8,0 -3.6,1.082 -4.32,2.519 v 14.762 c 0,3.238 -1.09,5.039 -3.24,5.039 -10.8,-6.84 -28.44,-18.719 -49.69,-18.719 -31.68,0 -43.56,15.84 -43.56,45 v 60.121 c 0,22.676 0,25.918 -10.8,30.594 l -4.31,1.805 c -2.17,1.8 -1.8,6.836 0.72,7.916 16.56,0.36 30.59,3.6 38.52,6.48 2.16,-0.35 3.24,-1.08 3.59,-2.52 -0.72,-6.115 -1.07,-13.681 -1.07,-31.318 v -60.121"
         style="fill:#ffffff;fill-opacity:1;fill-rule:nonzero;stroke:none"
         id="path80" />
      <path
         d="m 4185.62,965.023 c 0,14.043 0,15.84 -9.73,22.317 l -3.22,2.164 c -1.45,1.441 -1.45,5.402 0.35,6.48 8.28,2.879 27.36,12.246 36.36,17.636 1.8,-0.35 2.88,-1.08 2.88,-2.52 v -20.877 c 0,-1.801 0.37,-2.883 1.07,-3.239 12.6,10.442 26.29,21.596 39.61,21.596 9,0 16.19,-5.76 16.19,-14.396 0,-11.883 -9.71,-16.559 -15.47,-16.559 -3.61,0 -5.41,1.078 -7.93,2.52 -5.39,3.597 -10.8,5.757 -15.84,5.757 -5.76,0 -10.08,-3.238 -12.95,-7.199 -3.61,-5.039 -4.68,-15.484 -4.68,-27.719 v -48.961 c 0,-25.921 0.72,-30.242 14.39,-31.324 l 12.97,-1.078 c 2.52,-1.801 1.8,-7.918 -0.72,-9 -16.92,0.719 -27.37,1.082 -39.96,1.082 -12.95,0 -23.75,-0.363 -33.13,-1.082 -2.52,1.082 -3.24,7.199 -0.72,9 l 6.85,1.078 c 13.32,2.164 13.68,5.403 13.68,31.324 v 63"
         style="fill:#ffffff;fill-opacity:1;fill-rule:nonzero;stroke:none"
         id="path82" />
      <path
         d="m 4349.05,997.781 c -23.75,0 -41.38,-22.679 -41.38,-62.281 0,-32.758 14.74,-68.035 46.42,-68.035 31.68,0 41.41,33.117 41.41,60.84 0,30.597 -12.25,69.476 -46.45,69.476 z m 77.41,-63.722 c 0,-45 -30.96,-77.395 -75.96,-77.395 -41.41,0 -73.81,29.16 -73.81,74.16 0,45.36 34.2,77.756 76.68,77.756 40.33,0 73.09,-30.236 73.09,-74.521"
         style="fill:#ffffff;fill-opacity:1;fill-rule:nonzero;stroke:none"
         id="path84" />
      <path
         d="m 4534.09,1002.1 c 3.24,-7.916 5.76,-19.436 5.76,-29.159 -1.44,-2.519 -6.83,-3.234 -8.63,-1.078 -6.13,15.84 -16.93,26.278 -31.68,26.278 -14.04,0 -23.05,-8.996 -23.05,-21.957 0,-14.762 15.12,-22.68 27.72,-29.883 19.08,-10.801 36.72,-23.035 36.72,-48.598 0,-27.359 -25.2,-41.039 -51.84,-41.039 -16.91,0 -29.51,3.598 -38.51,10.801 -2.89,6.836 -5.04,24.476 -4.32,36.355 1.8,2.164 6.46,2.52 8.28,0.364 6.11,-19.801 17.64,-37.082 38.15,-37.082 12.96,0 24.12,7.558 24.12,23.043 0,16.558 -14.4,25.554 -27.72,33.121 -20.88,11.879 -35.64,24.476 -35.64,44.277 0,26.277 21.6,41.037 48.96,41.037 15.12,0 28.44,-3.6 31.68,-6.48"
         style="fill:#ffffff;fill-opacity:1;fill-rule:nonzero;stroke:none"
         id="path86" />
      <path
         d="m 4680.24,1002.46 c 2.89,-2.515 5.41,-8.276 5.41,-14.397 0,-6.477 -3.59,-13.321 -7.93,-13.321 -1.79,0 -3.59,0.719 -5.03,2.52 -7.91,9.722 -21.23,19.078 -36,19.078 -25.2,0 -49.69,-19.801 -49.69,-57.957 0,-28.082 19.46,-61.559 57.97,-61.559 20.88,0 31.68,9.36 39.96,21.598 2.87,0.723 6.11,-1.797 6.49,-5.039 -12.25,-26.641 -39.24,-36.719 -60.12,-36.719 -19.08,0 -36.74,6.117 -49.34,18.359 -12.59,12.239 -20.88,29.875 -20.88,53.282 0,38.875 27.37,80.275 87.13,80.275 8.28,0 22.33,-1.79 32.03,-6.12"
         style="fill:#ffffff;fill-opacity:1;fill-rule:nonzero;stroke:none"
         id="path88" />
      <path
         d="m 4753.68,1067.63 c 0,-12.97 -8.98,-18.73 -19.06,-18.73 -11.17,0 -18.36,8.28 -18.36,18 0,11.88 8.63,19.44 19.43,19.44 10.8,0 17.99,-8.64 17.99,-18.71 z m -29.86,-102.607 c 0,14.043 0,15.84 -9.73,22.317 l -3.24,2.164 c -1.45,1.441 -1.45,5.402 0.35,6.48 8.28,2.879 28.81,12.246 37.09,17.636 1.8,0 3.24,-0.72 3.59,-2.16 -0.72,-12.597 -1.42,-29.874 -1.42,-44.636 v -64.801 c 0,-25.921 0.7,-29.519 13.67,-31.324 l 7.56,-1.078 c 2.52,-1.801 1.8,-7.918 -0.72,-9 -10.8,0.719 -21.23,1.082 -33.83,1.082 -12.97,0 -23.77,-0.363 -33.85,-1.082 -2.52,1.082 -3.24,7.199 -0.72,9 l 7.56,1.078 c 13.32,1.805 13.69,5.403 13.69,31.324 v 63"
         style="fill:#ffffff;fill-opacity:1;fill-rule:nonzero;stroke:none"
         id="path90" />
      <path
         d="m 4846.57,964.66 c 26.64,0 34.55,1.442 37.44,3.606 1.08,0.714 2.15,2.156 2.15,6.836 0,10.082 -6.83,22.679 -27.71,22.679 -21.25,0 -39.61,-19.437 -39.96,-31.32 0,-0.715 0,-1.801 2.52,-1.801 z m -22.32,-10.801 c -9.36,0 -9.73,-0.718 -9.73,-9.714 0,-36.364 21.25,-67.321 59.77,-67.321 11.87,0 21.95,3.598 33.12,17.637 3.6,1.078 6.12,-1.078 6.49,-4.316 -11.9,-24.485 -37.82,-33.481 -56.53,-33.481 -23.4,0 -41.75,10.078 -52.2,23.758 -10.8,14.039 -15.12,30.961 -15.12,46.801 0,44.277 29.16,81.357 72.36,81.357 30.96,0 51.12,-21.24 51.12,-42.834 0,-5.047 -0.73,-7.922 -1.45,-9.363 -1.07,-2.16 -6.11,-2.524 -21.23,-2.524 h -66.6"
         style="fill:#ffffff;fill-opacity:1;fill-rule:nonzero;stroke:none"
         id="path92" />
      <path
         d="m 4951.69,965.023 c 0,14.043 0,15.84 -9.73,22.317 l -3.24,2.164 c -1.44,1.441 -1.44,5.402 0.35,6.48 8.28,2.879 28.81,12.246 36.02,17.636 1.42,0 3.24,-0.72 3.94,-2.52 -0.7,-8.28 -0.7,-13.674 -0.7,-16.916 0,-2.161 1.43,-3.961 3.95,-3.961 15.11,9.359 32.05,18.357 50.41,18.357 29.88,0 42.1,-20.517 42.1,-44.639 v -61.918 c 0,-25.921 0.73,-29.519 13.7,-31.324 l 7.91,-1.078 c 2.52,-1.801 1.79,-7.918 -0.73,-9 -10.8,0.719 -21.23,1.082 -33.82,1.082 -12.97,0 -23.77,-0.363 -33.48,-1.082 -2.52,1.082 -3.24,7.199 -0.72,9 l 6.83,1.078 c 13.32,2.164 13.67,5.403 13.67,31.324 v 53.637 c 0,20.524 -9.35,35.641 -33.82,35.641 -13.7,0 -25.57,-5.758 -30.61,-12.598 -4.69,-6.121 -5.39,-11.16 -5.39,-21.601 v -55.079 c 0,-25.921 0.7,-29.16 13.67,-31.324 l 6.49,-1.078 c 2.52,-1.801 1.79,-7.918 -0.73,-9 -9.72,0.719 -20.15,1.082 -32.75,1.082 -12.97,0 -23.77,-0.363 -33.85,-1.082 -2.52,1.082 -3.24,7.199 -0.72,9 l 7.56,1.078 c 13.32,1.805 13.69,5.403 13.69,31.324 v 63"
         style="fill:#ffffff;fill-opacity:1;fill-rule:nonzero;stroke:none"
         id="path94" />
      <path
         d="m 5233.92,1002.46 c 2.89,-2.515 5.41,-8.276 5.41,-14.397 0,-6.477 -3.6,-13.321 -7.93,-13.321 -1.8,0 -3.6,0.719 -5.04,2.52 -7.91,9.722 -21.23,19.078 -36,19.078 -25.19,0 -49.69,-19.801 -49.69,-57.957 0,-28.082 19.46,-61.559 57.97,-61.559 20.88,0 31.68,9.36 39.96,21.598 2.87,0.723 6.12,-1.797 6.49,-5.039 -12.25,-26.641 -39.24,-36.719 -60.12,-36.719 -19.08,0 -36.74,6.117 -49.34,18.359 -12.59,12.239 -20.87,29.875 -20.87,53.282 0,38.875 27.36,80.275 87.12,80.275 8.29,0 22.33,-1.79 32.04,-6.12"
         style="fill:#ffffff;fill-opacity:1;fill-rule:nonzero;stroke:none"
         id="path96" />
      <path
         d="m 5311.32,964.66 c 26.64,0 34.57,1.442 37.44,3.606 1.07,0.714 2.17,2.156 2.17,6.836 0,10.082 -6.84,22.679 -27.74,22.679 -21.23,0 -39.59,-19.437 -39.94,-31.32 0,-0.715 0,-1.801 2.52,-1.801 z m -22.33,-10.801 c -9.35,0 -9.7,-0.718 -9.7,-9.714 0,-36.364 21.23,-67.321 59.74,-67.321 11.9,0 21.98,3.598 33.13,17.637 3.61,1.078 6.13,-1.078 6.48,-4.316 -11.87,-24.485 -37.79,-33.481 -56.52,-33.481 -23.4,0 -41.76,10.078 -52.19,23.758 -10.8,14.039 -15.14,30.961 -15.14,46.801 0,44.277 29.17,81.357 72.37,81.357 30.96,0 51.13,-21.24 51.13,-42.834 0,-5.047 -0.72,-7.922 -1.44,-9.363 -1.08,-2.16 -6.12,-2.524 -21.25,-2.524 h -66.61"
         style="fill:#ffffff;fill-opacity:1;fill-rule:nonzero;stroke:none"
         id="path98" />
      <path
         d="m 1539.92,484.988 c 0,-24.14 0.46,-27.597 13.8,-28.75 l 7.36,-0.683 c 1.38,-0.918 0.92,-5.071 -0.46,-5.742 -13.11,0.449 -20.93,0.671 -30.13,0.671 -9.2,0 -17.25,-0.222 -31.97,-0.671 -1.38,0.671 -1.84,4.589 0,5.742 l 8.28,0.683 c 13.11,1.153 14.26,4.61 14.26,28.75 v 102.813 c 0,7.133 0,7.363 -6.9,7.363 h -12.65 c -9.89,0 -22.54,-0.457 -28.29,-5.75 -5.52,-5.062 -7.82,-10.121 -10.35,-15.871 -1.84,-1.383 -5.06,-0.23 -5.98,1.609 3.68,10.348 7.13,25.071 8.74,34.27 0.69,0.457 3.68,0.691 4.37,0 1.38,-7.359 8.97,-7.129 19.55,-7.129 h 93.15 c 12.42,0 14.49,0.457 17.94,6.441 1.15,0.457 3.68,0.227 4.14,-0.691 -2.53,-9.434 -4.14,-28.059 -3.45,-34.961 -0.92,-1.84 -4.83,-1.84 -5.98,-0.461 -0.69,5.75 -2.3,14.262 -5.75,16.793 -5.29,3.91 -14.03,5.75 -26.68,5.75 h -16.33 c -6.9,0 -6.67,-0.23 -6.67,-7.824 V 484.988"
         style="fill:#ffffff;fill-opacity:1;fill-rule:nonzero;stroke:none"
         id="path100" />
      <path
         d="m 1664.58,524.781 c -11.04,0 -11.5,-0.468 -11.5,-7.351 v -32.442 c 0,-24.14 1.14,-27.363 14.02,-28.75 l 6.67,-0.683 c 1.39,-0.918 0.93,-5.071 -0.45,-5.742 -12.42,0.449 -20.24,0.671 -29.21,0.671 -9.9,0 -17.71,-0.457 -26.68,-0.671 -1.39,0.671 -1.84,4.355 -0.46,5.742 l 3.9,0.683 c 12.88,2.305 13.34,4.61 13.34,28.75 v 82.801 c 0,24.152 -1.6,28.063 -13.57,28.981 l -5.98,0.464 c -1.37,0.918 -0.91,5.059 0.47,5.746 11.27,-0.23 19.08,-0.687 28.98,-0.687 8.97,0 16.79,0.23 26.68,0.687 1.38,-0.687 1.84,-4.828 0.46,-5.746 l -4.37,-0.464 c -13.34,-1.375 -13.8,-4.829 -13.8,-28.981 v -26.445 c 0,-7.129 0.46,-7.364 11.5,-7.364 h 65.78 c 11.04,0 11.5,0.235 11.5,7.364 v 26.445 c 0,24.152 -0.46,27.606 -14.03,28.981 l -4.37,0.464 c -1.38,0.918 -0.92,5.059 0.46,5.746 10.58,-0.457 18.4,-0.687 27.83,-0.687 8.97,0 16.79,0.23 27.14,0.687 1.38,-0.687 1.84,-4.828 0.46,-5.746 l -4.83,-0.464 c -13.34,-1.375 -13.8,-4.829 -13.8,-28.981 v -82.801 c 0,-24.14 0.46,-27.129 13.8,-28.75 l 5.52,-0.683 c 1.38,-0.918 0.92,-5.071 -0.46,-5.742 -11.04,0.449 -18.86,0.671 -27.83,0.671 -9.43,0 -17.71,-0.222 -27.83,-0.671 -1.38,0.671 -1.84,4.355 -0.46,5.742 l 4.37,0.683 c 14.03,2.305 14.03,4.61 14.03,28.75 v 32.442 c 0,6.883 -0.46,7.351 -11.5,7.351 h -65.78"
         style="fill:#ffffff;fill-opacity:1;fill-rule:nonzero;stroke:none"
         id="path102" />
      <path
         d="m 1817.29,567.789 c 0,23.922 -0.45,27.375 -14.02,28.981 l -3.69,0.464 c -1.37,0.918 -0.91,5.059 0.47,5.746 9.89,-0.457 17.71,-0.687 27.14,-0.687 h 43.24 c 14.72,0 28.29,0 31.05,0.687 1.38,-3.906 2.76,-20.468 3.68,-30.589 -0.92,-1.379 -4.6,-1.836 -5.75,-0.461 -3.45,10.812 -5.52,18.863 -17.48,21.851 -4.83,1.153 -12.19,1.383 -22.31,1.383 h -16.56 c -6.9,0 -6.9,-0.457 -6.9,-9.199 v -45.996 c 0,-6.446 0.69,-6.446 7.59,-6.446 h 13.33 c 9.67,0 16.8,0.457 19.56,1.375 2.76,0.918 4.37,2.297 5.52,8.047 l 1.84,9.434 c 1.15,1.383 5.06,1.383 5.98,-0.227 0,-5.515 -0.92,-14.5 -0.92,-23.218 0,-8.282 0.92,-17.032 0.92,-22.09 -0.92,-1.614 -4.83,-1.614 -5.98,-0.235 l -2.07,8.985 c -0.92,4.129 -2.53,7.578 -7.14,8.719 -3.21,0.917 -8.74,1.164 -17.71,1.164 h -13.33 c -6.9,0 -7.59,-0.247 -7.59,-6.211 v -32.422 c 0,-12.199 0.69,-20.031 4.37,-23.926 2.76,-2.773 7.59,-5.293 27.83,-5.293 17.71,0 24.38,0.918 29.44,3.457 4.14,2.285 10.35,10.352 16.33,22.305 1.61,1.14 4.83,0.457 5.75,-1.614 -1.61,-8.046 -7.36,-25.75 -10.35,-31.96 -20.7,0.449 -41.17,0.671 -61.64,0.671 h -20.7 c -9.9,0 -17.71,-0.222 -31.28,-0.671 -1.38,0.671 -1.84,4.355 -0.47,5.742 l 7.6,0.683 c 13.11,1.153 14.25,4.61 14.25,28.75 v 82.801"
         style="fill:#ffffff;fill-opacity:1;fill-rule:nonzero;stroke:none"
         id="path104" />
      <path
         d="m 2007.96,567.332 c 0,25.531 -2.3,28.289 -15.87,29.438 l -5.75,0.464 c -1.38,0.918 -0.92,5.059 0.46,5.746 13.34,-0.457 21.16,-0.687 30.82,-0.687 9.21,0 17.02,0.23 26.22,0.687 1.38,-0.687 1.84,-4.828 0.46,-5.746 l -3.45,-0.464 c -13.56,-1.836 -14.02,-5.059 -14.02,-29.438 V 482 c 0,-18.164 -0.93,-34.039 -5.3,-44.609 -7.58,-18.411 -23.92,-33.121 -45.31,-33.121 -2.76,0 -9.89,0.23 -9.89,4.832 0,3.898 3.46,10.578 8.28,10.578 2.76,0 5.52,-0.469 8.52,-1.399 3.21,-0.922 6.44,-1.59 9.65,-1.59 4.83,0 7.59,2.75 9.2,5.957 5.3,10.821 5.98,45.329 5.98,57.75 v 86.934"
         style="fill:#ffffff;fill-opacity:1;fill-rule:nonzero;stroke:none"
         id="path106" />
      <path
         d="m 2201.4,519.949 c 0,37.953 -16.8,78.891 -60.73,78.891 -23.92,0 -54.97,-16.328 -54.97,-66.695 0,-34.043 16.57,-78.204 61.87,-78.204 27.61,0 53.83,20.704 53.83,66.008 z m -138.69,4.832 c 0,46.004 34.49,81.192 81.87,81.192 53.13,0 79.81,-38.41 79.81,-78.895 0,-46.445 -35.42,-80.269 -79.81,-80.269 -51.05,0 -81.87,36.578 -81.87,77.972"
         style="fill:#ffffff;fill-opacity:1;fill-rule:nonzero;stroke:none"
         id="path108" />
      <path
         d="m 2292.47,524.781 c -11.04,0 -11.5,-0.468 -11.5,-7.351 v -32.442 c 0,-24.14 1.15,-27.363 14.03,-28.75 l 6.67,-0.683 c 1.38,-0.918 0.92,-5.071 -0.46,-5.742 -12.42,0.449 -20.24,0.671 -29.21,0.671 -9.89,0 -17.71,-0.457 -26.68,-0.671 -1.38,0.671 -1.84,4.355 -0.46,5.742 l 3.91,0.683 c 12.88,2.305 13.34,4.61 13.34,28.75 v 82.801 c 0,24.152 -1.61,28.063 -13.57,28.981 l -5.98,0.464 c -1.38,0.918 -0.92,5.059 0.46,5.746 11.27,-0.23 19.09,-0.687 28.98,-0.687 8.97,0 16.79,0.23 26.68,0.687 1.38,-0.687 1.84,-4.828 0.46,-5.746 l -4.37,-0.464 c -13.34,-1.375 -13.8,-4.829 -13.8,-28.981 v -26.445 c 0,-7.129 0.46,-7.364 11.5,-7.364 h 65.78 c 11.04,0 11.5,0.235 11.5,7.364 v 26.445 c 0,24.152 -0.46,27.606 -14.03,28.981 l -4.37,0.464 c -1.38,0.918 -0.92,5.059 0.46,5.746 10.58,-0.457 18.4,-0.687 27.83,-0.687 8.97,0 16.8,0.23 27.14,0.687 1.38,-0.687 1.84,-4.828 0.46,-5.746 l -4.83,-0.464 c -13.34,-1.375 -13.8,-4.829 -13.8,-28.981 v -82.801 c 0,-24.14 0.46,-27.129 13.8,-28.75 l 5.52,-0.683 c 1.38,-0.918 0.92,-5.071 -0.45,-5.742 -11.04,0.449 -18.87,0.671 -27.84,0.671 -9.43,0 -17.71,-0.222 -27.83,-0.671 -1.38,0.671 -1.84,4.355 -0.46,5.742 l 4.37,0.683 c 14.03,2.305 14.03,4.61 14.03,28.75 v 32.442 c 0,6.883 -0.46,7.351 -11.5,7.351 h -65.78"
         style="fill:#ffffff;fill-opacity:1;fill-rule:nonzero;stroke:none"
         id="path110" />
      <path
         d="m 2568.94,489.598 c 0,-6.907 0,-34.289 0.68,-40.254 -0.46,-1.383 -1.84,-2.535 -4.37,-2.535 -2.76,3.921 -9.43,11.968 -29.44,34.742 l -53.36,60.722 c -6.21,7.118 -21.84,25.981 -26.68,31.04 h -0.46 c -0.92,-2.758 -1.15,-8.051 -1.15,-14.95 V 508.23 c 0,-10.832 0.23,-40.714 4.14,-47.628 1.38,-2.528 5.99,-3.895 11.73,-4.364 l 7.13,-0.683 c 1.38,-1.836 1.15,-4.61 -0.46,-5.742 -10.34,0.449 -18.4,0.671 -26.91,0.671 -9.66,0 -15.87,-0.222 -23.92,-0.671 -1.61,1.132 -1.84,4.355 -0.46,5.742 l 6.21,0.683 c 5.29,0.703 8.97,2.078 10.12,4.61 3.22,8.281 3,36.336 3,47.382 v 66.461 c 0,6.438 -0.24,11.274 -5.07,16.563 -3.22,3.215 -8.74,4.828 -14.26,5.516 l -3.91,0.464 c -1.38,1.375 -1.38,4.829 0.46,5.746 9.66,-0.687 21.85,-0.687 25.99,-0.687 3.68,0 7.6,0.23 10.59,0.687 4.59,-11.726 31.73,-42.089 39.32,-50.601 l 22.32,-25.066 c 15.86,-17.708 27.13,-30.586 37.95,-41.622 h 0.45 c 0.92,1.153 0.92,4.825 0.92,9.649 v 49.226 c 0,10.809 -0.22,40.704 -4.6,47.606 -1.37,2.07 -5.06,3.449 -14.26,4.598 l -3.91,0.464 c -1.6,1.375 -1.38,5.059 0.47,5.746 10.57,-0.457 18.4,-0.687 27.14,-0.687 9.89,0 15.87,0.23 23.69,0.687 1.83,-1.148 1.83,-4.371 0.46,-5.746 l -3.23,-0.464 c -7.36,-1.149 -11.96,-2.989 -12.88,-4.829 -3.9,-8.277 -3.44,-36.796 -3.44,-47.375 v -54.968"
         style="fill:#ffffff;fill-opacity:1;fill-rule:nonzero;stroke:none"
         id="path112" />
      <path
         d="m 2645.06,446.809 c -19.33,0 -31.52,5.992 -35.88,8.5 -2.76,5.078 -5.75,21.398 -6.21,32.218 1.14,1.61 4.6,2.071 5.52,0.672 3.44,-11.719 12.88,-34.258 39.56,-34.258 19.31,0 28.75,12.649 28.75,26.457 0,10.118 -2.07,21.375 -18.86,32.196 l -21.86,14.258 c -11.49,7.589 -24.83,20.703 -24.83,39.562 0,21.852 17.01,39.559 46.91,39.559 7.13,0 15.41,-1.379 21.4,-2.993 2.99,-0.917 6.2,-1.375 8.05,-1.375 2.07,-5.523 4.14,-18.406 4.14,-28.062 -0.92,-1.383 -4.6,-2.07 -5.75,-0.688 -2.99,11.04 -9.2,25.985 -31.28,25.985 -22.54,0 -27.38,-14.945 -27.38,-25.527 0,-13.34 11.05,-23.004 19.55,-28.286 l 18.4,-11.504 c 14.5,-8.964 28.75,-22.304 28.75,-44.171 0,-25.293 -19.09,-42.543 -48.98,-42.543"
         style="fill:#ffffff;fill-opacity:1;fill-rule:nonzero;stroke:none"
         id="path114" />
      <path
         d="m 2818.7,524.781 c -11.03,0 -11.5,-0.468 -11.5,-7.351 v -32.442 c 0,-24.14 1.15,-27.363 14.04,-28.75 l 6.66,-0.683 c 1.39,-0.918 0.92,-5.071 -0.45,-5.742 -12.42,0.449 -20.25,0.671 -29.22,0.671 -9.88,0 -17.7,-0.457 -26.68,-0.671 -1.37,0.671 -1.83,4.355 -0.46,5.742 l 3.92,0.683 c 12.88,2.305 13.34,4.61 13.34,28.75 v 82.801 c 0,24.152 -1.61,28.063 -13.57,28.981 l -5.98,0.464 c -1.39,0.918 -0.92,5.059 0.46,5.746 11.27,-0.23 19.09,-0.687 28.97,-0.687 8.97,0 16.8,0.23 26.68,0.687 1.39,-0.687 1.84,-4.828 0.47,-5.746 l -4.37,-0.464 c -13.34,-1.375 -13.81,-4.829 -13.81,-28.981 v -26.445 c 0,-7.129 0.47,-7.364 11.5,-7.364 h 65.78 c 11.04,0 11.51,0.235 11.51,7.364 v 26.445 c 0,24.152 -0.47,27.606 -14.05,28.981 l -4.35,0.464 c -1.39,0.918 -0.92,5.059 0.45,5.746 10.58,-0.457 18.4,-0.687 27.83,-0.687 8.98,0 16.8,0.23 27.15,0.687 1.36,-0.687 1.83,-4.828 0.45,-5.746 l -4.83,-0.464 c -13.34,-1.375 -13.81,-4.829 -13.81,-28.981 v -82.801 c 0,-24.14 0.47,-27.129 13.81,-28.75 l 5.53,-0.683 c 1.37,-0.918 0.92,-5.071 -0.47,-5.742 -11.03,0.449 -18.85,0.671 -27.83,0.671 -9.43,0 -17.72,-0.222 -27.83,-0.671 -1.37,0.671 -1.84,4.355 -0.45,5.742 l 4.35,0.683 c 14.05,2.305 14.05,4.61 14.05,28.75 v 32.442 c 0,6.883 -0.47,7.351 -11.51,7.351 h -65.78"
         style="fill:#ffffff;fill-opacity:1;fill-rule:nonzero;stroke:none"
         id="path116" />
      <path
         d="m 3091.26,519.949 c 0,37.953 -16.8,78.891 -60.72,78.891 -23.93,0 -54.96,-16.328 -54.96,-66.695 0,-34.043 16.54,-78.204 61.85,-78.204 27.6,0 53.83,20.704 53.83,66.008 z m -138.69,4.832 c 0,46.004 34.49,81.192 81.87,81.192 53.15,0 79.83,-38.41 79.83,-78.895 0,-46.445 -35.43,-80.269 -79.83,-80.269 -51.05,0 -81.87,36.578 -81.87,77.972"
         style="fill:#ffffff;fill-opacity:1;fill-rule:nonzero;stroke:none"
         id="path118" />
      <path
         d="m 3170.83,484.988 c 0,-24.14 0.47,-27.129 15.18,-28.75 l 6.21,-0.683 c 1.38,-1.153 0.93,-5.071 -0.45,-5.742 -13.11,0.449 -20.71,0.671 -29.9,0.671 -9.67,0 -17.95,-0.222 -28.07,-0.671 -1.37,0.671 -1.84,4.355 -0.45,5.742 l 4.82,0.683 c 13.34,1.836 13.81,4.61 13.81,28.75 v 84.871 c 0,19.555 -0.47,23.465 -10.82,24.61 l -8.28,0.926 c -1.6,1.375 -1.37,4.828 0.47,5.746 12.19,1.609 26.44,1.839 45.53,1.839 19.1,0 33.36,-2.527 44.16,-9.199 10.58,-6.668 18.42,-18.629 18.42,-34.5 0,-21.148 -13.13,-31.734 -23.01,-36.558 -10.12,-4.836 -22.31,-6.907 -31.74,-6.907 -1.62,0.696 -1.62,4.133 -0.24,4.59 24.85,4.61 33.81,18.633 33.81,38.645 0,22.308 -13.1,36.801 -37.03,36.801 -12.19,0 -12.42,-0.918 -12.42,-8.282 V 484.988"
         style="fill:#ffffff;fill-opacity:1;fill-rule:nonzero;stroke:none"
         id="path120" />
      <path
         d="m 3275.95,567.789 c 0,24.152 -0.47,27.832 -13.81,28.981 l -5.74,0.464 c -1.39,0.918 -0.92,5.059 0.45,5.746 11.27,-0.457 18.63,-0.687 28.98,-0.687 8.96,0 16.8,0.23 26.68,0.687 1.39,-0.687 1.84,-4.828 0.47,-5.746 l -4.38,-0.464 c -13.34,-1.375 -13.81,-4.829 -13.81,-28.981 v -26.445 c 0,-4.364 0.47,-8.739 2.99,-8.739 2.07,0 4.85,1.375 6.45,2.528 3.22,2.765 9.2,8.73 11.74,11.047 l 24.82,24.605 c 4.38,4.141 15.65,15.867 17.95,19.086 1.15,1.609 1.6,2.762 1.6,3.68 0,0.918 -0.92,1.613 -3.9,2.301 l -6.22,1.382 c -1.6,1.606 -1.36,4.598 0.47,5.746 8.05,-0.457 17.25,-0.687 25.3,-0.687 8.04,0 15.88,0.23 22.77,0.687 1.6,-1.148 1.84,-4.371 0.47,-5.746 -6,-0.464 -14.96,-2.765 -21.41,-6.441 -6.42,-3.68 -19.31,-14.492 -32.19,-26.68 l -20.7,-19.547 c -3.22,-3.222 -5.29,-5.293 -5.29,-7.128 0,-1.622 1.39,-3.458 4.37,-7.149 21.86,-25.059 39.55,-45.762 57.5,-64.617 5.51,-5.527 10.59,-8.516 18.4,-9.434 l 6.21,-0.683 c 1.6,-1.153 1.16,-5.071 -0.47,-5.742 -5.97,0.449 -14.94,0.671 -25.76,0.671 -9.41,0 -17.48,-0.222 -28.04,-0.671 -1.63,0.449 -2.31,4.355 -0.92,5.742 l 5.27,0.918 c 3.22,0.468 5.53,1.152 5.53,2.304 0,1.368 -1.6,3.223 -3.22,5.282 -4.38,5.519 -10.36,11.73 -19.09,21.632 l -18.39,20.684 c -13.13,14.727 -16.8,19.324 -22.33,19.324 -3.44,0 -3.91,-2.976 -3.91,-11.043 v -29.668 c 0,-24.14 0.47,-27.363 13.34,-28.75 l 6.22,-0.683 c 1.38,-0.918 0.91,-5.071 -0.45,-5.742 -11.27,0.449 -19.11,0.671 -28.07,0.671 -9.43,0 -17.25,-0.222 -26.68,-0.671 -1.39,0.671 -1.84,4.128 -0.47,5.742 l 4.61,0.683 c 12.19,1.836 12.66,4.61 12.66,28.75 v 82.801"
         style="fill:#ffffff;fill-opacity:1;fill-rule:nonzero;stroke:none"
         id="path122" />
      <path
         d="m 3428.9,567.332 c 0,24.379 -0.47,28.289 -14.05,29.438 l -5.74,0.464 c -1.39,0.918 -0.92,5.059 0.45,5.746 11.5,-0.457 19.34,-0.687 28.98,-0.687 9.2,0 17.04,0.23 28.52,0.687 1.39,-0.687 1.86,-4.828 0.47,-5.746 l -5.74,-0.464 c -13.58,-1.149 -14.05,-5.059 -14.05,-29.438 v -81.875 c 0,-24.375 0.47,-27.598 14.05,-29.219 l 5.74,-0.683 c 1.39,-0.918 0.92,-5.071 -0.47,-5.742 -11.48,0.449 -19.32,0.671 -28.52,0.671 -9.64,0 -17.48,-0.222 -28.98,-0.671 -1.37,0.671 -1.84,4.355 -0.45,5.742 l 5.74,0.683 c 13.58,1.621 14.05,4.844 14.05,29.219 v 81.875"
         style="fill:#ffffff;fill-opacity:1;fill-rule:nonzero;stroke:none"
         id="path124" />
      <path
         d="m 3628.08,489.598 c 0,-6.907 0,-34.289 0.68,-40.254 -0.47,-1.383 -1.84,-2.535 -4.38,-2.535 -2.75,3.921 -9.43,11.968 -29.43,34.742 l -53.36,60.722 c -6.21,7.118 -21.85,25.981 -26.68,31.04 h -0.47 c -0.91,-2.758 -1.15,-8.051 -1.15,-14.95 V 508.23 c 0,-10.832 0.24,-40.714 4.14,-47.628 1.39,-2.528 6,-3.895 11.74,-4.364 l 7.13,-0.683 c 1.39,-1.836 1.15,-4.61 -0.47,-5.742 -10.33,0.449 -18.4,0.671 -26.89,0.671 -9.67,0 -15.88,-0.222 -23.93,-0.671 -1.62,1.132 -1.84,4.355 -0.47,5.742 l 6.21,0.683 c 5.29,0.703 8.99,2.078 10.12,4.61 3.22,8.281 3.01,36.336 3.01,47.382 v 66.461 c 0,6.438 -0.24,11.274 -5.08,16.563 -3.2,3.215 -8.73,4.828 -14.26,5.516 l -3.91,0.464 c -1.38,1.375 -1.38,4.829 0.47,5.746 9.65,-0.687 21.84,-0.687 25.98,-0.687 3.69,0 7.6,0.23 10.59,0.687 4.61,-11.726 31.73,-42.089 39.33,-50.601 l 22.31,-25.066 c 15.88,-17.708 27.15,-30.586 37.95,-41.622 h 0.46 c 0.92,1.153 0.92,4.825 0.92,9.649 v 49.226 c 0,10.809 -0.23,40.704 -4.61,47.606 -1.36,2.07 -5.06,3.449 -14.25,4.598 l -3.91,0.464 c -1.6,1.375 -1.39,5.059 0.47,5.746 10.56,-0.457 18.4,-0.687 27.13,-0.687 9.9,0 15.88,0.23 23.69,0.687 1.83,-1.148 1.83,-4.371 0.47,-5.746 l -3.23,-0.464 c -7.36,-1.149 -11.97,-2.989 -12.89,-4.829 -3.9,-8.277 -3.43,-36.796 -3.43,-47.375 v -54.968"
         style="fill:#ffffff;fill-opacity:1;fill-rule:nonzero;stroke:none"
         id="path126" />
      <path
         d="m 3704.21,446.809 c -19.34,0 -31.52,5.992 -35.88,8.5 -2.77,5.078 -5.76,21.398 -6.21,32.218 1.13,1.61 4.59,2.071 5.51,0.672 3.45,-11.719 12.89,-34.258 39.57,-34.258 19.31,0 28.75,12.649 28.75,26.457 0,10.118 -2.07,21.375 -18.87,32.196 l -21.86,14.258 c -11.48,7.589 -24.82,20.703 -24.82,39.562 0,21.852 17.01,39.559 46.91,39.559 7.13,0 15.41,-1.379 21.39,-2.993 2.99,-0.917 6.21,-1.375 8.05,-1.375 2.07,-5.523 4.14,-18.406 4.14,-28.062 -0.92,-1.383 -4.59,-2.07 -5.74,-0.688 -2.99,11.04 -9.2,25.985 -31.29,25.985 -22.54,0 -27.37,-14.945 -27.37,-25.527 0,-13.34 11.04,-23.004 19.55,-28.286 l 18.4,-11.504 c 14.5,-8.964 28.75,-22.304 28.75,-44.171 0,-25.293 -19.1,-42.543 -48.98,-42.543"
         style="fill:#ffffff;fill-opacity:1;fill-rule:nonzero;stroke:none"
         id="path128" />
      <path
         d="m 3957.2,544.566 c 0,14.254 -0.47,40.704 -4.38,47.606 -1.6,2.762 -5.74,4.367 -11.5,4.832 l -5.74,0.461 c -1.39,1.609 -0.92,4.598 0.45,5.515 8.75,-0.457 17.26,-0.687 26.23,-0.687 9.66,0 15.86,0.23 24.14,0.687 1.85,-1.148 1.62,-4.14 0.47,-5.515 l -5.53,-0.461 c -5.74,-0.465 -10.12,-2.535 -11.51,-5.524 -3.2,-7.585 -3.2,-34.035 -3.2,-46.914 v -25.984 c 0,-20.019 -3.22,-41.184 -16.11,-54.98 -9.89,-10.801 -26.92,-16.793 -43.93,-16.793 -15.86,0 -31.74,3.004 -43.01,12.64 -12.18,10.129 -17.95,26.926 -17.95,54.289 v 54.282 c 0,23.921 -0.44,27.832 -13.78,28.984 l -5.77,0.461 c -1.36,0.918 -0.91,4.828 0.47,5.515 11.51,-0.457 19.32,-0.687 28.52,-0.687 9.43,0 17.03,0.23 28.3,0.687 1.37,-0.687 1.84,-4.597 0.45,-5.515 l -5.51,-0.461 c -13.34,-1.152 -13.81,-5.063 -13.81,-28.984 v -49.672 c 0,-37.032 11.51,-61.407 46.7,-61.407 33.34,0 46,26.211 46,61.161 v 26.464"
         style="fill:#ffffff;fill-opacity:1;fill-rule:nonzero;stroke:none"
         id="path130" />
      <path
         d="m 4140.5,489.598 c 0,-6.907 0,-34.289 0.68,-40.254 -0.45,-1.383 -1.83,-2.535 -4.35,-2.535 -2.78,3.921 -9.44,11.968 -29.46,34.742 l -53.36,60.722 c -6.21,7.118 -21.83,25.981 -26.68,31.04 h -0.45 c -0.91,-2.758 -1.15,-8.051 -1.15,-14.95 V 508.23 c 0,-10.832 0.24,-40.714 4.14,-47.628 1.37,-2.528 5.98,-3.895 11.72,-4.364 l 7.13,-0.683 c 1.39,-1.836 1.15,-4.61 -0.45,-5.742 -10.35,0.449 -18.4,0.671 -26.91,0.671 -9.65,0 -15.86,-0.222 -23.93,-0.671 -1.6,1.132 -1.83,4.355 -0.45,5.742 l 6.21,0.683 c 5.3,0.703 8.97,2.078 10.12,4.61 3.22,8.281 2.99,36.336 2.99,47.382 v 66.461 c 0,6.438 -0.24,11.274 -5.06,16.563 -3.22,3.215 -8.75,4.828 -14.26,5.516 l -3.9,0.464 c -1.39,1.375 -1.39,4.829 0.45,5.746 9.66,-0.687 21.85,-0.687 25.99,-0.687 3.67,0 7.6,0.23 10.59,0.687 4.59,-11.726 31.74,-42.089 39.31,-50.601 l 22.33,-25.066 c 15.86,-17.708 27.13,-30.586 37.95,-41.622 h 0.45 c 0.91,1.153 0.91,4.825 0.91,9.649 v 49.226 c 0,10.809 -0.21,40.704 -4.59,47.606 -1.38,2.07 -5.05,3.449 -14.25,4.598 l -3.93,0.464 c -1.6,1.375 -1.37,5.059 0.47,5.746 10.59,-0.457 18.4,-0.687 27.15,-0.687 9.88,0 15.86,0.23 23.69,0.687 1.84,-1.148 1.84,-4.371 0.45,-5.746 l -3.22,-0.464 c -7.37,-1.149 -11.96,-2.989 -12.87,-4.829 -3.91,-8.277 -3.46,-36.796 -3.46,-47.375 v -54.968"
         style="fill:#ffffff;fill-opacity:1;fill-rule:nonzero;stroke:none"
         id="path132" />
      <path
         d="m 4194.56,567.332 c 0,24.379 -0.47,28.289 -14.04,29.438 l -5.74,0.464 c -1.39,0.918 -0.92,5.059 0.44,5.746 11.51,-0.457 19.34,-0.687 28.99,-0.687 9.2,0 17.03,0.23 28.51,0.687 1.39,-0.687 1.86,-4.828 0.47,-5.746 l -5.74,-0.464 c -13.57,-1.149 -14.04,-5.059 -14.04,-29.438 v -81.875 c 0,-24.375 0.47,-27.598 14.04,-29.219 l 5.74,-0.683 c 1.39,-0.918 0.92,-5.071 -0.47,-5.742 -11.48,0.449 -19.31,0.671 -28.51,0.671 -9.65,0 -17.48,-0.222 -28.99,-0.671 -1.36,0.671 -1.83,4.355 -0.44,5.742 l 5.74,0.683 c 13.57,1.621 14.04,4.844 14.04,29.219 v 81.875"
         style="fill:#ffffff;fill-opacity:1;fill-rule:nonzero;stroke:none"
         id="path134" />
      <path
         d="m 4263.54,577.914 c -5.27,12.879 -8.73,17.707 -18.63,18.856 l -4.12,0.464 c -1.62,1.375 -1.39,4.598 0.45,5.746 6.68,-0.457 14.02,-0.687 23.93,-0.687 10.11,0 18.16,0.23 27.83,0.687 1.6,-0.917 2.07,-4.371 0.45,-5.746 l -3.44,-0.464 c -8.75,-1.149 -10.59,-2.528 -10.82,-4.364 0.47,-2.304 4.37,-14.722 11.5,-32.203 10.59,-26.68 21.16,-53.137 32.66,-79.348 7.13,15.188 16.8,38.868 22.09,51.067 6.66,15.633 17.48,41.621 21.39,51.508 1.83,4.836 2.07,7.363 2.07,8.976 0,1.606 -2.31,3.446 -10.36,4.364 l -4.14,0.464 c -1.62,1.375 -1.15,4.829 0.47,5.746 6.43,-0.457 15.18,-0.687 23.91,-0.687 7.6,0 14.73,0.23 22.3,0.687 1.63,-0.917 1.63,-4.597 0.47,-5.746 l -6.89,-0.464 c -5.53,-0.457 -8.99,-3.219 -11.97,-8.047 -6.43,-10.809 -15.41,-29.442 -25.77,-52.907 l -12.4,-28.289 c -9.2,-21.152 -20.02,-47.843 -23.92,-60.015 -0.69,-0.481 -1.63,-0.703 -2.54,-0.703 -1.16,0 -2.29,0.222 -3.44,0.703 -2.54,9.644 -6.68,20.922 -10.59,30.582 l -40.49,99.82"
         style="fill:#ffffff;fill-opacity:1;fill-rule:nonzero;stroke:none"
         id="path136" />
      <path
         d="m 4423.17,567.789 c 0,23.922 -0.46,27.375 -14.04,28.981 l -3.67,0.464 c -1.39,0.918 -0.92,5.059 0.45,5.746 9.9,-0.457 17.71,-0.687 27.15,-0.687 h 43.24 c 14.73,0 28.28,0 31.05,0.687 1.37,-3.906 2.76,-20.468 3.68,-30.589 -0.92,-1.379 -4.59,-1.836 -5.75,-0.461 -3.45,10.812 -5.52,18.863 -17.48,21.851 -4.84,1.153 -12.18,1.383 -22.32,1.383 h -16.54 c -6.92,0 -6.92,-0.457 -6.92,-9.199 v -45.996 c 0,-6.446 0.7,-6.446 7.6,-6.446 h 13.34 c 9.65,0 16.8,0.457 19.55,1.375 2.75,0.918 4.37,2.297 5.51,8.047 l 1.85,9.434 c 1.16,1.383 5.06,1.383 5.98,-0.227 0,-5.515 -0.92,-14.5 -0.92,-23.218 0,-8.282 0.92,-17.032 0.92,-22.09 -0.92,-1.614 -4.82,-1.614 -5.98,-0.235 l -2.07,8.985 c -0.92,4.129 -2.54,7.578 -7.13,8.719 -3.22,0.917 -8.75,1.164 -17.71,1.164 h -13.34 c -6.9,0 -7.6,-0.247 -7.6,-6.211 v -32.422 c 0,-12.199 0.7,-20.031 4.38,-23.926 2.75,-2.773 7.59,-5.293 27.83,-5.293 17.71,0 24.37,0.918 29.43,3.457 4.14,2.285 10.35,10.352 16.33,22.305 1.62,1.14 4.84,0.457 5.76,-1.614 -1.62,-8.046 -7.36,-25.75 -10.35,-31.96 -20.7,0.449 -41.17,0.671 -61.64,0.671 h -20.7 c -9.89,0 -17.72,-0.222 -31.29,-0.671 -1.37,0.671 -1.84,4.355 -0.45,5.742 l 7.58,0.683 c 13.12,1.153 14.27,4.61 14.27,28.75 v 82.801"
         style="fill:#ffffff;fill-opacity:1;fill-rule:nonzero;stroke:none"
         id="path138" />
      <path
         d="m 4574.05,534.676 c 0,-4.153 0,-6.68 0.69,-7.598 0.68,-0.683 4.14,-1.144 15.88,-1.144 8.28,0 17.01,0.918 23.69,5.988 6.21,4.812 11.48,12.859 11.48,28.512 0,18.168 -11.27,35.418 -36.8,35.418 -14.25,0 -14.94,-0.918 -14.94,-7.36 z m -18.86,32.887 c 0,21.851 -0.69,25.761 -10.12,26.906 l -7.36,0.926 c -1.61,1.144 -1.61,4.828 0.23,5.746 12.87,1.152 28.75,1.839 51.29,1.839 14.26,0 27.83,-1.148 38.42,-6.898 11.03,-5.746 19.08,-16.098 19.08,-32.199 0,-21.856 -17.25,-33.817 -28.75,-38.406 -1.15,-1.387 0,-3.692 1.15,-5.528 18.4,-29.679 30.59,-48.066 46.23,-61.172 3.91,-3.468 9.65,-5.976 15.86,-6.445 1.15,-0.449 1.39,-2.305 0.24,-3.223 -2.08,-0.679 -5.75,-1.148 -10.12,-1.148 -19.55,0 -31.29,5.758 -47.62,28.98 -5.98,8.516 -15.41,24.375 -22.54,34.727 -3.44,5.066 -7.13,7.352 -16.33,7.352 -10.35,0 -10.8,-0.215 -10.8,-5.047 v -28.985 c 0,-24.14 0.45,-26.914 13.79,-28.75 l 4.85,-0.683 c 1.36,-1.153 0.91,-5.071 -0.47,-5.742 -10.35,0.449 -18.17,0.671 -27.37,0.671 -9.66,0 -17.95,-0.222 -28.75,-0.671 -1.38,0.671 -1.85,4.128 -0.47,5.742 l 5.77,0.683 c 13.34,1.621 13.79,4.61 13.79,28.75 v 82.575"
         style="fill:#ffffff;fill-opacity:1;fill-rule:nonzero;stroke:none"
         id="path140" />
      <path
         d="m 4723.33,446.809 c -19.34,0 -31.52,5.992 -35.88,8.5 -2.77,5.078 -5.76,21.398 -6.21,32.218 1.13,1.61 4.59,2.071 5.51,0.672 3.46,-11.719 12.89,-34.258 39.57,-34.258 19.31,0 28.75,12.649 28.75,26.457 0,10.118 -2.07,21.375 -18.87,32.196 l -21.85,14.258 c -11.49,7.589 -24.83,20.703 -24.83,39.562 0,21.852 17.01,39.559 46.92,39.559 7.12,0 15.41,-1.379 21.38,-2.993 2.99,-0.917 6.21,-1.375 8.05,-1.375 2.07,-5.523 4.14,-18.406 4.14,-28.062 -0.92,-1.383 -4.59,-2.07 -5.74,-0.688 -2.99,11.04 -9.2,25.985 -31.29,25.985 -22.54,0 -27.36,-14.945 -27.36,-25.527 0,-13.34 11.03,-23.004 19.55,-28.286 l 18.39,-11.504 c 14.5,-8.964 28.75,-22.304 28.75,-44.171 0,-25.293 -19.1,-42.543 -48.98,-42.543"
         style="fill:#ffffff;fill-opacity:1;fill-rule:nonzero;stroke:none"
         id="path142" />
      <path
         d="m 4811.42,567.332 c 0,24.379 -0.47,28.289 -14.05,29.438 l -5.74,0.464 c -1.39,0.918 -0.92,5.059 0.45,5.746 11.5,-0.457 19.34,-0.687 28.98,-0.687 9.2,0 17.04,0.23 28.52,0.687 1.39,-0.687 1.86,-4.828 0.47,-5.746 l -5.74,-0.464 c -13.58,-1.149 -14.05,-5.059 -14.05,-29.438 v -81.875 c 0,-24.375 0.47,-27.598 14.05,-29.219 l 5.74,-0.683 c 1.39,-0.918 0.92,-5.071 -0.47,-5.742 -11.48,0.449 -19.32,0.671 -28.52,0.671 -9.64,0 -17.48,-0.222 -28.98,-0.671 -1.37,0.671 -1.84,4.355 -0.45,5.742 l 5.74,0.683 c 13.58,1.621 14.05,4.844 14.05,29.219 v 81.875"
         style="fill:#ffffff;fill-opacity:1;fill-rule:nonzero;stroke:none"
         id="path144" />
      <path
         d="m 4942.04,484.988 c 0,-24.14 0.47,-27.597 13.81,-28.75 l 7.36,-0.683 c 1.37,-0.918 0.92,-5.071 -0.47,-5.742 -13.1,0.449 -20.91,0.671 -30.11,0.671 -9.2,0 -17.27,-0.222 -31.98,-0.671 -1.38,0.671 -1.85,4.589 0,5.742 l 8.29,0.683 c 13.1,1.153 14.25,4.61 14.25,28.75 v 102.813 c 0,7.133 0,7.363 -6.91,7.363 h -12.64 c -9.9,0 -22.54,-0.457 -28.3,-5.75 -5.51,-5.062 -7.81,-10.121 -10.35,-15.871 -1.84,-1.383 -5.06,-0.23 -5.98,1.609 3.7,10.348 7.13,25.071 8.75,34.27 0.69,0.457 3.68,0.691 4.36,0 1.39,-7.359 8.98,-7.129 19.55,-7.129 h 93.16 c 12.43,0 14.5,0.457 17.93,6.441 1.16,0.457 3.7,0.227 4.14,-0.691 -2.52,-9.434 -4.14,-28.059 -3.43,-34.961 -0.94,-1.84 -4.85,-1.84 -6,-0.461 -0.68,5.75 -2.28,14.262 -5.74,16.793 -5.29,3.91 -14.02,5.75 -26.68,5.75 h -16.33 c -6.89,0 -6.68,-0.23 -6.68,-7.824 V 484.988"
         style="fill:#ffffff;fill-opacity:1;fill-rule:nonzero;stroke:none"
         id="path146" />
      <path
         d="m 5086.94,485.457 c 0,-24.609 1.39,-28.301 13.81,-29.219 l 8.73,-0.683 c 1.39,-1.387 0.92,-5.071 -0.45,-5.742 -14.27,0.449 -22.09,0.671 -31.29,0.671 -9.66,0 -17.95,-0.222 -30.13,-0.671 -1.37,0.671 -1.84,4.355 -0.45,5.742 l 7.13,0.683 c 13.34,1.387 13.79,4.61 13.79,29.219 v 11.727 c 0,12.648 -0.69,15.625 -7.35,28.515 l -27.15,52.903 c -7.81,15.179 -11.27,16.332 -18.16,17.48 l -6.45,1.152 c -1.38,1.606 -1.15,4.829 0.45,5.746 7.37,-0.457 15.65,-0.687 26.7,-0.687 10.57,0 18.85,0.23 24.61,0.687 2.07,-0.687 2.07,-4.371 0.69,-5.746 l -2.99,-0.464 c -8.05,-1.149 -9.67,-2.301 -9.67,-4.137 0,-2.297 5.98,-15.41 7.13,-17.707 8.51,-17.024 17.03,-35.192 25.99,-51.071 7.13,12.208 14.73,25.536 21.63,38.875 6.44,11.961 14.94,27.606 14.94,30.364 0,1.375 -4.14,2.988 -9.65,3.676 l -4.14,0.464 c -1.62,1.606 -1.39,4.829 0.45,5.746 8.28,-0.457 14.96,-0.687 22.09,-0.687 7.13,0 13.57,0.23 21.38,0.687 1.84,-1.148 2.07,-4.371 0.47,-5.746 l -6.44,-1.152 c -11.98,-2.07 -18.87,-16.559 -30.37,-36.34 l -14.48,-25.066 c -10.13,-17.492 -10.82,-19.551 -10.82,-37.278 v -11.941"
         style="fill:#ffffff;fill-opacity:1;fill-rule:nonzero;stroke:none"
         id="path148" />
      <path
         d="m 5625.44,680.426 c 0,-39.598 -28.06,-55.801 -62.35,-36 l -72.29,41.734 c -34.3,19.801 -34.3,52.203 0,72.004 l 72.29,41.727 c 34.29,19.8 62.35,3.601 62.35,-36 z"
         style="fill:none;stroke:#ffffff;stroke-width:15;stroke-linecap:butt;stroke-linejoin:round;stroke-miterlimit:4;stroke-dasharray:none;stroke-opacity:1"
         id="path150" />
      <path
         d="M 5201.3,723.898 5424.35,565.766"
         style="fill:none;stroke:#ffffff;stroke-width:15;stroke-linecap:butt;stroke-linejoin:round;stroke-miterlimit:4;stroke-dasharray:none;stroke-opacity:1"
         id="path152" />
      <path
         d="m 5539.25,437.77 c -22.14,-32.829 -54.46,-30.579 -71.82,5.019 l -36.6,75.031 c -17.36,35.59 0.76,62.45 40.26,59.692 l 83.27,-5.824 c 39.5,-2.758 53.71,-31.887 31.57,-64.719 z"
         style="fill:none;stroke:#ffffff;stroke-width:15;stroke-linecap:butt;stroke-linejoin:round;stroke-miterlimit:4;stroke-dasharray:none;stroke-opacity:1"
         id="path154" />
      <path
         d="m 5194.38,721.223 95.41,-263.364"
         style="fill:none;stroke:#ffffff;stroke-width:15;stroke-linecap:butt;stroke-linejoin:round;stroke-miterlimit:4;stroke-dasharray:none;stroke-opacity:1"
         id="path156" />
      <path
         d="m 5313.66,287.609 c -36.72,-14.828 -62.24,5.11 -56.74,44.332 l 11.62,82.688 c 5.51,39.215 35.55,51.344 66.76,26.961 l 65.78,-51.41 c 31.21,-24.371 26.7,-56.461 -10.02,-71.301 z"
         style="fill:none;stroke:#ffffff;stroke-width:15;stroke-linecap:butt;stroke-linejoin:round;stroke-miterlimit:4;stroke-dasharray:none;stroke-opacity:1"
         id="path158" />
    </g>
  </g>
</svg>
